0x4D, 0x54, 0x68, 0x64, 0x00, 0x00, 0x00, 0x06, 0x00, 0x00, 0x00, 0x01, 0x01, 0xE0, 0x4D, 0x54,
0x72, 0x6B, 0x00, 0x00, 0x41, 0xA8, 0x00, 0xFF, 0x03, 0x0A, 0x44, 0x65, 0x6D, 0x6F, 0x30, 0x34,
0x2E, 0x6D, 0x69, 0x64, 0x00, 0xFF, 0x54, 0x05, 0x60, 0x00, 0x00, 0x00, 0x00, 0x00, 0xFF, 0x58,
0x04, 0x01, 0x02, 0x18, 0x08, 0x00, 0xFF, 0x51, 0x03, 0x07, 0xA1, 0x1F, 0x00, 0xF0, 0x05, 0x7E,
0x7F, 0x09, 0x01, 0xF7, 0x00, 0xF0, 0x05, 0x7E, 0x7F, 0x09, 0x01, 0xF7, 0x00, 0xF0, 0x05, 0x7E,
0x7F, 0x09, 0x01, 0xF7, 0x81, 0x70, 0xB1, 0x00, 0x00, 0x00, 0xB1, 0x20, 0x00, 0x00, 0xC8, 0x00,
0x00, 0xB4, 0x00, 0x00, 0x00, 0xB4, 0x20, 0x00, 0x00, 0xC8, 0x00, 0x00, 0xB5, 0x00, 0x00, 0x00,
0xB5, 0x20, 0x00, 0x00, 0xC8, 0x00, 0x00, 0xB0, 0x00, 0x00, 0x00, 0xB0, 0x20, 0x00, 0x00, 0xC0,
0x00, 0x00, 0xB2, 0x00, 0x00, 0x00, 0xB2, 0x20, 0x00, 0x00, 0xC8, 0x00, 0x00, 0xB3, 0x00, 0x00,
0x00, 0xB3, 0x20, 0x00, 0x00, 0xC8, 0x00, 0x0A, 0xB1, 0x07, 0x78, 0x00, 0xB4, 0x07, 0x3C, 0x00,
0xB5, 0x07, 0x28, 0x00, 0xB0, 0x07, 0x7D, 0x00, 0xB2, 0x07, 0x5A, 0x00, 0xB3, 0x07, 0x3C, 0x0A,
0xB1, 0x0A, 0x36, 0x00, 0xB4, 0x0A, 0x2C, 0x00, 0xB5, 0x0A, 0x18, 0x00, 0xB0, 0x0A, 0x4A, 0x00,
0xB2, 0x0A, 0x54, 0x00, 0xB3, 0x0A, 0x68, 0x81, 0x5C, 0x91, 0x38, 0x78, 0x00, 0xFF, 0x58, 0x04,
0x04, 0x02, 0x18, 0x08, 0x00, 0x91, 0x2C, 0x79, 0x00, 0xFF, 0x51, 0x03, 0x07, 0xD3, 0x34, 0x64,
0x94, 0x38, 0x78, 0x00, 0x94, 0x2C, 0x79, 0x64, 0x95, 0x38, 0x78, 0x00, 0x95, 0x2C, 0x79, 0x94,
0x50, 0x91, 0x31, 0x74, 0x05, 0x91, 0x25, 0x74, 0x32, 0x91, 0x2C, 0x00, 0x2D, 0x94, 0x31, 0x74,
0x05, 0x91, 0x38, 0x00, 0x00, 0x94, 0x25, 0x74, 0x32, 0x94, 0x2C, 0x00, 0x2D, 0x95, 0x31, 0x74,
0x05, 0x94, 0x38, 0x00, 0x00, 0x95, 0x25, 0x74, 0x32, 0x95, 0x2C, 0x00, 0x32, 0x95, 0x38, 0x00,
0x82, 0x3B, 0x91, 0x38, 0x59, 0x64, 0x94, 0x38, 0x59, 0x64, 0x95, 0x38, 0x59, 0x69, 0x91, 0x3D,
0x5C, 0x64, 0x94, 0x3D, 0x5C, 0x64, 0x95, 0x3D, 0x5C, 0x19, 0x91, 0x40, 0x67, 0x19, 0x91, 0x38,
0x00, 0x05, 0x91, 0x3D, 0x00, 0x46, 0x94, 0x40, 0x67, 0x19, 0x94, 0x38, 0x00, 0x05, 0x94, 0x3D,
0x00, 0x46, 0x95, 0x40, 0x67, 0x0F, 0x91, 0x3D, 0x57, 0x0A, 0x95, 0x38, 0x00, 0x05, 0x95, 0x3D,
0x00, 0x14, 0x91, 0x40, 0x00, 0x41, 0x94, 0x3D, 0x57, 0x1D, 0x91, 0x25, 0x00, 0x01, 0x91, 0x3D,
0x00, 0x05, 0x94, 0x40, 0x00, 0x05, 0x91, 0x38, 0x50, 0x3C, 0x95, 0x3D, 0x57, 0x1D, 0x94, 0x25,
0x00, 0x01, 0x94, 0x3D, 0x00, 0x04, 0x91, 0x31, 0x00, 0x01, 0x95, 0x40, 0x00, 0x05, 0x94, 0x38,
0x50, 0x23, 0x91, 0x31, 0x5C, 0x36, 0x95, 0x25, 0x00, 0x01, 0x95, 0x3D, 0x00, 0x04, 0x94, 0x31,
0x00, 0x06, 0x95, 0x38, 0x50, 0x23, 0x94, 0x31, 0x5C, 0x14, 0x91, 0x38, 0x00, 0x23, 0x91, 0x38,
0x53, 0x04, 0x95, 0x31, 0x00, 0x29, 0x95, 0x31, 0x5C, 0x14, 0x94, 0x38, 0x00, 0x23, 0x94, 0x38,
0x53, 0x1E, 0x91, 0x3D, 0x51, 0x23, 0x95, 0x38, 0x00, 0x11, 0x91, 0x38, 0x00, 0x12, 0x95, 0x38,
0x53, 0x1E, 0x94, 0x3D, 0x51, 0x0A, 0x91, 0x40, 0x57, 0x2A, 0x94, 0x38, 0x00, 0x02, 0x91, 0x3D,
0x00, 0x2E, 0x95, 0x3D, 0x51, 0x0A, 0x94, 0x40, 0x57, 0x0A, 0x91, 0x3D, 0x4A, 0x20, 0x95, 0x38,
0x00, 0x02, 0x94, 0x3D, 0x00, 0x0A, 0x91, 0x40, 0x00, 0x1A, 0x91, 0x38, 0x52, 0x14, 0x95, 0x40,
0x57, 0x08, 0x91, 0x3D, 0x00, 0x02, 0x94, 0x3D, 0x4A, 0x19, 0x91, 0x31, 0x00, 0x09, 0x95, 0x3D,
0x00, 0x0A, 0x94, 0x40, 0x00, 0x1A, 0x94, 0x38, 0x52, 0x0A, 0x91, 0x31, 0x55, 0x12, 0x94, 0x3D,
0x00, 0x02, 0x95, 0x3D, 0x4A, 0x19, 0x94, 0x31, 0x00, 0x13, 0x95, 0x40, 0x00, 0x16, 0x91, 0x38,
0x00, 0x04, 0x95, 0x38, 0x52, 0x0A, 0x94, 0x31, 0x55, 0x05, 0x91, 0x38, 0x50, 0x0D, 0x95, 0x3D,
0x00, 0x1B, 0x95, 0x31, 0x00, 0x29, 0x94, 0x38, 0x00, 0x0E, 0x95, 0x31, 0x55, 0x05, 0x94, 0x38,
0x50, 0x05, 0x91, 0x3D, 0x4D, 0x2A, 0x91, 0x38, 0x00, 0x22, 0x95, 0x38, 0x00, 0x13, 0x95, 0x38,
0x50, 0x00, 0x91, 0x40, 0x54, 0x05, 0x94, 0x3D, 0x4D, 0x21, 0x91, 0x3D, 0x00, 0x09, 0x94, 0x38,
0x00, 0x35, 0x91, 0x3D, 0x4B, 0x00, 0x94, 0x40, 0x54, 0x05, 0x95, 0x3D, 0x4D, 0x21, 0x94, 0x3D,
0x00, 0x02, 0x91, 0x40, 0x00, 0x07, 0x95, 0x38, 0x00, 0x17, 0x91, 0x38, 0x4A, 0x1C, 0x91, 0x3D,
0x00, 0x02, 0x94, 0x3D, 0x4B, 0x00, 0x95, 0x40, 0x54, 0x0E, 0x91, 0x31, 0x00, 0x18, 0x95, 0x3D,
0x00, 0x02, 0x94, 0x40, 0x00, 0x19, 0x91, 0x31, 0x57, 0x05, 0x94, 0x38, 0x4A, 0x1C, 0x94, 0x3D,
0x00, 0x02, 0x95, 0x3D, 0x4B, 0x0E, 0x94, 0x31, 0x00, 0x1A, 0x95, 0x40, 0x00, 0x19, 0x94, 0x31,
0x57, 0x05, 0x95, 0x38, 0x4A, 0x03, 0x91, 0x38, 0x00, 0x02, 0x91, 0x38, 0x4C, 0x17, 0x95, 0x3D,
0x00, 0x10, 0x95, 0x31, 0x00, 0x33, 0x95, 0x31, 0x57, 0x08, 0x94, 0x38, 0x00, 0x02, 0x94, 0x38,
0x4C, 0x19, 0x91, 0x3D, 0x4D, 0x32, 0x91, 0x38, 0x00, 0x17, 0x95, 0x38, 0x00, 0x02, 0x95, 0x38,
0x4C, 0x19, 0x94, 0x3D, 0x4D, 0x0F, 0x91, 0x40, 0x4E, 0x23, 0x94, 0x38, 0x00, 0x0B, 0x91, 0x3D,
0x00, 0x27, 0x95, 0x3D, 0x4D, 0x0F, 0x94, 0x40, 0x4E, 0x00, 0x91, 0x3D, 0x4A, 0x23, 0x95, 0x38,
0x00, 0x05, 0x91, 0x40, 0x00, 0x06, 0x94, 0x3D, 0x00, 0x31, 0x91, 0x38, 0x4A, 0x05, 0x95, 0x40,
0x4E, 0x00, 0x94, 0x3D, 0x4A, 0x21, 0x91, 0x3D, 0x00, 0x07, 0x94, 0x40, 0x00, 0x06, 0x95, 0x3D,
0x00, 0x31, 0x94, 0x38, 0x4A, 0x05, 0x95, 0x3D, 0x4A, 0x1B, 0x91, 0x31, 0x00, 0x06, 0x94, 0x3D,
0x00, 0x07, 0x95, 0x40, 0x00, 0x0A, 0x91, 0x31, 0x5B, 0x2D, 0x95, 0x38, 0x4A, 0x20, 0x94, 0x31,
0x00, 0x06, 0x95, 0x3D, 0x00, 0x0C, 0x90, 0x44, 0x5C, 0x05, 0x94, 0x31, 0x5B, 0x20, 0x91, 0x38,
0x00, 0x08, 0x91, 0x38, 0x4D, 0x1E, 0x90, 0x45, 0x62, 0x07, 0x95, 0x31, 0x00, 0x0F, 0x90, 0x44,
0x00, 0x03, 0x92, 0x44, 0x5C, 0x05, 0x95, 0x31, 0x5B, 0x20, 0x94, 0x38, 0x00, 0x08, 0x94, 0x38,
0x4D, 0x0F, 0x90, 0x44, 0x66, 0x0F, 0x91, 0x3D, 0x50, 0x00, 0x92, 0x45, 0x62, 0x0A, 0x90, 0x45,
0x00, 0x0C, 0x92, 0x44, 0x00, 0x03, 0x93, 0x44, 0x5C, 0x1B, 0x91, 0x38, 0x00, 0x0A, 0x95, 0x38,
0x00, 0x08, 0x95, 0x38, 0x4D, 0x0A, 0x90, 0x43, 0x57, 0x05, 0x92, 0x44, 0x66, 0x0F, 0x94, 0x3D,
0x50, 0x00, 0x93, 0x45, 0x62, 0x08, 0x90, 0x44, 0x00, 0x02, 0x92, 0x45, 0x00, 0x00, 0x91, 0x40,
0x50, 0x0C, 0x93, 0x44, 0x00, 0x0D, 0x90, 0x44, 0x67, 0x11, 0x94, 0x38, 0x00, 0x02, 0x91, 0x3D,
0x00, 0x1A, 0x92, 0x43, 0x57, 0x05, 0x93, 0x44, 0x66, 0x0F, 0x95, 0x3D, 0x50, 0x08, 0x92, 0x44,
0x00, 0x02, 0x93, 0x45, 0x00, 0x00, 0x94, 0x40, 0x50, 0x05, 0x91, 0x3D, 0x49, 0x14, 0x92, 0x44,
0x67, 0x0F, 0x90, 0x49, 0x67, 0x02, 0x95, 0x38, 0x00, 0x02, 0x94, 0x3D, 0x00, 0x03, 0x91, 0x40,
0x00, 0x17, 0x93, 0x43, 0x57, 0x04, 0x90, 0x44, 0x00, 0x06, 0x91, 0x38, 0x52, 0x0B, 0x90, 0x43,
0x00, 0x07, 0x93, 0x44, 0x00, 0x02, 0x95, 0x40, 0x50, 0x05, 0x94, 0x3D, 0x49, 0x00, 0x90, 0x4C,
0x66, 0x05, 0x91, 0x3D, 0x00, 0x0E, 0x90, 0x49, 0x00, 0x01, 0x93, 0x44, 0x67, 0x0F, 0x92, 0x49,
0x67, 0x04, 0x95, 0x3D, 0x00, 0x03, 0x94, 0x40, 0x00, 0x1B, 0x92, 0x44, 0x00, 0x06, 0x94, 0x38,
0x52, 0x0B, 0x92, 0x43, 0x00, 0x03, 0x91, 0x31, 0x00, 0x01, 0x91, 0x34, 0x50, 0x00, 0x90, 0x4B,
0x6D, 0x0A, 0x95, 0x3D, 0x49, 0x00, 0x92, 0x4C, 0x66, 0x05, 0x94, 0x3D, 0x00, 0x0C, 0x90, 0x4C,
0x00, 0x02, 0x92, 0x49, 0x00, 0x10, 0x93, 0x49, 0x67, 0x07, 0x95, 0x40, 0x00, 0x1B, 0x93, 0x44,
0x00, 0x06, 0x95, 0x38, 0x52, 0x05, 0x90, 0x49, 0x6D, 0x06, 0x93, 0x43, 0x00, 0x03, 0x94, 0x31,
0x00, 0x01, 0x94, 0x34, 0x50, 0x00, 0x92, 0x4B, 0x6D, 0x0A, 0x93, 0x4C, 0x66, 0x05, 0x95, 0x3D,
0x00, 0x01, 0x91, 0x38, 0x00, 0x01, 0x90, 0x4B, 0x00, 0x08, 0x91, 0x38, 0x50, 0x02, 0x92, 0x4C,
0x00, 0x02, 0x93, 0x49, 0x00, 0x24, 0x90, 0x4B, 0x6C, 0x16, 0x90, 0x49, 0x00, 0x03, 0x92, 0x49,
0x6D, 0x09, 0x95, 0x31, 0x00, 0x01, 0x95, 0x34, 0x50, 0x00, 0x93, 0x4B, 0x6D, 0x10, 0x94, 0x38,
0x00, 0x01, 0x92, 0x4B, 0x00, 0x08, 0x94, 0x38, 0x50, 0x02, 0x93, 0x4C, 0x00, 0x08, 0x91, 0x3D,
0x4B, 0x05, 0x90, 0x49, 0x70, 0x16, 0x90, 0x4B, 0x00, 0x03, 0x92, 0x4B, 0x6C, 0x0E, 0x91, 0x38,
0x00, 0x08, 0x92, 0x49, 0x00, 0x03, 0x93, 0x49, 0x6D, 0x1A, 0x95, 0x38, 0x00, 0x01, 0x93, 0x4B,
0x00, 0x03, 0x90, 0x48, 0x66, 0x05, 0x95, 0x38, 0x50, 0x0A, 0x94, 0x3D, 0x4B, 0x05, 0x92, 0x49,
0x70, 0x04, 0x90, 0x49, 0x00, 0x01, 0x91, 0x40, 0x4E, 0x11, 0x92, 0x4B, 0x00, 0x03, 0x93, 0x4B,
0x6C, 0x0E, 0x94, 0x38, 0x00, 0x08, 0x93, 0x49, 0x00, 0x02, 0x91, 0x3D, 0x00, 0x01, 0x90, 0x49,
0x6D, 0x15, 0x90, 0x48, 0x00, 0x09, 0x92, 0x48, 0x66, 0x0F, 0x95, 0x3D, 0x4B, 0x05, 0x93, 0x49,
0x70, 0x04, 0x92, 0x49, 0x00, 0x01, 0x94, 0x40, 0x4E, 0x0A, 0x91, 0x3D, 0x4D, 0x07, 0x93, 0x4B,
0x00, 0x03, 0x90, 0x4C, 0x63, 0x0E, 0x95, 0x38, 0x00, 0x08, 0x90, 0x49, 0x00, 0x02, 0x94, 0x3D,
0x00, 0x01, 0x92, 0x49, 0x6D, 0x09, 0x91, 0x40, 0x00, 0x0C, 0x92, 0x48, 0x00, 0x09, 0x93, 0x48,
0x66, 0x14, 0x91, 0x38, 0x52, 0x04, 0x93, 0x49, 0x00, 0x01, 0x95, 0x40, 0x4E, 0x05, 0x90, 0x50,
0x6C, 0x05, 0x94, 0x3D, 0x4D, 0x0A, 0x92, 0x4C, 0x63, 0x09, 0x91, 0x3D, 0x00, 0x01, 0x90, 0x4C,
0x00, 0x0C, 0x92, 0x49, 0x00, 0x02, 0x95, 0x3D, 0x00, 0x01, 0x93, 0x49, 0x6D, 0x09, 0x94, 0x40,
0x00, 0x0C, 0x93, 0x48, 0x00, 0x1D, 0x94, 0x38, 0x52, 0x0A, 0x92, 0x50, 0x6C, 0x05, 0x95, 0x3D,
0x4D, 0x06, 0x91, 0x34, 0x00, 0x04, 0x93, 0x4C, 0x63, 0x05, 0x91, 0x31, 0x62, 0x04, 0x94, 0x3D,
0x00, 0x01, 0x92, 0x4C, 0x00, 0x05, 0x90, 0x50, 0x00, 0x07, 0x93, 0x49, 0x00, 0x0C, 0x95, 0x40,
0x00, 0x29, 0x90, 0x44, 0x64, 0x00, 0x95, 0x38, 0x52, 0x0A, 0x93, 0x50, 0x6C, 0x0B, 0x94, 0x34,
0x00, 0x09, 0x94, 0x31, 0x62, 0x04, 0x95, 0x3D, 0x00, 0x01, 0x93, 0x4C, 0x00, 0x05, 0x92, 0x50,
0x00, 0x14, 0x91, 0x38, 0x00, 0x00, 0x91, 0x38, 0x50, 0x14, 0x90, 0x45, 0x68, 0x14, 0x92, 0x44,
0x64, 0x04, 0x90, 0x44, 0x00, 0x11, 0x95, 0x34, 0x00, 0x09, 0x95, 0x31, 0x62, 0x0A, 0x93, 0x50,
0x00, 0x14, 0x94, 0x38, 0x00, 0x00, 0x94, 0x38, 0x50, 0x05, 0x90, 0x44, 0x65, 0x0F, 0x92, 0x45,
0x68, 0x0A, 0x90, 0x45, 0x00, 0x00, 0x91, 0x3D, 0x53, 0x0A, 0x93, 0x44, 0x64, 0x04, 0x92, 0x44,
0x00, 0x26, 0x91, 0x38, 0x00, 0x12, 0x95, 0x38, 0x00, 0x00, 0x95, 0x38, 0x50, 0x00, 0x90, 0x43,
0x59, 0x05, 0x92, 0x44, 0x65, 0x0F, 0x93, 0x45, 0x68, 0x08, 0x90, 0x44, 0x00, 0x02, 0x92, 0x45,
0x00, 0x00, 0x94, 0x3D, 0x53, 0x05, 0x91, 0x40, 0x51, 0x09, 0x93, 0x44, 0x00, 0x10, 0x90, 0x44,
0x67, 0x11, 0x91, 0x3D, 0x00, 0x01, 0x90, 0x43, 0x00, 0x04, 0x94, 0x38, 0x00, 0x12, 0x92, 0x43,
0x59, 0x05, 0x93, 0x44, 0x65, 0x17, 0x92, 0x44, 0x00, 0x02, 0x93, 0x45, 0x00, 0x00, 0x95, 0x3D,
0x53, 0x05, 0x94, 0x40, 0x51, 0x05, 0x91, 0x3D, 0x4B, 0x14, 0x92, 0x44, 0x67, 0x05, 0x90, 0x49,
0x64, 0x0C, 0x94, 0x3D, 0x00, 0x01, 0x92, 0x43, 0x00, 0x04, 0x95, 0x38, 0x00, 0x00, 0x91, 0x40,
0x00, 0x0E, 0x90, 0x44, 0x00, 0x04, 0x93, 0x43, 0x59, 0x14, 0x90, 0x4C, 0x6C, 0x08, 0x93, 0x44,
0x00, 0x07, 0x95, 0x40, 0x51, 0x05, 0x94, 0x3D, 0x4B, 0x00, 0x91, 0x38, 0x50, 0x14, 0x93, 0x44,
0x67, 0x05, 0x92, 0x49, 0x64, 0x0C, 0x95, 0x3D, 0x00, 0x01, 0x93, 0x43, 0x00, 0x02, 0x91, 0x3D,
0x00, 0x02, 0x94, 0x40, 0x00, 0x0E, 0x92, 0x44, 0x00, 0x18, 0x90, 0x4B, 0x6C, 0x00, 0x92, 0x4C,
0x6C, 0x0F, 0x91, 0x31, 0x00, 0x00, 0x91, 0x34, 0x51, 0x05, 0x95, 0x3D, 0x4B, 0x00, 0x94, 0x38,
0x50, 0x0A, 0x90, 0x4C, 0x00, 0x0F, 0x93, 0x49, 0x64, 0x01, 0x90, 0x49, 0x00, 0x0E, 0x94, 0x3D,
0x00, 0x02, 0x95, 0x40, 0x00, 0x0E, 0x93, 0x44, 0x00, 0x09, 0x90, 0x49, 0x6C, 0x0F, 0x92, 0x4B,
0x6C, 0x00, 0x93, 0x4C, 0x6C, 0x0A, 0x90, 0x4B, 0x00, 0x02, 0x91, 0x38, 0x00, 0x03, 0x94, 0x31,
0x00, 0x00, 0x94, 0x34, 0x51, 0x05, 0x95, 0x38, 0x50, 0x0A, 0x92, 0x4C, 0x00, 0x05, 0x91, 0x38,
0x54, 0x0B, 0x92, 0x49, 0x00, 0x0E, 0x95, 0x3D, 0x00, 0x00, 0x90, 0x4B, 0x6F, 0x16, 0x90, 0x49,
0x00, 0x03, 0x92, 0x49, 0x6C, 0x0F, 0x93, 0x4B, 0x6C, 0x0A, 0x92, 0x4B, 0x00, 0x02, 0x94, 0x38,
0x00, 0x03, 0x95, 0x31, 0x00, 0x00, 0x95, 0x34, 0x51, 0x0F, 0x93, 0x4C, 0x00, 0x05, 0x94, 0x38,
0x54, 0x00, 0x91, 0x3D, 0x4B, 0x0A, 0x90, 0x49, 0x72, 0x01, 0x93, 0x49, 0x00, 0x0E, 0x92, 0x4B,
0x6F, 0x0A, 0x90, 0x4B, 0x00, 0x05, 0x91, 0x38, 0x00, 0x07, 0x92, 0x49, 0x00, 0x03, 0x93, 0x49,
0x6C, 0x19, 0x93, 0x4B, 0x00, 0x02, 0x95, 0x38, 0x00, 0x0D, 0x90, 0x48, 0x68, 0x0A, 0x95, 0x38,
0x54, 0x00, 0x94, 0x3D, 0x4B, 0x0A, 0x91, 0x40, 0x54, 0x00, 0x92, 0x49, 0x72, 0x04, 0x90, 0x49,
0x00, 0x0B, 0x93, 0x4B, 0x6F, 0x0A, 0x92, 0x4B, 0x00, 0x05, 0x94, 0x38, 0x00, 0x07, 0x93, 0x49,
0x00, 0x07, 0x91, 0x3D, 0x00, 0x0B, 0x90, 0x49, 0x72, 0x16, 0x90, 0x48, 0x00, 0x03, 0x92, 0x48,
0x68, 0x0A, 0x95, 0x3D, 0x4B, 0x0A, 0x94, 0x40, 0x54, 0x00, 0x91, 0x3D, 0x56, 0x00, 0x93, 0x49,
0x72, 0x04, 0x92, 0x49, 0x00, 0x15, 0x93, 0x4B, 0x00, 0x05, 0x95, 0x38, 0x00, 0x05, 0x90, 0x4C,
0x6C, 0x05, 0x91, 0x40, 0x00, 0x04, 0x94, 0x3D, 0x00, 0x0B, 0x92, 0x49, 0x72, 0x04, 0x90, 0x49,
0x00, 0x12, 0x92, 0x48, 0x00, 0x03, 0x93, 0x48, 0x68, 0x14, 0x95, 0x40, 0x54, 0x00, 0x94, 0x3D,
0x56, 0x04, 0x93, 0x49, 0x00, 0x06, 0x91, 0x38, 0x4A, 0x0A, 0x90, 0x50, 0x6E, 0x0F, 0x92, 0x4C,
0x6C, 0x05, 0x94, 0x40, 0x00, 0x04, 0x95, 0x3D, 0x00, 0x01, 0x90, 0x4C, 0x00, 0x09, 0x91, 0x3D,
0x00, 0x01, 0x93, 0x49, 0x72, 0x04, 0x92, 0x49, 0x00, 0x12, 0x93, 0x48, 0x00, 0x17, 0x95, 0x3D,
0x56, 0x05, 0x91, 0x34, 0x00, 0x00, 0x91, 0x33, 0x5E, 0x05, 0x94, 0x38, 0x4A, 0x0A, 0x90, 0x50,
0x00, 0x00, 0x92, 0x50, 0x6E, 0x0F, 0x93, 0x4C, 0x6C, 0x05, 0x95, 0x40, 0x00, 0x05, 0x92, 0x4C,
0x00, 0x09, 0x94, 0x3D, 0x00, 0x05, 0x93, 0x49, 0x00, 0x1F, 0x90, 0x45, 0x65, 0x0F, 0x94, 0x34,
0x00, 0x00, 0x94, 0x33, 0x5E, 0x03, 0x91, 0x38, 0x00, 0x02, 0x95, 0x38, 0x4A, 0x05, 0x91, 0x39,
0x54, 0x05, 0x92, 0x50, 0x00, 0x00, 0x93, 0x50, 0x6E, 0x19, 0x93, 0x4C, 0x00, 0x09, 0x95, 0x3D,
0x00, 0x15, 0x90, 0x49, 0x73, 0x0F, 0x92, 0x45, 0x65, 0x0A, 0x90, 0x45, 0x00, 0x05, 0x95, 0x34,
0x00, 0x00, 0x95, 0x33, 0x5E, 0x03, 0x94, 0x38, 0x00, 0x07, 0x94, 0x39, 0x54, 0x05, 0x93, 0x50,
0x00, 0x1E, 0x90, 0x4B, 0x72, 0x05, 0x91, 0x3D, 0x57, 0x11, 0x90, 0x49, 0x00, 0x03, 0x92, 0x49,
0x73, 0x0F, 0x93, 0x45, 0x65, 0x0A, 0x92, 0x45, 0x00, 0x08, 0x95, 0x38, 0x00, 0x03, 0x91, 0x39,
0x00, 0x04, 0x95, 0x39, 0x54, 0x14, 0x90, 0x4E, 0x6D, 0x0F, 0x91, 0x42, 0x5B, 0x00, 0x92, 0x4B,
0x72, 0x05, 0x94, 0x3D, 0x57, 0x05, 0x90, 0x4B, 0x00, 0x0C, 0x92, 0x49, 0x00, 0x03, 0x93, 0x49,
0x73, 0x0D, 0x91, 0x3D, 0x00, 0x0C, 0x93, 0x45, 0x00, 0x0A, 0x90, 0x51, 0x73, 0x01, 0x94, 0x39,
0x00, 0x15, 0x90, 0x4E, 0x00, 0x03, 0x92, 0x4E, 0x6D, 0x0F, 0x94, 0x42, 0x5B, 0x00, 0x93, 0x4B,
0x72, 0x05, 0x95, 0x3D, 0x57, 0x00, 0x91, 0x3D, 0x54, 0x05, 0x92, 0x4B, 0x00, 0x0C, 0x93, 0x49,
0x00, 0x10, 0x94, 0x3D, 0x00, 0x07, 0x90, 0x55, 0x7A, 0x02, 0x91, 0x42, 0x00, 0x0D, 0x92, 0x51,
0x73, 0x01, 0x95, 0x39, 0x00, 0x09, 0x90, 0x51, 0x00, 0x0C, 0x92, 0x4E, 0x00, 0x03, 0x93, 0x4E,
0x6D, 0x0A, 0x91, 0x39, 0x4E, 0x05, 0x95, 0x42, 0x5B, 0x05, 0x94, 0x3D, 0x54, 0x05, 0x93, 0x4B,
0x00, 0x05, 0x90, 0x57, 0x77, 0x10, 0x91, 0x3D, 0x00, 0x05, 0x90, 0x55, 0x00, 0x02, 0x95, 0x3D,
0x00, 0x07, 0x92, 0x55, 0x7A, 0x02, 0x94, 0x42, 0x00, 0x0D, 0x93, 0x51, 0x73, 0x0A, 0x92, 0x51,
0x00, 0x0C, 0x93, 0x4E, 0x00, 0x0D, 0x94, 0x39, 0x4E, 0x0A, 0x95, 0x3D, 0x54, 0x05, 0x91, 0x33,
0x00, 0x00, 0x91, 0x36, 0x60, 0x00, 0x90, 0x5F, 0x79, 0x05, 0x92, 0x57, 0x77, 0x10, 0x94, 0x3D,
0x00, 0x05, 0x92, 0x55, 0x00, 0x02, 0x90, 0x57, 0x00, 0x07, 0x93, 0x55, 0x7A, 0x02, 0x95, 0x42,
0x00, 0x17, 0x93, 0x51, 0x00, 0x19, 0x95, 0x39, 0x4E, 0x05, 0x90, 0x5D, 0x77, 0x0A, 0x94, 0x33,
0x00, 0x00, 0x94, 0x36, 0x60, 0x00, 0x92, 0x5F, 0x79, 0x05, 0x93, 0x57, 0x77, 0x0C, 0x90, 0x5F,
0x00, 0x04, 0x95, 0x3D, 0x00, 0x05, 0x93, 0x55, 0x00, 0x02, 0x91, 0x39, 0x00, 0x00, 0x92, 0x57,
0x00, 0x02, 0x91, 0x3D, 0x5C, 0x23, 0x90, 0x5C, 0x7A, 0x16, 0x90, 0x5D, 0x00, 0x03, 0x92, 0x5D,
0x77, 0x0A, 0x95, 0x33, 0x00, 0x00, 0x95, 0x36, 0x60, 0x00, 0x93, 0x5F, 0x79, 0x11, 0x92, 0x5F,
0x00, 0x0B, 0x94, 0x39, 0x00, 0x00, 0x93, 0x57, 0x00, 0x02, 0x94, 0x3D, 0x5C, 0x05, 0x91, 0x3F,
0x5A, 0x00, 0x90, 0x5A, 0x77, 0x15, 0x90, 0x5C, 0x00, 0x09, 0x92, 0x5C, 0x7A, 0x0C, 0x91, 0x3D,
0x00, 0x0A, 0x92, 0x5D, 0x00, 0x03, 0x93, 0x5D, 0x77, 0x0A, 0x90, 0x58, 0x76, 0x11, 0x93, 0x5F,
0x00, 0x02, 0x90, 0x5A, 0x00, 0x09, 0x95, 0x39, 0x00, 0x02, 0x95, 0x3D, 0x5C, 0x05, 0x94, 0x3F,
0x5A, 0x00, 0x92, 0x5A, 0x77, 0x05, 0x91, 0x45, 0x5B, 0x10, 0x92, 0x5C, 0x00, 0x09, 0x93, 0x5C,
0x7A, 0x0C, 0x94, 0x3D, 0x00, 0x03, 0x90, 0x57, 0x77, 0x02, 0x91, 0x3F, 0x00, 0x05, 0x93, 0x5D,
0x00, 0x0D, 0x92, 0x58, 0x76, 0x04, 0x90, 0x58, 0x00, 0x0F, 0x92, 0x5A, 0x00, 0x10, 0x95, 0x3F,
0x5A, 0x00, 0x93, 0x5A, 0x77, 0x05, 0x94, 0x45, 0x5B, 0x00, 0x91, 0x3F, 0x59, 0x10, 0x93, 0x5C,
0x00, 0x09, 0x90, 0x5A, 0x78, 0x0C, 0x95, 0x3D, 0x00, 0x03, 0x91, 0x45, 0x00, 0x00, 0x92, 0x57,
0x77, 0x02, 0x94, 0x3F, 0x00, 0x03, 0x91, 0x3D, 0x53, 0x05, 0x90, 0x57, 0x00, 0x0A, 0x93, 0x58,
0x76, 0x04, 0x92, 0x58, 0x00, 0x0F, 0x93, 0x5A, 0x00, 0x15, 0x95, 0x45, 0x5B, 0x00, 0x94, 0x3F,
0x59, 0x00, 0x90, 0x55, 0x73, 0x11, 0x91, 0x3F, 0x00, 0x05, 0x90, 0x5A, 0x00, 0x03, 0x92, 0x5A,
0x78, 0x0F, 0x94, 0x45, 0x00, 0x00, 0x93, 0x57, 0x77, 0x02, 0x95, 0x3F, 0x00, 0x03, 0x94, 0x3D,
0x53, 0x05, 0x92, 0x57, 0x00, 0x0E, 0x93, 0x58, 0x00, 0x01, 0x91, 0x36, 0x00, 0x00, 0x91, 0x2C,
0x6A, 0x00, 0x90, 0x54, 0x6C, 0x13, 0x90, 0x55, 0x00, 0x10, 0x95, 0x3F, 0x59, 0x00, 0x92, 0x55,
0x73, 0x11, 0x94, 0x3F, 0x00, 0x05, 0x92, 0x5A, 0x00, 0x03, 0x93, 0x5A, 0x78, 0x0F, 0x95, 0x45,
0x00, 0x00, 0x90, 0x57, 0x71, 0x05, 0x95, 0x3D, 0x53, 0x05, 0x93, 0x57, 0x00, 0x0C, 0x90, 0x54,
0x00, 0x03, 0x94, 0x36, 0x00, 0x00, 0x94, 0x2C, 0x6A, 0x00, 0x92, 0x54, 0x6C, 0x11, 0x91, 0x3D,
0x00, 0x02, 0x92, 0x55, 0x00, 0x10, 0x91, 0x33, 0x59, 0x00, 0x93, 0x55, 0x73, 0x11, 0x95, 0x3F,
0x00, 0x03, 0x90, 0x51, 0x73, 0x02, 0x93, 0x5A, 0x00, 0x12, 0x92, 0x57, 0x71, 0x04, 0x90, 0x57,
0x00, 0x12, 0x92, 0x54, 0x00, 0x03, 0x95, 0x36, 0x00, 0x00, 0x95, 0x2C, 0x6A, 0x00, 0x93, 0x54,
0x6C, 0x11, 0x94, 0x3D, 0x00, 0x02, 0x93, 0x55, 0x00, 0x01, 0x91, 0x36, 0x53, 0x0F, 0x94, 0x33,
0x59, 0x00, 0x90, 0x50, 0x74, 0x13, 0x91, 0x33, 0x00, 0x01, 0x92, 0x51, 0x73, 0x04, 0x90, 0x51,
0x00, 0x10, 0x93, 0x57, 0x71, 0x04, 0x92, 0x57, 0x00, 0x12, 0x93, 0x54, 0x00, 0x12, 0x90, 0x4E,
0x75, 0x02, 0x95, 0x3D, 0x00, 0x03, 0x94, 0x36, 0x53, 0x0A, 0x91, 0x3C, 0x3F, 0x05, 0x95, 0x33,
0x59, 0x00, 0x92, 0x50, 0x74, 0x04, 0x90, 0x50, 0x00, 0x0F, 0x94, 0x33, 0x00, 0x01, 0x93, 0x51,
0x73, 0x04, 0x92, 0x51, 0x00, 0x0B, 0x90, 0x51, 0x69, 0x04, 0x91, 0x36, 0x00, 0x05, 0x93, 0x57,
0x00, 0x24, 0x92, 0x4E, 0x75, 0x05, 0x95, 0x36, 0x53, 0x05, 0x91, 0x36, 0x52, 0x05, 0x94, 0x3C,
0x3F, 0x05, 0x93, 0x50, 0x74, 0x04, 0x92, 0x50, 0x00, 0x01, 0x90, 0x4C, 0x75, 0x0E, 0x95, 0x33,
0x00, 0x05, 0x93, 0x51, 0x00, 0x02, 0x90, 0x51, 0x00, 0x02, 0x91, 0x3C, 0x00, 0x07, 0x92, 0x51,
0x69, 0x04, 0x94, 0x36, 0x00, 0x03, 0x90, 0x4E, 0x00, 0x1C, 0x91, 0x33, 0x52, 0x0A, 0x93, 0x4E,
0x75, 0x0A, 0x94, 0x36, 0x52, 0x00, 0x90, 0x4B, 0x74, 0x05, 0x95, 0x3C, 0x3F, 0x07, 0x91, 0x36,
0x00, 0x02, 0x93, 0x50, 0x00, 0x01, 0x92, 0x4C, 0x75, 0x0A, 0x90, 0x4C, 0x00, 0x0B, 0x92, 0x51,
0x00, 0x02, 0x94, 0x3C, 0x00, 0x07, 0x93, 0x51, 0x69, 0x04, 0x95, 0x36, 0x00, 0x03, 0x92, 0x4E,
0x00, 0x17, 0x90, 0x4E, 0x74, 0x05, 0x94, 0x33, 0x52, 0x05, 0x91, 0x2C, 0x00, 0x00, 0x91, 0x2C,
0x5F, 0x0C, 0x90, 0x4B, 0x00, 0x03, 0x95, 0x36, 0x52, 0x00, 0x92, 0x4B, 0x74, 0x0C, 0x94, 0x36,
0x00, 0x03, 0x93, 0x4C, 0x75, 0x0A, 0x92, 0x4C, 0x00, 0x0B, 0x93, 0x51, 0x00, 0x02, 0x95, 0x3C,
0x00, 0x07, 0x90, 0x49, 0x6A, 0x07, 0x93, 0x4E, 0x00, 0x0E, 0x90, 0x4E, 0x00, 0x09, 0x92, 0x4E,
0x74, 0x05, 0x95, 0x33, 0x52, 0x05, 0x94, 0x2C, 0x00, 0x00, 0x94, 0x2C, 0x5F, 0x0C, 0x92, 0x4B,
0x00, 0x03, 0x93, 0x4B, 0x74, 0x02, 0x91, 0x33, 0x00, 0x08, 0x91, 0x33, 0x57, 0x02, 0x95, 0x36,
0x00, 0x08, 0x90, 0x48, 0x6F, 0x05, 0x93, 0x4C, 0x00, 0x11, 0x90, 0x49, 0x00, 0x03, 0x92, 0x49,
0x6A, 0x15, 0x92, 0x4E, 0x00, 0x09, 0x93, 0x4E, 0x74, 0x0A, 0x95, 0x2C, 0x00, 0x00, 0x95, 0x2C,
0x5F, 0x05, 0x90, 0x4B, 0x6F, 0x07, 0x93, 0x4B, 0x00, 0x05, 0x94, 0x33, 0x00, 0x08, 0x94, 0x33,
0x57, 0x01, 0x90, 0x48, 0x00, 0x09, 0x92, 0x48, 0x6F, 0x05, 0x91, 0x36, 0x4E, 0x11, 0x92, 0x49,
0x00, 0x03, 0x93, 0x49, 0x6A, 0x15, 0x93, 0x4E, 0x00, 0x05, 0x91, 0x33, 0x00, 0x09, 0x90, 0x45,
0x69, 0x0A, 0x92, 0x4B, 0x6F, 0x0C, 0x95, 0x33, 0x00, 0x05, 0x90, 0x4B, 0x00, 0x03, 0x95, 0x33,
0x57, 0x01, 0x92, 0x48, 0x00, 0x04, 0x91, 0x3C, 0x44, 0x05, 0x93, 0x48, 0x6F, 0x05, 0x94, 0x36,
0x4E, 0x11, 0x93, 0x49, 0x00, 0x09, 0x91, 0x36, 0x00, 0x0E, 0x90, 0x44, 0x6B, 0x06, 0x94, 0x33,
0x00, 0x09, 0x92, 0x45, 0x69, 0x0A, 0x90, 0x45, 0x00, 0x00, 0x93, 0x4B, 0x6F, 0x11, 0x92, 0x4B,
0x00, 0x04, 0x93, 0x48, 0x00, 0x04, 0x94, 0x3C, 0x44, 0x0A, 0x95, 0x36, 0x4E, 0x00, 0x91, 0x36,
0x4D, 0x0A, 0x90, 0x47, 0x69, 0x10, 0x94, 0x36, 0x00, 0x05, 0x90, 0x44, 0x00, 0x09, 0x92, 0x44,
0x6B, 0x04, 0x91, 0x3C, 0x00, 0x02, 0x95, 0x33, 0x00, 0x09, 0x93, 0x45, 0x69, 0x0A, 0x92, 0x45,
0x00, 0x11, 0x93, 0x4B, 0x00, 0x08, 0x95, 0x3C, 0x44, 0x0A, 0x94, 0x36, 0x4D, 0x05, 0x90, 0x45,
0x69, 0x05, 0x92, 0x47, 0x69, 0x05, 0x91, 0x33, 0x4D, 0x0B, 0x95, 0x36, 0x00, 0x05, 0x92, 0x44,
0x00, 0x02, 0x90, 0x47, 0x00, 0x07, 0x93, 0x44, 0x6B, 0x04, 0x94, 0x3C, 0x00, 0x11, 0x91, 0x36,
0x00, 0x04, 0x93, 0x45, 0x00, 0x23, 0x90, 0x45, 0x00, 0x00, 0x95, 0x36, 0x4D, 0x05, 0x92, 0x45,
0x69, 0x05, 0x93, 0x47, 0x69, 0x05, 0x94, 0x33, 0x4D, 0x10, 0x93, 0x44, 0x00, 0x02, 0x92, 0x47,
0x00, 0x0B, 0x95, 0x3C, 0x00, 0x06, 0x91, 0x2C, 0x00, 0x00, 0x91, 0x31, 0x5C, 0x0B, 0x94, 0x36,
0x00, 0x10, 0x91, 0x33, 0x00, 0x17, 0x92, 0x45, 0x00, 0x05, 0x93, 0x45, 0x69, 0x0A, 0x95, 0x33,
0x4D, 0x12, 0x93, 0x47, 0x00, 0x11, 0x94, 0x2C, 0x00, 0x00, 0x94, 0x31, 0x5C, 0x05, 0x90, 0x44,
0x5E, 0x06, 0x95, 0x36, 0x00, 0x10, 0x94, 0x33, 0x00, 0x17, 0x93, 0x45, 0x00, 0x32, 0x95, 0x2C,
0x00, 0x00, 0x95, 0x31, 0x5C, 0x05, 0x92, 0x44, 0x5E, 0x00, 0x90, 0x45, 0x62, 0x05, 0x91, 0x38,
0x4F, 0x11, 0x95, 0x33, 0x00, 0x08, 0x90, 0x44, 0x00, 0x3C, 0x90, 0x44, 0x5C, 0x0A, 0x93, 0x44,
0x5E, 0x00, 0x92, 0x45, 0x62, 0x05, 0x94, 0x38, 0x4F, 0x0C, 0x90, 0x45, 0x00, 0x0D, 0x92, 0x44,
0x00, 0x14, 0x91, 0x3D, 0x4E, 0x23, 0x90, 0x43, 0x57, 0x05, 0x92, 0x44, 0x5C, 0x0A, 0x93, 0x45,
0x62, 0x05, 0x95, 0x38, 0x4F, 0x03, 0x91, 0x38, 0x00, 0x05, 0x90, 0x44, 0x00, 0x04, 0x92, 0x45,
0x00, 0x0D, 0x93, 0x44, 0x00, 0x14, 0x94, 0x3D, 0x4E, 0x00, 0x91, 0x40, 0x50, 0x05, 0x90, 0x44,
0x69, 0x15, 0x90, 0x43, 0x00, 0x09, 0x92, 0x43, 0x57, 0x05, 0x91, 0x3D, 0x00, 0x00, 0x93, 0x44,
0x5C, 0x12, 0x94, 0x38, 0x00, 0x05, 0x92, 0x44, 0x00, 0x04, 0x93, 0x45, 0x00, 0x21, 0x95, 0x3D,
0x4E, 0x00, 0x94, 0x40, 0x50, 0x05, 0x91, 0x3D, 0x48, 0x00, 0x92, 0x44, 0x69, 0x0F, 0x90, 0x49,
0x64, 0x06, 0x92, 0x43, 0x00, 0x09, 0x93, 0x43, 0x57, 0x05, 0x94, 0x3D, 0x00, 0x07, 0x91, 0x40,
0x00, 0x07, 0x90, 0x44, 0x00, 0x04, 0x95, 0x38, 0x00, 0x05, 0x93, 0x44, 0x00, 0x0C, 0x91, 0x38,
0x53, 0x0A, 0x90, 0x4C, 0x69, 0x0F, 0x95, 0x40, 0x50, 0x03, 0x91, 0x3D, 0x00, 0x01, 0x90, 0x49,
0x00, 0x01, 0x94, 0x3D, 0x48, 0x00, 0x93, 0x44, 0x69, 0x0F, 0x92, 0x49, 0x64, 0x06, 0x93, 0x43,
0x00, 0x0E, 0x95, 0x3D, 0x00, 0x07, 0x94, 0x40, 0x00, 0x07, 0x92, 0x44, 0x00, 0x15, 0x91, 0x31,
0x00, 0x00, 0x91, 0x34, 0x52, 0x00, 0x94, 0x38, 0x53, 0x0A, 0x92, 0x4C, 0x69, 0x05, 0x90, 0x4B,
0x6D, 0x0D, 0x94, 0x3D, 0x00, 0x01, 0x92, 0x49, 0x00, 0x01, 0x95, 0x3D, 0x48, 0x0F, 0x93, 0x49,
0x64, 0x01, 0x90, 0x4C, 0x00, 0x1A, 0x95, 0x40, 0x00, 0x07, 0x93, 0x44, 0x00, 0x15, 0x94, 0x31,
0x00, 0x00, 0x94, 0x34, 0x52, 0x00, 0x90, 0x49, 0x6A, 0x00, 0x95, 0x38, 0x53, 0x0A, 0x93, 0x4C,
0x69, 0x05, 0x92, 0x4B, 0x6D, 0x0A, 0x91, 0x38, 0x00, 0x00, 0x90, 0x4B, 0x00, 0x03, 0x95, 0x3D,
0x00, 0x01, 0x93, 0x49, 0x00, 0x06, 0x91, 0x38, 0x53, 0x0B, 0x92, 0x4C, 0x00, 0x1D, 0x90, 0x4B,
0x6C, 0x16, 0x90, 0x49, 0x00, 0x03, 0x95, 0x31, 0x00, 0x00, 0x95, 0x34, 0x52, 0x00, 0x92, 0x49,
0x6A, 0x0A, 0x91, 0x3D, 0x50, 0x05, 0x93, 0x4B, 0x6D, 0x0A, 0x94, 0x38, 0x00, 0x00, 0x92, 0x4B,
0x00, 0x0A, 0x94, 0x38, 0x53, 0x05, 0x91, 0x38, 0x00, 0x06, 0x93, 0x4C, 0x00, 0x13, 0x90, 0x49,
0x6D, 0x0A, 0x92, 0x4B, 0x6C, 0x11, 0x90, 0x4B, 0x00, 0x05, 0x92, 0x49, 0x00, 0x03, 0x93, 0x49,
0x6A, 0x0A, 0x94, 0x3D, 0x50, 0x0F, 0x95, 0x38, 0x00, 0x00, 0x93, 0x4B, 0x00, 0x05, 0x91, 0x40,
0x50, 0x00, 0x90, 0x48, 0x6A, 0x05, 0x95, 0x38, 0x53, 0x05, 0x94, 0x38, 0x00, 0x09, 0x90, 0x49,
0x00, 0x10, 0x92, 0x49, 0x6D, 0x0A, 0x93, 0x4B, 0x6C, 0x03, 0x91, 0x3D, 0x00, 0x0E, 0x92, 0x4B,
0x00, 0x05, 0x93, 0x49, 0x00, 0x03, 0x90, 0x49, 0x70, 0x0A, 0x95, 0x3D, 0x50, 0x0B, 0x90, 0x48,
0x00, 0x09, 0x94, 0x40, 0x50, 0x00, 0x92, 0x48, 0x6A, 0x05, 0x91, 0x3D, 0x50, 0x05, 0x95, 0x38,
0x00, 0x09, 0x92, 0x49, 0x00, 0x06, 0x90, 0x4C, 0x6D, 0x0A, 0x93, 0x49, 0x6D, 0x0C, 0x91, 0x40,
0x00, 0x01, 0x94, 0x3D, 0x00, 0x0E, 0x93, 0x4B, 0x00, 0x08, 0x92, 0x49, 0x70, 0x14, 0x91, 0x38,
0x50, 0x01, 0x92, 0x48, 0x00, 0x09, 0x95, 0x40, 0x50, 0x00, 0x93, 0x48, 0x6A, 0x05, 0x94, 0x3D,
0x50, 0x0E, 0x93, 0x49, 0x00, 0x01, 0x90, 0x50, 0x73, 0x04, 0x91, 0x3D, 0x00, 0x01, 0x92, 0x4C,
0x6D, 0x16, 0x94, 0x40, 0x00, 0x01, 0x95, 0x3D, 0x00, 0x00, 0x90, 0x4C, 0x00, 0x11, 0x90, 0x49,
0x00, 0x05, 0x93, 0x49, 0x70, 0x14, 0x94, 0x38, 0x50, 0x01, 0x93, 0x48, 0x00, 0x0E, 0x91, 0x34,
0x00, 0x00, 0x91, 0x31, 0x67, 0x00, 0x95, 0x3D, 0x50, 0x0F, 0x92, 0x50, 0x73, 0x04, 0x94, 0x3D,
0x00, 0x01, 0x93, 0x4C, 0x6D, 0x13, 0x90, 0x50, 0x00, 0x03, 0x95, 0x40, 0x00, 0x01, 0x92, 0x4C,
0x00, 0x11, 0x92, 0x49, 0x00, 0x19, 0x95, 0x38, 0x50, 0x01, 0x91, 0x38, 0x00, 0x09, 0x90, 0x44,
0x69, 0x05, 0x94, 0x34, 0x00, 0x00, 0x94, 0x31, 0x67, 0x0A, 0x91, 0x38, 0x54, 0x05, 0x93, 0x50,
0x73, 0x04, 0x95, 0x3D, 0x00, 0x14, 0x92, 0x50, 0x00, 0x04, 0x93, 0x4C, 0x00, 0x11, 0x93, 0x49,
0x00, 0x0F, 0x90, 0x46, 0x6D, 0x0B, 0x94, 0x38, 0x00, 0x09, 0x92, 0x44, 0x69, 0x04, 0x90, 0x44,
0x00, 0x01, 0x95, 0x34, 0x00, 0x00, 0x95, 0x31, 0x67, 0x0A, 0x94, 0x38, 0x54, 0x14, 0x91, 0x3A,
0x50, 0x09, 0x93, 0x50, 0x00, 0x06, 0x90, 0x44, 0x6A, 0x15, 0x90, 0x46, 0x00, 0x09, 0x92, 0x46,
0x6D, 0x03, 0x91, 0x38, 0x00, 0x08, 0x95, 0x38, 0x00, 0x09, 0x93, 0x44, 0x69, 0x04, 0x92, 0x44,
0x00, 0x0B, 0x95, 0x38, 0x54, 0x00, 0x91, 0x40, 0x54, 0x14, 0x94, 0x3A, 0x50, 0x00, 0x90, 0x43,
0x62, 0x0C, 0x91, 0x3A, 0x00, 0x03, 0x92, 0x44, 0x6A, 0x0A, 0x90, 0x44, 0x00, 0x0B, 0x92, 0x46,
0x00, 0x09, 0x93, 0x46, 0x6D, 0x03, 0x94, 0x38, 0x00, 0x11, 0x90, 0x44, 0x6B, 0x04, 0x93, 0x44,
0x00, 0x0B, 0x94, 0x40, 0x54, 0x04, 0x90, 0x43, 0x00, 0x10, 0x95, 0x3A, 0x50, 0x00, 0x92, 0x43,
0x62, 0x0A, 0x91, 0x3A, 0x53, 0x02, 0x94, 0x3A, 0x00, 0x03, 0x93, 0x44, 0x6A, 0x0A, 0x92, 0x44,
0x00, 0x0B, 0x93, 0x46, 0x00, 0x09, 0x90, 0x49, 0x70, 0x03, 0x95, 0x38, 0x00, 0x0E, 0x91, 0x40,
0x00, 0x03, 0x92, 0x44, 0x6B, 0x04, 0x90, 0x44, 0x00, 0x06, 0x91, 0x38, 0x54, 0x05, 0x95, 0x40,
0x54, 0x04, 0x92, 0x43, 0x00, 0x10, 0x93, 0x43, 0x62, 0x01, 0x91, 0x3A, 0x00, 0x09, 0x94, 0x3A,
0x53, 0x02, 0x95, 0x3A, 0x00, 0x08, 0x90, 0x4C, 0x6E, 0x05, 0x93, 0x44, 0x00, 0x11, 0x90, 0x49,
0x00, 0x03, 0x92, 0x49, 0x70, 0x11, 0x94, 0x40, 0x00, 0x03, 0x93, 0x44, 0x6B, 0x04, 0x92, 0x44,
0x00, 0x06, 0x94, 0x38, 0x54, 0x09, 0x93, 0x43, 0x00, 0x06, 0x91, 0x31, 0x00, 0x00, 0x91, 0x34,
0x5B, 0x0B, 0x94, 0x3A, 0x00, 0x09, 0x95, 0x3A, 0x53, 0x00, 0x90, 0x4B, 0x73, 0x0A, 0x92, 0x4C,
0x6E, 0x11, 0x90, 0x4C, 0x00, 0x05, 0x92, 0x49, 0x00, 0x03, 0x93, 0x49, 0x70, 0x11, 0x95, 0x40,
0x00, 0x07, 0x93, 0x44, 0x00, 0x06, 0x95, 0x38, 0x54, 0x0F, 0x94, 0x31, 0x00, 0x00, 0x94, 0x34,
0x5B, 0x00, 0x90, 0x49, 0x6D, 0x0B, 0x95, 0x3A, 0x00, 0x02, 0x91, 0x38, 0x00, 0x07, 0x91, 0x38,
0x57, 0x00, 0x92, 0x4B, 0x73, 0x04, 0x90, 0x4B, 0x00, 0x06, 0x93, 0x4C, 0x6E, 0x11, 0x92, 0x4C,
0x00, 0x05, 0x93, 0x49, 0x00, 0x1C, 0x90, 0x4B, 0x76, 0x14, 0x95, 0x31, 0x00, 0x00, 0x95, 0x34,
0x5B, 0x00, 0x92, 0x49, 0x6D, 0x04, 0x90, 0x49, 0x00, 0x09, 0x94, 0x38, 0x00, 0x07, 0x94, 0x38,
0x57, 0x00, 0x93, 0x4B, 0x73, 0x04, 0x92, 0x4B, 0x00, 0x01, 0x91, 0x3A, 0x54, 0x16, 0x93, 0x4C,
0x00, 0x0D, 0x90, 0x49, 0x6D, 0x07, 0x91, 0x38, 0x00, 0x0D, 0x92, 0x4B, 0x76, 0x04, 0x90, 0x4B,
0x00, 0x10, 0x93, 0x49, 0x6D, 0x04, 0x92, 0x49, 0x00, 0x09, 0x95, 0x38, 0x00, 0x07, 0x95, 0x38,
0x57, 0x04, 0x93, 0x4B, 0x00, 0x01, 0x94, 0x3A, 0x54, 0x00, 0x91, 0x3D, 0x55, 0x05, 0x90, 0x48,
0x6B, 0x15, 0x90, 0x49, 0x00, 0x09, 0x92, 0x49, 0x6D, 0x05, 0x91, 0x3A, 0x00, 0x02, 0x94, 0x38,
0x00, 0x0D, 0x93, 0x4B, 0x76, 0x04, 0x92, 0x4B, 0x00, 0x14, 0x93, 0x49, 0x00, 0x06, 0x90, 0x49,
0x79, 0x0F, 0x95, 0x3A, 0x54, 0x00, 0x94, 0x3D, 0x55, 0x05, 0x92, 0x48, 0x6B, 0x04, 0x90, 0x48,
0x00, 0x0B, 0x91, 0x3A, 0x59, 0x06, 0x92, 0x49, 0x00, 0x09, 0x93, 0x49, 0x6D, 0x05, 0x94, 0x3A,
0x00, 0x02, 0x95, 0x38, 0x00, 0x11, 0x93, 0x4B, 0x00, 0x09, 0x91, 0x3D, 0x00, 0x02, 0x90, 0x4C,
0x73, 0x0F, 0x92, 0x49, 0x79, 0x0A, 0x90, 0x49, 0x00, 0x05, 0x95, 0x3D, 0x55, 0x05, 0x93, 0x48,
0x6B, 0x04, 0x92, 0x48, 0x00, 0x01, 0x91, 0x38, 0x52, 0x0A, 0x94, 0x3A, 0x59, 0x06, 0x93, 0x49,
0x00, 0x0E, 0x95, 0x3A, 0x00, 0x06, 0x91, 0x3A, 0x00, 0x09, 0x90, 0x50, 0x74, 0x0D, 0x94, 0x3D,
0x00, 0x02, 0x92, 0x4C, 0x73, 0x0A, 0x90, 0x4C, 0x00, 0x05, 0x93, 0x49, 0x79, 0x0A, 0x92, 0x49,
0x00, 0x0E, 0x93, 0x48, 0x00, 0x01, 0x94, 0x38, 0x52, 0x0A, 0x95, 0x3A, 0x59, 0x0A, 0x91, 0x34,
0x00, 0x00, 0x91, 0x33, 0x5D, 0x10, 0x94, 0x3A, 0x00, 0x09, 0x92, 0x50, 0x74, 0x05, 0x90, 0x4B,
0x75, 0x08, 0x95, 0x3D, 0x00, 0x02, 0x93, 0x4C, 0x73, 0x0A, 0x92, 0x4C, 0x00, 0x0B, 0x90, 0x50,
0x00, 0x04, 0x93, 0x49, 0x00, 0x0F, 0x95, 0x38, 0x52, 0x14, 0x94, 0x34, 0x00, 0x00, 0x94, 0x33,
0x5D, 0x05, 0x90, 0x4C, 0x76, 0x09, 0x91, 0x38, 0x00, 0x02, 0x95, 0x3A, 0x00, 0x04, 0x91, 0x38,
0x58, 0x05, 0x93, 0x50, 0x74, 0x02, 0x90, 0x4B, 0x00, 0x03, 0x92, 0x4B, 0x75, 0x14, 0x93, 0x4C,
0x00, 0x0B, 0x92, 0x50, 0x00, 0x27, 0x95, 0x34, 0x00, 0x00, 0x95, 0x33, 0x5D, 0x05, 0x92, 0x4C,
0x76, 0x05, 0x90, 0x4B, 0x73, 0x04, 0x94, 0x38, 0x00, 0x06, 0x94, 0x38, 0x58, 0x07, 0x92, 0x4B,
0x00, 0x03, 0x93, 0x4B, 0x75, 0x0B, 0x90, 0x4C, 0x00, 0x0E, 0x91, 0x3B, 0x53, 0x06, 0x93, 0x50,
0x00, 0x22, 0x90, 0x4A, 0x72, 0x0A, 0x93, 0x4C, 0x76, 0x04, 0x91, 0x38, 0x00, 0x01, 0x92, 0x4B,
0x73, 0x04, 0x95, 0x38, 0x00, 0x06, 0x90, 0x4B, 0x00, 0x00, 0x95, 0x38, 0x58, 0x07, 0x93, 0x4B,
0x00, 0x0E, 0x92, 0x4C, 0x00, 0x0E, 0x94, 0x3B, 0x53, 0x1E, 0x91, 0x3F, 0x55, 0x0A, 0x92, 0x4A,
0x72, 0x05, 0x90, 0x4B, 0x76, 0x09, 0x94, 0x38, 0x00, 0x01, 0x93, 0x4B, 0x73, 0x0A, 0x92, 0x4B,
0x00, 0x0B, 0x90, 0x4A, 0x00, 0x06, 0x91, 0x3B, 0x00, 0x04, 0x93, 0x4C, 0x00, 0x0E, 0x95, 0x3B,
0x53, 0x1E, 0x94, 0x3F, 0x55, 0x0A, 0x93, 0x4A, 0x72, 0x05, 0x92, 0x4B, 0x76, 0x05, 0x91, 0x3B,
0x4F, 0x04, 0x95, 0x38, 0x00, 0x01, 0x90, 0x53, 0x7C, 0x0A, 0x93, 0x4B, 0x00, 0x0B, 0x92, 0x4A,
0x00, 0x06, 0x94, 0x3B, 0x00, 0x06, 0x90, 0x4B, 0x00, 0x0A, 0x91, 0x3F, 0x00, 0x20, 0x95, 0x3F,
0x55, 0x0F, 0x93, 0x4B, 0x76, 0x00, 0x90, 0x52, 0x79, 0x05, 0x94, 0x3B, 0x4F, 0x05, 0x92, 0x53,
0x7C, 0x00, 0x91, 0x38, 0x58, 0x11, 0x90, 0x53, 0x00, 0x04, 0x93, 0x4A, 0x00, 0x06, 0x95, 0x3B,
0x00, 0x06, 0x92, 0x4B, 0x00, 0x09, 0x91, 0x3B, 0x00, 0x01, 0x94, 0x3F, 0x00, 0x2A, 0x90, 0x50,
0x77, 0x05, 0x92, 0x52, 0x79, 0x05, 0x95, 0x3B, 0x4F, 0x05, 0x93, 0x53, 0x7C, 0x00, 0x94, 0x38,
0x58, 0x0D, 0x90, 0x52, 0x00, 0x04, 0x92, 0x53, 0x00, 0x10, 0x93, 0x4B, 0x00, 0x09, 0x94, 0x3B,
0x00, 0x01, 0x95, 0x3F, 0x00, 0x20, 0x91, 0x33, 0x00, 0x00, 0x91, 0x33, 0x56, 0x0A, 0x92, 0x50,
0x77, 0x05, 0x93, 0x52, 0x79, 0x0A, 0x95, 0x38, 0x58, 0x0A, 0x90, 0x4F, 0x79, 0x03, 0x92, 0x52,
0x00, 0x04, 0x93, 0x53, 0x00, 0x19, 0x95, 0x3B, 0x00, 0x05, 0x90, 0x50, 0x00, 0x1C, 0x94, 0x33,
0x00, 0x00, 0x94, 0x33, 0x56, 0x0A, 0x93, 0x50, 0x77, 0x19, 0x92, 0x4F, 0x79, 0x03, 0x93, 0x52,
0x00, 0x20, 0x90, 0x4F, 0x00, 0x00, 0x90, 0x58, 0x76, 0x02, 0x92, 0x50, 0x00, 0x1C, 0x95, 0x33,
0x00, 0x00, 0x91, 0x38, 0x00, 0x00, 0x95, 0x33, 0x56, 0x0A, 0x91, 0x3A, 0x4E, 0x19, 0x93, 0x4F,
0x79, 0x1E, 0x90, 0x57, 0x6F, 0x05, 0x92, 0x4F, 0x00, 0x00, 0x92, 0x58, 0x76, 0x02, 0x93, 0x50,
0x00, 0x15, 0x90, 0x58, 0x00, 0x07, 0x94, 0x38, 0x00, 0x0A, 0x94, 0x3A, 0x4E, 0x1E, 0x91, 0x3D,
0x56, 0x00, 0x90, 0x55, 0x74, 0x16, 0x90, 0x57, 0x00, 0x03, 0x92, 0x57, 0x6F, 0x05, 0x93, 0x4F,
0x00, 0x00, 0x93, 0x58, 0x76, 0x16, 0x91, 0x3A, 0x00, 0x01, 0x92, 0x58, 0x00, 0x07, 0x95, 0x38,
0x00, 0x0A, 0x95, 0x3A, 0x4E, 0x14, 0x90, 0x53, 0x7A, 0x0A, 0x94, 0x3D, 0x56, 0x00, 0x92, 0x55,
0x74, 0x0A, 0x91, 0x43, 0x56, 0x07, 0x90, 0x55, 0x00, 0x05, 0x92, 0x57, 0x00, 0x03, 0x93, 0x57,
0x6F, 0x1B, 0x94, 0x3A, 0x00, 0x01, 0x93, 0x58, 0x00, 0x01, 0x91, 0x3D, 0x00, 0x15, 0x90, 0x52,
0x7C, 0x0F, 0x92, 0x53, 0x7A, 0x0A, 0x90, 0x53, 0x00, 0x00, 0x95, 0x3D, 0x56, 0x00, 0x93, 0x55,
0x74, 0x0A, 0x94, 0x43, 0x56, 0x07, 0x92, 0x55, 0x00, 0x03, 0x91, 0x3D, 0x54, 0x02, 0x93, 0x57,
0x00, 0x1C, 0x90, 0x50, 0x77, 0x02, 0x95, 0x3A, 0x00, 0x02, 0x94, 0x3D, 0x00, 0x0A, 0x91, 0x43,
0x00, 0x06, 0x91, 0x3A, 0x55, 0x02, 0x90, 0x52, 0x00, 0x03, 0x92, 0x52, 0x7C, 0x08, 0x91, 0x3D,
0x00, 0x07, 0x93, 0x53, 0x7A, 0x0A, 0x92, 0x53, 0x00, 0x0A, 0x95, 0x43, 0x56, 0x07, 0x93, 0x55,
0x00, 0x03, 0x94, 0x3D, 0x54, 0x00, 0x90, 0x4F, 0x75, 0x15, 0x90, 0x50, 0x00, 0x09, 0x92, 0x50,
0x77, 0x04, 0x95, 0x3D, 0x00, 0x0A, 0x94, 0x43, 0x00, 0x06, 0x94, 0x3A, 0x55, 0x02, 0x92, 0x52,
0x00, 0x03, 0x93, 0x52, 0x7C, 0x08, 0x94, 0x3D, 0x00, 0x11, 0x93, 0x53, 0x00, 0x00, 0x91, 0x2C,
0x62, 0x00, 0x90, 0x52, 0x79, 0x14, 0x95, 0x3D, 0x54, 0x00, 0x92, 0x4F, 0x75, 0x01, 0x91, 0x33,
0x00, 0x03, 0x90, 0x4F, 0x00, 0x0F, 0x91, 0x3A, 0x00, 0x02, 0x92, 0x50, 0x00, 0x09, 0x93, 0x50,
0x77, 0x0E, 0x95, 0x43, 0x00, 0x06, 0x95, 0x3A, 0x55, 0x02, 0x93, 0x52, 0x00, 0x0B, 0x95, 0x3D,
0x00, 0x02, 0x90, 0x50, 0x74, 0x0F, 0x94, 0x2C, 0x62, 0x00, 0x92, 0x52, 0x79, 0x0A, 0x90, 0x52,
0x00, 0x0A, 0x91, 0x33, 0x59, 0x00, 0x93, 0x4F, 0x75, 0x01, 0x94, 0x33, 0x00, 0x03, 0x92, 0x4F,
0x00, 0x0F, 0x94, 0x3A, 0x00, 0x02, 0x93, 0x50, 0x00, 0x13, 0x90, 0x53, 0x7A, 0x16, 0x90, 0x50,
0x00, 0x03, 0x92, 0x50, 0x74, 0x0F, 0x95, 0x2C, 0x62, 0x00, 0x93, 0x52, 0x79, 0x0A, 0x92, 0x52,
0x00, 0x0A, 0x94, 0x33, 0x59, 0x01, 0x95, 0x33, 0x00, 0x03, 0x93, 0x4F, 0x00, 0x01, 0x91, 0x38,
0x5A, 0x00, 0x90, 0x4A, 0x6F, 0x0E, 0x95, 0x3A, 0x00, 0x05, 0x90, 0x53, 0x00, 0x10, 0x92, 0x53,
0x7A, 0x07, 0x91, 0x33, 0x00, 0x0F, 0x92, 0x50, 0x00, 0x03, 0x93, 0x50, 0x74, 0x0A, 0x91, 0x3B,
0x4E, 0x0A, 0x90, 0x4C, 0x75, 0x05, 0x93, 0x52, 0x00, 0x0A, 0x95, 0x33, 0x59, 0x03, 0x91, 0x38,
0x00, 0x02, 0x94, 0x38, 0x5A, 0x00, 0x92, 0x4A, 0x6F, 0x04, 0x90, 0x4A, 0x00, 0x0F, 0x92, 0x53,
0x00, 0x10, 0x93, 0x53, 0x7A, 0x07, 0x94, 0x33, 0x00, 0x0F, 0x93, 0x50, 0x00, 0x03, 0x90, 0x4B,
0x70, 0x0A, 0x94, 0x3B, 0x4E, 0x05, 0x91, 0x38, 0x4F, 0x05, 0x92, 0x4C, 0x75, 0x04, 0x90, 0x4C,
0x00, 0x0E, 0x94, 0x38, 0x00, 0x02, 0x95, 0x38, 0x5A, 0x00, 0x93, 0x4A, 0x6F, 0x04, 0x92, 0x4A,
0x00, 0x0D, 0x91, 0x3B, 0x00, 0x02, 0x93, 0x53, 0x00, 0x15, 0x90, 0x50, 0x73, 0x02, 0x95, 0x33,
0x00, 0x03, 0x91, 0x33, 0x53, 0x0F, 0x92, 0x4B, 0x70, 0x04, 0x90, 0x4B, 0x00, 0x06, 0x95, 0x3B,
0x4E, 0x03, 0x91, 0x38, 0x00, 0x02, 0x94, 0x38, 0x4F, 0x05, 0x93, 0x4C, 0x75, 0x04, 0x92, 0x4C,
0x00, 0x0E, 0x95, 0x38, 0x00, 0x06, 0x93, 0x4A, 0x00, 0x0D, 0x94, 0x3B, 0x00, 0x03, 0x90, 0x46,
0x6F, 0x14, 0x92, 0x50, 0x73, 0x04, 0x90, 0x50, 0x00, 0x01, 0x94, 0x33, 0x53, 0x0F, 0x91, 0x2C,
0x00, 0x00, 0x91, 0x2C, 0x5C, 0x00, 0x93, 0x4B, 0x70, 0x04, 0x92, 0x4B, 0x00, 0x09, 0x94, 0x38,
0x00, 0x02, 0x95, 0x38, 0x4F, 0x09, 0x93, 0x4C, 0x00, 0x1A, 0x90, 0x49, 0x72, 0x07, 0x95, 0x3B,
0x00, 0x03, 0x92, 0x46, 0x6F, 0x11, 0x90, 0x46, 0x00, 0x03, 0x93, 0x50, 0x73, 0x04, 0x92, 0x50,
0x00, 0x01, 0x95, 0x33, 0x53, 0x0F, 0x94, 0x2C, 0x00, 0x00, 0x94, 0x2C, 0x5C, 0x04, 0x93, 0x4B,
0x00, 0x09, 0x95, 0x38, 0x00, 0x0F, 0x91, 0x33, 0x00, 0x11, 0x91, 0x33, 0x58, 0x00, 0x90, 0x47,
0x72, 0x05, 0x92, 0x49, 0x72, 0x0A, 0x93, 0x46, 0x6F, 0x0D, 0x90, 0x49, 0x00, 0x04, 0x92, 0x46,
0x00, 0x07, 0x93, 0x50, 0x00, 0x10, 0x95, 0x2C, 0x00, 0x00, 0x95, 0x2C, 0x5C, 0x1C, 0x94, 0x33,
0x00, 0x0C, 0x90, 0x4B, 0x72, 0x05, 0x94, 0x33, 0x58, 0x00, 0x92, 0x47, 0x72, 0x05, 0x93, 0x49,
0x72, 0x12, 0x90, 0x47, 0x00, 0x02, 0x91, 0x38, 0x57, 0x03, 0x92, 0x49, 0x00, 0x04, 0x93, 0x46,
0x00, 0x2B, 0x91, 0x33, 0x00, 0x08, 0x95, 0x33, 0x00, 0x0C, 0x90, 0x43, 0x64, 0x00, 0x92, 0x4B,
0x72, 0x05, 0x95, 0x33, 0x58, 0x00, 0x93, 0x47, 0x72, 0x17, 0x92, 0x47, 0x00, 0x02, 0x90, 0x4B,
0x00, 0x00, 0x94, 0x38, 0x57, 0x03, 0x93, 0x49, 0x00, 0x20, 0x91, 0x3B, 0x4F, 0x0F, 0x94, 0x33,
0x00, 0x0A, 0x90, 0x46, 0x70, 0x0A, 0x92, 0x43, 0x64, 0x00, 0x93, 0x4B, 0x72, 0x11, 0x90, 0x43,
0x00, 0x02, 0x91, 0x38, 0x00, 0x09, 0x93, 0x47, 0x00, 0x02, 0x92, 0x4B, 0x00, 0x00, 0x95, 0x38,
0x57, 0x23, 0x94, 0x3B, 0x4F, 0x0F, 0x95, 0x33, 0x00, 0x0A, 0x90, 0x44, 0x6A, 0x00, 0x92, 0x46,
0x70, 0x0A, 0x93, 0x43, 0x64, 0x05, 0x91, 0x38, 0x50, 0x0C, 0x92, 0x43, 0x00, 0x02, 0x94, 0x38,
0x00, 0x01, 0x90, 0x46, 0x00, 0x0A, 0x93, 0x4B, 0x00, 0x1F, 0x91, 0x3B, 0x00, 0x04, 0x95, 0x3B,
0x4F, 0x14, 0x90, 0x43, 0x63, 0x05, 0x92, 0x44, 0x6A, 0x00, 0x93, 0x46, 0x70, 0x0F, 0x94, 0x38,
0x50, 0x08, 0x90, 0x44, 0x00, 0x04, 0x93, 0x43, 0x00, 0x02, 0x95, 0x38, 0x00, 0x01, 0x92, 0x46,
0x00, 0x05, 0x91, 0x33, 0x53, 0x24, 0x94, 0x3B, 0x00, 0x0C, 0x91, 0x38, 0x00, 0x0C, 0x92, 0x43,
0x63, 0x05, 0x90, 0x44, 0x70, 0x00, 0x93, 0x44, 0x6A, 0x0F, 0x95, 0x38, 0x50, 0x08, 0x92, 0x44,
0x00, 0x07, 0x93, 0x46, 0x00, 0x01, 0x90, 0x43, 0x00, 0x04, 0x94, 0x33, 0x53, 0x24, 0x95, 0x3B,
0x00, 0x0C, 0x94, 0x38, 0x00, 0x0C, 0x93, 0x43, 0x63, 0x05, 0x92, 0x44, 0x70, 0x0F, 0x91, 0x2C,
0x00, 0x00, 0x91, 0x2D, 0x57, 0x08, 0x93, 0x44, 0x00, 0x08, 0x92, 0x43, 0x00, 0x04, 0x95, 0x33,
0x53, 0x30, 0x95, 0x38, 0x00, 0x11, 0x93, 0x44, 0x70, 0x0F, 0x94, 0x2C, 0x00, 0x00, 0x94, 0x2D,
0x57, 0x06, 0x90, 0x44, 0x00, 0x04, 0x90, 0x44, 0x6F, 0x06, 0x93, 0x43, 0x00, 0x54, 0x95, 0x2C,
0x00, 0x00, 0x95, 0x2D, 0x57, 0x06, 0x92, 0x44, 0x00, 0x04, 0x92, 0x44, 0x6F, 0x37, 0x90, 0x50,
0x67, 0x29, 0x93, 0x44, 0x00, 0x04, 0x93, 0x44, 0x6F, 0x02, 0x91, 0x33, 0x00, 0x17, 0x91, 0x31,
0x4C, 0x1E, 0x92, 0x50, 0x67, 0x2D, 0x90, 0x48, 0x67, 0x02, 0x94, 0x33, 0x00, 0x17, 0x94, 0x31,
0x4C, 0x1E, 0x90, 0x44, 0x00, 0x00, 0x93, 0x50, 0x67, 0x14, 0x91, 0x36, 0x4C, 0x0F, 0x90, 0x49,
0x70, 0x0A, 0x92, 0x48, 0x67, 0x02, 0x95, 0x33, 0x00, 0x17, 0x95, 0x31, 0x4C, 0x0A, 0x91, 0x31,
0x00, 0x14, 0x92, 0x44, 0x00, 0x14, 0x94, 0x36, 0x4C, 0x0F, 0x92, 0x49, 0x70, 0x05, 0x90, 0x42,
0x6E, 0x05, 0x93, 0x48, 0x67, 0x14, 0x90, 0x48, 0x00, 0x00, 0x91, 0x39, 0x43, 0x0F, 0x94, 0x31,
0x00, 0x14, 0x93, 0x44, 0x00, 0x00, 0x90, 0x49, 0x00, 0x14, 0x95, 0x36, 0x4C, 0x03, 0x91, 0x36,
0x00, 0x0C, 0x93, 0x49, 0x70, 0x03, 0x90, 0x50, 0x00, 0x02, 0x92, 0x42, 0x6E, 0x05, 0x90, 0x4E,
0x74, 0x14, 0x92, 0x48, 0x00, 0x00, 0x94, 0x39, 0x43, 0x0F, 0x95, 0x31, 0x00, 0x14, 0x92, 0x49,
0x00, 0x05, 0x91, 0x36, 0x56, 0x12, 0x94, 0x36, 0x00, 0x0C, 0x90, 0x48, 0x6A, 0x03, 0x92, 0x50,
0x00, 0x02, 0x93, 0x42, 0x6E, 0x05, 0x92, 0x4E, 0x74, 0x10, 0x91, 0x39, 0x00, 0x04, 0x93, 0x48,
0x00, 0x00, 0x95, 0x39, 0x43, 0x0F, 0x91, 0x31, 0x59, 0x0A, 0x90, 0x49, 0x6E, 0x0A, 0x93, 0x49,
0x00, 0x05, 0x94, 0x36, 0x56, 0x05, 0x91, 0x36, 0x00, 0x0D, 0x95, 0x36, 0x00, 0x0C, 0x92, 0x48,
0x6A, 0x03, 0x93, 0x50, 0x00, 0x07, 0x93, 0x4E, 0x74, 0x10, 0x94, 0x39, 0x00, 0x13, 0x94, 0x31,
0x59, 0x0A, 0x92, 0x49, 0x6E, 0x05, 0x90, 0x42, 0x00, 0x00, 0x90, 0x48, 0x00, 0x00, 0x90, 0x41,
0x71, 0x0A, 0x91, 0x2D, 0x00, 0x00, 0x95, 0x36, 0x56, 0x00, 0x91, 0x2D, 0x60, 0x05, 0x94, 0x36,
0x00, 0x19, 0x93, 0x48, 0x6A, 0x0A, 0x90, 0x49, 0x00, 0x10, 0x95, 0x39, 0x00, 0x09, 0x90, 0x4E,
0x00, 0x0A, 0x95, 0x31, 0x59, 0x05, 0x90, 0x4D, 0x74, 0x05, 0x93, 0x49, 0x6E, 0x05, 0x92, 0x42,
0x00, 0x00, 0x92, 0x48, 0x00, 0x00, 0x92, 0x41, 0x71, 0x0A, 0x94, 0x2D, 0x00, 0x00, 0x94, 0x2D,
0x60, 0x05, 0x95, 0x36, 0x00, 0x10, 0x91, 0x31, 0x00, 0x13, 0x92, 0x49, 0x00, 0x00, 0x91, 0x31,
0x5F, 0x19, 0x92, 0x4E, 0x00, 0x0A, 0x90, 0x48, 0x71, 0x05, 0x92, 0x4D, 0x74, 0x0A, 0x93, 0x42,
0x00, 0x00, 0x93, 0x48, 0x00, 0x00, 0x93, 0x41, 0x71, 0x0A, 0x95, 0x2D, 0x00, 0x00, 0x95, 0x2D,
0x60, 0x15, 0x94, 0x31, 0x00, 0x0E, 0x91, 0x36, 0x54, 0x05, 0x93, 0x49, 0x00, 0x00, 0x94, 0x31,
0x5F, 0x05, 0x90, 0x49, 0x6B, 0x14, 0x93, 0x4E, 0x00, 0x08, 0x91, 0x31, 0x00, 0x02, 0x92, 0x48,
0x71, 0x05, 0x93, 0x4D, 0x74, 0x1E, 0x90, 0x41, 0x00, 0x00, 0x91, 0x39, 0x57, 0x00, 0x90, 0x42,
0x75, 0x0A, 0x90, 0x48, 0x00, 0x01, 0x95, 0x31, 0x00, 0x0E, 0x94, 0x36, 0x54, 0x05, 0x91, 0x36,
0x00, 0x00, 0x95, 0x31, 0x5F, 0x05, 0x92, 0x49, 0x6B, 0x14, 0x90, 0x49, 0x00, 0x08, 0x94, 0x31,
0x00, 0x02, 0x93, 0x48, 0x71, 0x14, 0x90, 0x4E, 0x79, 0x0F, 0x90, 0x4D, 0x00, 0x00, 0x92, 0x41,
0x00, 0x00, 0x94, 0x39, 0x57, 0x00, 0x92, 0x42, 0x75, 0x0A, 0x92, 0x48, 0x00, 0x05, 0x91, 0x36,
0x5C, 0x0A, 0x95, 0x36, 0x54, 0x05, 0x94, 0x36, 0x00, 0x05, 0x93, 0x49, 0x6B, 0x14, 0x92, 0x49,
0x00, 0x06, 0x91, 0x39, 0x00, 0x02, 0x95, 0x31, 0x00, 0x02, 0x90, 0x48, 0x6F, 0x14, 0x92, 0x4E,
0x79, 0x05, 0x91, 0x31, 0x56, 0x0A, 0x92, 0x4D, 0x00, 0x00, 0x93, 0x41, 0x00, 0x00, 0x95, 0x39,
0x57, 0x00, 0x93, 0x42, 0x75, 0x05, 0x90, 0x49, 0x74, 0x05, 0x93, 0x48, 0x00, 0x05, 0x94, 0x36,
0x5C, 0x05, 0x91, 0x36, 0x00, 0x0A, 0x95, 0x36, 0x00, 0x00, 0x90, 0x48, 0x00, 0x19, 0x93, 0x49,
0x00, 0x06, 0x94, 0x39, 0x00, 0x04, 0x92, 0x48, 0x6F, 0x0F, 0x90, 0x49, 0x00, 0x05, 0x93, 0x4E,
0x79, 0x05, 0x94, 0x31, 0x56, 0x0A, 0x93, 0x4D, 0x00, 0x05, 0x92, 0x49, 0x74, 0x05, 0x91, 0x2D,
0x00, 0x00, 0x91, 0x2F, 0x68, 0x05, 0x95, 0x36, 0x5C, 0x05, 0x94, 0x36, 0x00, 0x0A, 0x92, 0x48,
0x00, 0x05, 0x90, 0x42, 0x00, 0x00, 0x90, 0x3D, 0x6C, 0x1A, 0x95, 0x39, 0x00, 0x04, 0x93, 0x48,
0x6F, 0x0F, 0x92, 0x49, 0x00, 0x0A, 0x95, 0x31, 0x56, 0x05, 0x90, 0x4E, 0x00, 0x0A, 0x93, 0x49,
0x74, 0x05, 0x94, 0x2D, 0x00, 0x00, 0x94, 0x2F, 0x68, 0x00, 0x90, 0x49, 0x79, 0x0A, 0x95, 0x36,
0x00, 0x07, 0x91, 0x31, 0x00, 0x03, 0x93, 0x48, 0x00, 0x05, 0x92, 0x42, 0x00, 0x00, 0x92, 0x3D,
0x6C, 0x0A, 0x91, 0x36, 0x5F, 0x23, 0x93, 0x49, 0x00, 0x0A, 0x90, 0x42, 0x67, 0x05, 0x92, 0x4E,
0x00, 0x0F, 0x95, 0x2D, 0x00, 0x00, 0x95, 0x2F, 0x68, 0x00, 0x92, 0x49, 0x79, 0x11, 0x94, 0x31,
0x00, 0x08, 0x93, 0x42, 0x00, 0x00, 0x93, 0x3D, 0x6C, 0x05, 0x91, 0x39, 0x59, 0x05, 0x94, 0x36,
0x5F, 0x1E, 0x90, 0x45, 0x62, 0x03, 0x91, 0x36, 0x00, 0x0C, 0x92, 0x42, 0x67, 0x05, 0x93, 0x4E,
0x00, 0x05, 0x90, 0x42, 0x00, 0x0A, 0x93, 0x49, 0x79, 0x11, 0x95, 0x31, 0x00, 0x03, 0x90, 0x3D,
0x00, 0x00, 0x91, 0x3B, 0x59, 0x00, 0x90, 0x3F, 0x6F, 0x0A, 0x94, 0x39, 0x59, 0x05, 0x95, 0x36,
0x5F, 0x15, 0x91, 0x39, 0x00, 0x09, 0x92, 0x45, 0x62, 0x03, 0x94, 0x36, 0x00, 0x07, 0x90, 0x45,
0x00, 0x05, 0x93, 0x42, 0x67, 0x0A, 0x92, 0x42, 0x00, 0x0E, 0x90, 0x49, 0x00, 0x01, 0x90, 0x4B,
0x75, 0x0F, 0x92, 0x3D, 0x00, 0x00, 0x94, 0x3B, 0x59, 0x00, 0x92, 0x3F, 0x6F, 0x05, 0x91, 0x39,
0x57, 0x05, 0x95, 0x39, 0x59, 0x1A, 0x94, 0x39, 0x00, 0x09, 0x93, 0x45, 0x62, 0x02, 0x91, 0x3B,
0x00, 0x01, 0x95, 0x36, 0x00, 0x07, 0x92, 0x45, 0x00, 0x0F, 0x93, 0x42, 0x00, 0x05, 0x91, 0x36,
0x64, 0x09, 0x92, 0x49, 0x00, 0x01, 0x90, 0x42, 0x6A, 0x00, 0x92, 0x4B, 0x75, 0x0F, 0x93, 0x3D,
0x00, 0x00, 0x95, 0x3B, 0x59, 0x00, 0x93, 0x3F, 0x6F, 0x03, 0x91, 0x39, 0x00, 0x02, 0x94, 0x39,
0x57, 0x0A, 0x90, 0x45, 0x66, 0x15, 0x95, 0x39, 0x00, 0x0B, 0x94, 0x3B, 0x00, 0x08, 0x93, 0x45,
0x00, 0x14, 0x90, 0x42, 0x00, 0x00, 0x94, 0x36, 0x64, 0x09, 0x93, 0x49, 0x00, 0x01, 0x92, 0x42,
0x6A, 0x00, 0x93, 0x4B, 0x75, 0x0F, 0x90, 0x45, 0x00, 0x03, 0x94, 0x39, 0x00, 0x02, 0x95, 0x39,
0x57, 0x0A, 0x92, 0x45, 0x66, 0x05, 0x90, 0x3F, 0x00, 0x00, 0x90, 0x40, 0x76, 0x0F, 0x91, 0x2F,
0x00, 0x00, 0x91, 0x28, 0x70, 0x0C, 0x95, 0x3B, 0x00, 0x1C, 0x92, 0x42, 0x00, 0x00, 0x95, 0x36,
0x64, 0x0A, 0x93, 0x42, 0x6A, 0x0F, 0x92, 0x45, 0x00, 0x03, 0x95, 0x39, 0x00, 0x09, 0x90, 0x4B,
0x00, 0x03, 0x93, 0x45, 0x66, 0x05, 0x92, 0x3F, 0x00, 0x00, 0x92, 0x40, 0x76, 0x05, 0x90, 0x4C,
0x76, 0x0A, 0x94, 0x2F, 0x00, 0x00, 0x94, 0x28, 0x70, 0x19, 0x91, 0x36, 0x00, 0x0A, 0x91, 0x2F,
0x5E, 0x05, 0x93, 0x42, 0x00, 0x19, 0x93, 0x45, 0x00, 0x0C, 0x92, 0x4B, 0x00, 0x08, 0x93, 0x3F,
0x00, 0x00, 0x93, 0x40, 0x76, 0x05, 0x90, 0x40, 0x00, 0x00, 0x92, 0x4C, 0x76, 0x00, 0x90, 0x44,
0x6D, 0x0A, 0x95, 0x2F, 0x00, 0x00, 0x95, 0x28, 0x70, 0x19, 0x94, 0x36, 0x00, 0x0A, 0x94, 0x2F,
0x5E, 0x14, 0x91, 0x34, 0x59, 0x05, 0x90, 0x47, 0x74, 0x11, 0x93, 0x4B, 0x00, 0x0D, 0x92, 0x40,
0x00, 0x00, 0x93, 0x4C, 0x76, 0x00, 0x92, 0x44, 0x6D, 0x0D, 0x91, 0x2F, 0x00, 0x02, 0x90, 0x47,
0x00, 0x14, 0x95, 0x36, 0x00, 0x0A, 0x95, 0x2F, 0x5E, 0x14, 0x94, 0x34, 0x59, 0x05, 0x92, 0x47,
0x74, 0x0F, 0x91, 0x38, 0x5F, 0x05, 0x90, 0x44, 0x00, 0x00, 0x90, 0x44, 0x7C, 0x0A, 0x93, 0x40,
0x00, 0x00, 0x93, 0x44, 0x6D, 0x0D, 0x94, 0x2F, 0x00, 0x02, 0x92, 0x47, 0x00, 0x12, 0x91, 0x34,
0x00, 0x20, 0x95, 0x34, 0x59, 0x00, 0x90, 0x50, 0x72, 0x05, 0x93, 0x47, 0x74, 0x07, 0x90, 0x4C,
0x00, 0x08, 0x94, 0x38, 0x5F, 0x05, 0x92, 0x44, 0x00, 0x00, 0x92, 0x44, 0x7C, 0x0F, 0x91, 0x34,
0x52, 0x08, 0x95, 0x2F, 0x00, 0x02, 0x93, 0x47, 0x00, 0x12, 0x94, 0x34, 0x00, 0x14, 0x91, 0x38,
0x00, 0x0C, 0x92, 0x50, 0x72, 0x0C, 0x92, 0x4C, 0x00, 0x08, 0x95, 0x38, 0x5F, 0x05, 0x90, 0x44,
0x00, 0x00, 0x93, 0x44, 0x00, 0x00, 0x90, 0x47, 0x67, 0x00, 0x93, 0x44, 0x7C, 0x0F, 0x94, 0x34,
0x52, 0x00, 0x91, 0x2F, 0x58, 0x1C, 0x95, 0x34, 0x00, 0x0C, 0x91, 0x34, 0x00, 0x05, 0x90, 0x4C,
0x6B, 0x03, 0x94, 0x38, 0x00, 0x0C, 0x93, 0x50, 0x72, 0x0C, 0x93, 0x4C, 0x00, 0x0D, 0x92, 0x44,
0x00, 0x00, 0x92, 0x47, 0x67, 0x0F, 0x95, 0x34, 0x52, 0x00, 0x94, 0x2F, 0x58, 0x28, 0x94, 0x34,
0x00, 0x05, 0x92, 0x4C, 0x6B, 0x03, 0x95, 0x38, 0x00, 0x02, 0x91, 0x28, 0x00, 0x00, 0x91, 0x2D,
0x5F, 0x14, 0x90, 0x50, 0x00, 0x0F, 0x90, 0x47, 0x00, 0x00, 0x93, 0x44, 0x00, 0x00, 0x90, 0x44,
0x75, 0x00, 0x93, 0x47, 0x67, 0x0F, 0x95, 0x2F, 0x58, 0x28, 0x95, 0x34, 0x00, 0x05, 0x93, 0x4C,
0x6B, 0x05, 0x94, 0x28, 0x00, 0x00, 0x94, 0x2D, 0x5F, 0x14, 0x92, 0x50, 0x00, 0x0F, 0x92, 0x47,
0x00, 0x00, 0x92, 0x44, 0x75, 0x0A, 0x90, 0x50, 0x72, 0x32, 0x91, 0x2F, 0x00, 0x05, 0x95, 0x28,
0x00, 0x00, 0x95, 0x2D, 0x5F, 0x0F, 0x91, 0x31, 0x54, 0x05, 0x93, 0x50, 0x00, 0x0A, 0x90, 0x4C,
0x00, 0x05, 0x93, 0x47, 0x00, 0x00, 0x93, 0x44, 0x75, 0x0A, 0x92, 0x50, 0x72, 0x14, 0x90, 0x48,
0x68, 0x1E, 0x94, 0x2F, 0x00, 0x14, 0x94, 0x31, 0x54, 0x00, 0x91, 0x36, 0x4F, 0x0F, 0x92, 0x4C,
0x00, 0x0F, 0x93, 0x50, 0x72, 0x05, 0x90, 0x49, 0x71, 0x05, 0x91, 0x31, 0x00, 0x0A, 0x92, 0x48,
0x68, 0x1E, 0x95, 0x2F, 0x00, 0x14, 0x95, 0x31, 0x54, 0x00, 0x94, 0x36, 0x4F, 0x0A, 0x90, 0x44,
0x00, 0x00, 0x91, 0x39, 0x4A, 0x00, 0x90, 0x42, 0x70, 0x05, 0x93, 0x4C, 0x00, 0x00, 0x90, 0x50,
0x00, 0x14, 0x90, 0x48, 0x00, 0x00, 0x92, 0x49, 0x71, 0x05, 0x94, 0x31, 0x00, 0x0A, 0x93, 0x48,
0x68, 0x04, 0x91, 0x36, 0x00, 0x0B, 0x90, 0x49, 0x00, 0x1E, 0x90, 0x4E, 0x75, 0x05, 0x95, 0x36,
0x4F, 0x0A, 0x92, 0x44, 0x00, 0x00, 0x94, 0x39, 0x4A, 0x00, 0x92, 0x42, 0x70, 0x05, 0x92, 0x50,
0x00, 0x14, 0x92, 0x48, 0x00, 0x00, 0x93, 0x49, 0x71, 0x05, 0x95, 0x31, 0x00, 0x00, 0x91, 0x36,
0x5A, 0x0E, 0x94, 0x36, 0x00, 0x0B, 0x92, 0x49, 0x00, 0x0F, 0x90, 0x48, 0x6D, 0x0C, 0x91, 0x39,
0x00, 0x03, 0x92, 0x4E, 0x75, 0x0F, 0x93, 0x44, 0x00, 0x00, 0x95, 0x39, 0x4A, 0x00, 0x93, 0x42,
0x70, 0x05, 0x93, 0x50, 0x00, 0x00, 0x91, 0x31, 0x5D, 0x0A, 0x90, 0x49, 0x74, 0x0A, 0x93, 0x48,
0x00, 0x05, 0x94, 0x36, 0x5A, 0x05, 0x91, 0x36, 0x00, 0x09, 0x95, 0x36, 0x00, 0x0B, 0x93, 0x49,
0x00, 0x0F, 0x92, 0x48, 0x6D, 0x0C, 0x94, 0x39, 0x00, 0x03, 0x93, 0x4E, 0x75, 0x05, 0x90, 0x48,
0x00, 0x0F, 0x94, 0x31, 0x5D, 0x05, 0x91, 0x2D, 0x00, 0x00, 0x90, 0x42, 0x00, 0x00, 0x91, 0x2D,
0x64, 0x00, 0x90, 0x41, 0x74, 0x05, 0x92, 0x49, 0x74, 0x0F, 0x95, 0x36, 0x5A, 0x05, 0x94, 0x36,
0x00, 0x14, 0x90, 0x49, 0x00, 0x0F, 0x90, 0x4E, 0x00, 0x00, 0x93, 0x48, 0x6D, 0x0C, 0x95, 0x39,
0x00, 0x08, 0x92, 0x48, 0x00, 0x00, 0x90, 0x4D, 0x76, 0x0F, 0x95, 0x31, 0x5D, 0x05, 0x94, 0x2D,
0x00, 0x00, 0x92, 0x42, 0x00, 0x00, 0x94, 0x2D, 0x64, 0x00, 0x92, 0x41, 0x74, 0x02, 0x91, 0x31,
0x00, 0x03, 0x93, 0x49, 0x74, 0x0F, 0x91, 0x31, 0x63, 0x05, 0x95, 0x36, 0x00, 0x14, 0x92, 0x49,
0x00, 0x05, 0x90, 0x48, 0x6B, 0x0A, 0x92, 0x4E, 0x00, 0x14, 0x93, 0x48, 0x00, 0x00, 0x92, 0x4D,
0x76, 0x14, 0x95, 0x2D, 0x00, 0x00, 0x93, 0x42, 0x00, 0x00, 0x95, 0x2D, 0x64, 0x00, 0x93, 0x41,
0x74, 0x02, 0x94, 0x31, 0x00, 0x12, 0x94, 0x31, 0x63, 0x05, 0x91, 0x36, 0x5A, 0x05, 0x90, 0x49,
0x74, 0x0F, 0x93, 0x49, 0x00, 0x05, 0x92, 0x48, 0x6B, 0x0A, 0x93, 0x4E, 0x00, 0x07, 0x91, 0x31,
0x00, 0x0D, 0x93, 0x4D, 0x76, 0x14, 0x90, 0x41, 0x00, 0x00, 0x91, 0x39, 0x53, 0x00, 0x90, 0x42,
0x76, 0x02, 0x95, 0x31, 0x00, 0x0D, 0x90, 0x48, 0x00, 0x05, 0x95, 0x31, 0x63, 0x05, 0x94, 0x36,
0x5A, 0x05, 0x91, 0x36, 0x00, 0x00, 0x92, 0x49, 0x74, 0x14, 0x90, 0x49, 0x00, 0x00, 0x93, 0x48,
0x6B, 0x11, 0x94, 0x31, 0x00, 0x0D, 0x90, 0x4D, 0x00, 0x00, 0x90, 0x4E, 0x7C, 0x14, 0x92, 0x41,
0x00, 0x00, 0x94, 0x39, 0x53, 0x00, 0x92, 0x42, 0x76, 0x0F, 0x92, 0x48, 0x00, 0x00, 0x91, 0x36,
0x5D, 0x0A, 0x95, 0x36, 0x5A, 0x05, 0x94, 0x36, 0x00, 0x00, 0x93, 0x49, 0x74, 0x14, 0x92, 0x49,
0x00, 0x0A, 0x90, 0x48, 0x6D, 0x01, 0x91, 0x39, 0x00, 0x06, 0x95, 0x31, 0x00, 0x0D, 0x92, 0x4D,
0x00, 0x00, 0x92, 0x4E, 0x7C, 0x00, 0x91, 0x31, 0x59, 0x14, 0x93, 0x41, 0x00, 0x00, 0x95, 0x39,
0x53, 0x00, 0x93, 0x42, 0x76, 0x06, 0x91, 0x36, 0x00, 0x04, 0x90, 0x49, 0x75, 0x05, 0x93, 0x48,
0x00, 0x00, 0x94, 0x36, 0x5D, 0x0F, 0x95, 0x36, 0x00, 0x14, 0x93, 0x49, 0x00, 0x0A, 0x92, 0x48,
0x6D, 0x01, 0x94, 0x39, 0x00, 0x13, 0x93, 0x4D, 0x00, 0x00, 0x93, 0x4E, 0x7C, 0x00, 0x94, 0x31,
0x59, 0x14, 0x91, 0x2D, 0x00, 0x00, 0x90, 0x42, 0x00, 0x00, 0x90, 0x48, 0x00, 0x00, 0x91, 0x2F,
0x6B, 0x00, 0x90, 0x41, 0x77, 0x06, 0x94, 0x36, 0x00, 0x04, 0x92, 0x49, 0x75, 0x05, 0x95, 0x36,
0x5D, 0x23, 0x90, 0x49, 0x00, 0x0A, 0x93, 0x48, 0x6D, 0x01, 0x95, 0x39, 0x00, 0x13, 0x90, 0x4E,
0x00, 0x00, 0x95, 0x31, 0x59, 0x14, 0x94, 0x2D, 0x00, 0x00, 0x92, 0x42, 0x00, 0x00, 0x92, 0x48,
0x00, 0x00, 0x94, 0x2F, 0x6B, 0x00, 0x92, 0x41, 0x77, 0x05, 0x90, 0x4D, 0x76, 0x01, 0x95, 0x36,
0x00, 0x04, 0x93, 0x49, 0x75, 0x13, 0x91, 0x31, 0x00, 0x06, 0x91, 0x36, 0x62, 0x0F, 0x92, 0x49,
0x00, 0x05, 0x90, 0x47, 0x73, 0x19, 0x92, 0x4E, 0x00, 0x14, 0x95, 0x2D, 0x00, 0x00, 0x93, 0x42,
0x00, 0x00, 0x93, 0x48, 0x00, 0x00, 0x95, 0x2F, 0x6B, 0x00, 0x93, 0x41, 0x77, 0x05, 0x92, 0x4D,
0x76, 0x18, 0x94, 0x31, 0x00, 0x01, 0x91, 0x39, 0x5C, 0x05, 0x94, 0x36, 0x62, 0x05, 0x90, 0x4B,
0x74, 0x0A, 0x93, 0x49, 0x00, 0x05, 0x92, 0x47, 0x73, 0x0D, 0x91, 0x36, 0x00, 0x0C, 0x93, 0x4E,
0x00, 0x00, 0x90, 0x47, 0x00, 0x19, 0x93, 0x4D, 0x76, 0x14, 0x90, 0x41, 0x00, 0x00, 0x91, 0x3B,
0x5B, 0x00, 0x90, 0x42, 0x7A, 0x04, 0x95, 0x31, 0x00, 0x01, 0x94, 0x39, 0x5C, 0x05, 0x95, 0x36,
0x62, 0x05, 0x92, 0x4B, 0x74, 0x0F, 0x93, 0x47, 0x73, 0x08, 0x91, 0x39, 0x00, 0x05, 0x94, 0x36,
0x00, 0x02, 0x90, 0x4B, 0x00, 0x0A, 0x92, 0x47, 0x00, 0x0F, 0x90, 0x4D, 0x00, 0x1E, 0x92, 0x41,
0x00, 0x00, 0x90, 0x4E, 0x7F, 0x00, 0x94, 0x3B, 0x5B, 0x00, 0x92, 0x42, 0x7A, 0x05, 0x95, 0x39,
0x5C, 0x0A, 0x91, 0x39, 0x5F, 0x00, 0x93, 0x4B, 0x74, 0x17, 0x94, 0x39, 0x00, 0x05, 0x95, 0x36,
0x00, 0x02, 0x92, 0x4B, 0x00, 0x0A, 0x93, 0x47, 0x00, 0x05, 0x90, 0x47, 0x69, 0x01, 0x91, 0x3B,
0x00, 0x09, 0x92, 0x4D, 0x00, 0x0F, 0x91, 0x36, 0x69, 0x0F, 0x93, 0x41, 0x00, 0x00, 0x92, 0x4E,
0x7F, 0x00, 0x95, 0x3B, 0x5B, 0x00, 0x93, 0x42, 0x7A, 0x0D, 0x91, 0x39, 0x00, 0x02, 0x94, 0x39,
0x5F, 0x0A, 0x90, 0x4B, 0x74, 0x0D, 0x95, 0x39, 0x00, 0x07, 0x93, 0x4B, 0x00, 0x0F, 0x92, 0x47,
0x69, 0x01, 0x94, 0x3B, 0x00, 0x09, 0x93, 0x4D, 0x00, 0x05, 0x90, 0x47, 0x00, 0x0A, 0x94, 0x36,
0x69, 0x0F, 0x93, 0x4E, 0x7F, 0x0D, 0x94, 0x39, 0x00, 0x02, 0x95, 0x39, 0x5F, 0x0A, 0x90, 0x4B,
0x00, 0x00, 0x92, 0x4B, 0x74, 0x05, 0x91, 0x2F, 0x00, 0x00, 0x91, 0x28, 0x75, 0x0F, 0x90, 0x42,
0x00, 0x00, 0x90, 0x45, 0x7B, 0x0F, 0x93, 0x47, 0x69, 0x01, 0x95, 0x3B, 0x00, 0x0E, 0x92, 0x47,
0x00, 0x0A, 0x95, 0x36, 0x69, 0x14, 0x90, 0x4E, 0x00, 0x08, 0x95, 0x39, 0x00, 0x0C, 0x92, 0x4B,
0x00, 0x00, 0x93, 0x4B, 0x74, 0x05, 0x94, 0x2F, 0x00, 0x00, 0x94, 0x28, 0x75, 0x0F, 0x92, 0x42,
0x00, 0x00, 0x92, 0x45, 0x7B, 0x05, 0x90, 0x51, 0x7B, 0x0B, 0x91, 0x36, 0x00, 0x04, 0x91, 0x2F,
0x69, 0x0A, 0x93, 0x47, 0x00, 0x1E, 0x92, 0x4E, 0x00, 0x14, 0x93, 0x4B, 0x00, 0x05, 0x95, 0x2F,
0x00, 0x00, 0x95, 0x28, 0x75, 0x0F, 0x93, 0x42, 0x00, 0x00, 0x93, 0x45, 0x7B, 0x05, 0x92, 0x51,
0x7B, 0x0A, 0x90, 0x45, 0x00, 0x01, 0x94, 0x36, 0x00, 0x04, 0x94, 0x2F, 0x69, 0x14, 0x90, 0x47,
0x74, 0x0F, 0x91, 0x34, 0x5D, 0x05, 0x93, 0x4E, 0x00, 0x2D, 0x93, 0x51, 0x7B, 0x04, 0x91, 0x2F,
0x00, 0x01, 0x90, 0x4C, 0x73, 0x05, 0x92, 0x45, 0x00, 0x01, 0x95, 0x36, 0x00, 0x04, 0x95, 0x2F,
0x69, 0x14, 0x92, 0x47, 0x74, 0x0F, 0x94, 0x34, 0x5D, 0x19, 0x91, 0x38, 0x57, 0x0E, 0x90, 0x51,
0x00, 0x0B, 0x90, 0x4C, 0x00, 0x04, 0x94, 0x2F, 0x00, 0x01, 0x92, 0x4C, 0x73, 0x05, 0x93, 0x45,
0x00, 0x05, 0x90, 0x47, 0x00, 0x00, 0x90, 0x44, 0x7B, 0x0A, 0x91, 0x34, 0x00, 0x0A, 0x93, 0x47,
0x74, 0x0F, 0x95, 0x34, 0x5D, 0x19, 0x94, 0x38, 0x57, 0x0E, 0x92, 0x51, 0x00, 0x06, 0x91, 0x34,
0x55, 0x00, 0x90, 0x50, 0x73, 0x05, 0x92, 0x4C, 0x00, 0x04, 0x95, 0x2F, 0x00, 0x01, 0x93, 0x4C,
0x73, 0x0A, 0x92, 0x47, 0x00, 0x00, 0x92, 0x44, 0x7B, 0x0A, 0x94, 0x34, 0x00, 0x12, 0x91, 0x38,
0x00, 0x20, 0x95, 0x38, 0x57, 0x0E, 0x93, 0x51, 0x00, 0x06, 0x94, 0x34, 0x55, 0x00, 0x92, 0x50,
0x73, 0x05, 0x93, 0x4C, 0x00, 0x05, 0x91, 0x2F, 0x55, 0x05, 0x90, 0x44, 0x00, 0x00, 0x90, 0x47,
0x70, 0x05, 0x93, 0x47, 0x00, 0x00, 0x93, 0x44, 0x7B, 0x0A, 0x95, 0x34, 0x00, 0x12, 0x94, 0x38,
0x00, 0x06, 0x91, 0x34, 0x00, 0x2E, 0x95, 0x34, 0x55, 0x00, 0x93, 0x50, 0x73, 0x0A, 0x94, 0x2F,
0x55, 0x05, 0x92, 0x44, 0x00, 0x00, 0x92, 0x47, 0x70, 0x05, 0x90, 0x4C, 0x6C, 0x1C, 0x95, 0x38,
0x00, 0x06, 0x94, 0x34, 0x00, 0x38, 0x91, 0x28, 0x00, 0x00, 0x91, 0x2D, 0x57, 0x00, 0x95, 0x2F,
0x55, 0x05, 0x93, 0x44, 0x00, 0x00, 0x93, 0x47, 0x70, 0x05, 0x92, 0x4C, 0x6C, 0x1D, 0x90, 0x50,
0x00, 0x05, 0x95, 0x34, 0x00, 0x26, 0x91, 0x2F, 0x00, 0x12, 0x94, 0x28, 0x00, 0x00, 0x90, 0x47,
0x00, 0x00, 0x94, 0x2D, 0x57, 0x00, 0x90, 0x44, 0x65, 0x0A, 0x93, 0x4C, 0x6C, 0x1D, 0x92, 0x50,
0x00, 0x2B, 0x94, 0x2F, 0x00, 0x12, 0x95, 0x28, 0x00, 0x00, 0x92, 0x47, 0x00, 0x00, 0x95, 0x2D,
0x57, 0x00, 0x92, 0x44, 0x65, 0x27, 0x93, 0x50, 0x00, 0x10, 0x90, 0x50, 0x70, 0x19, 0x91, 0x31,
0x47, 0x02, 0x95, 0x2F, 0x00, 0x12, 0x93, 0x47, 0x00, 0x00, 0x93, 0x44, 0x65, 0x37, 0x92, 0x50,
0x70, 0x19, 0x90, 0x4C, 0x00, 0x00, 0x94, 0x31, 0x47, 0x4B, 0x93, 0x50, 0x70, 0x05, 0x90, 0x48,
0x5E, 0x00, 0x91, 0x36, 0x49, 0x14, 0x92, 0x4C, 0x00, 0x00, 0x95, 0x31, 0x47, 0x50, 0x92, 0x48,
0x5E, 0x00, 0x94, 0x36, 0x49, 0x0A, 0x90, 0x49, 0x5D, 0x0A, 0x93, 0x4C, 0x00, 0x1E, 0x91, 0x39,
0x3E, 0x2A, 0x91, 0x31, 0x00, 0x03, 0x90, 0x44, 0x00, 0x00, 0x90, 0x42, 0x5B, 0x05, 0x93, 0x48,
0x5E, 0x00, 0x95, 0x36, 0x49, 0x0A, 0x91, 0x36, 0x00, 0x00, 0x92, 0x49, 0x5D, 0x05, 0x90, 0x48,
0x00, 0x23, 0x90, 0x49, 0x00, 0x00, 0x94, 0x39, 0x3E, 0x14, 0x91, 0x36, 0x4A, 0x00, 0x90, 0x4E,
0x6E, 0x12, 0x90, 0x50, 0x00, 0x04, 0x94, 0x31, 0x00, 0x03, 0x92, 0x44, 0x00, 0x00, 0x92, 0x42,
0x5B, 0x0F, 0x94, 0x36, 0x00, 0x00, 0x93, 0x49, 0x5D, 0x05, 0x92, 0x48, 0x00, 0x03, 0x91, 0x39,
0x00, 0x20, 0x92, 0x49, 0x00, 0x00, 0x95, 0x39, 0x3E, 0x14, 0x94, 0x36, 0x4A, 0x00, 0x92, 0x4E,
0x6E, 0x0A, 0x91, 0x31, 0x53, 0x00, 0x90, 0x48, 0x5D, 0x08, 0x92, 0x50, 0x00, 0x04, 0x95, 0x31,
0x00, 0x03, 0x93, 0x44, 0x00, 0x00, 0x93, 0x42, 0x5B, 0x0F, 0x95, 0x36, 0x00, 0x05, 0x93, 0x48,
0x00, 0x03, 0x94, 0x39, 0x00, 0x06, 0x91, 0x36, 0x00, 0x0B, 0x90, 0x49, 0x64, 0x0F, 0x93, 0x49,
0x00, 0x14, 0x95, 0x36, 0x4A, 0x00, 0x93, 0x4E, 0x6E, 0x0A, 0x94, 0x31, 0x53, 0x00, 0x92, 0x48,
0x5D, 0x08, 0x93, 0x50, 0x00, 0x02, 0x90, 0x48, 0x00, 0x1C, 0x95, 0x39, 0x00, 0x06, 0x94, 0x36,
0x00, 0x01, 0x91, 0x2D, 0x00, 0x00, 0x91, 0x2D, 0x51, 0x0A, 0x90, 0x42, 0x00, 0x00, 0x90, 0x41,
0x60, 0x00, 0x92, 0x49, 0x64, 0x19, 0x90, 0x49, 0x00, 0x14, 0x95, 0x31, 0x53, 0x00, 0x93, 0x48,
0x5D, 0x0A, 0x92, 0x48, 0x00, 0x0B, 0x90, 0x4E, 0x00, 0x04, 0x90, 0x4D, 0x6C, 0x13, 0x95, 0x36,
0x00, 0x01, 0x94, 0x2D, 0x00, 0x00, 0x94, 0x2D, 0x51, 0x0A, 0x92, 0x42, 0x00, 0x00, 0x92, 0x41,
0x60, 0x00, 0x93, 0x49, 0x64, 0x03, 0x91, 0x31, 0x00, 0x0C, 0x91, 0x31, 0x52, 0x0A, 0x92, 0x49,
0x00, 0x19, 0x90, 0x48, 0x61, 0x05, 0x93, 0x48, 0x00, 0x0B, 0x92, 0x4E, 0x00, 0x04, 0x92, 0x4D,
0x6C, 0x14, 0x95, 0x2D, 0x00, 0x00, 0x95, 0x2D, 0x51, 0x0A, 0x93, 0x42, 0x00, 0x00, 0x93, 0x41,
0x60, 0x03, 0x94, 0x31, 0x00, 0x0C, 0x94, 0x31, 0x52, 0x0A, 0x93, 0x49, 0x00, 0x00, 0x91, 0x36,
0x49, 0x00, 0x90, 0x49, 0x63, 0x19, 0x92, 0x48, 0x61, 0x10, 0x93, 0x4E, 0x00, 0x03, 0x91, 0x31,
0x00, 0x01, 0x93, 0x4D, 0x6C, 0x05, 0x90, 0x48, 0x00, 0x0A, 0x90, 0x41, 0x00, 0x00, 0x90, 0x42,
0x61, 0x0F, 0x91, 0x39, 0x49, 0x03, 0x95, 0x31, 0x00, 0x0C, 0x95, 0x31, 0x52, 0x0A, 0x94, 0x36,
0x49, 0x00, 0x92, 0x49, 0x63, 0x05, 0x91, 0x36, 0x00, 0x00, 0x90, 0x49, 0x00, 0x14, 0x93, 0x48,
0x61, 0x0A, 0x90, 0x4E, 0x73, 0x08, 0x90, 0x4D, 0x00, 0x01, 0x94, 0x31, 0x00, 0x06, 0x92, 0x48,
0x00, 0x0A, 0x92, 0x41, 0x00, 0x00, 0x92, 0x42, 0x61, 0x0F, 0x94, 0x39, 0x49, 0x0A, 0x91, 0x36,
0x51, 0x0F, 0x95, 0x36, 0x49, 0x00, 0x93, 0x49, 0x63, 0x05, 0x94, 0x36, 0x00, 0x00, 0x92, 0x49,
0x00, 0x14, 0x90, 0x48, 0x64, 0x04, 0x91, 0x39, 0x00, 0x06, 0x92, 0x4E, 0x73, 0x05, 0x91, 0x31,
0x50, 0x03, 0x92, 0x4D, 0x00, 0x01, 0x95, 0x31, 0x00, 0x06, 0x93, 0x48, 0x00, 0x05, 0x90, 0x49,
0x6A, 0x05, 0x93, 0x41, 0x00, 0x00, 0x93, 0x42, 0x61, 0x0A, 0x90, 0x48, 0x00, 0x05, 0x95, 0x39,
0x49, 0x0A, 0x94, 0x36, 0x51, 0x14, 0x95, 0x36, 0x00, 0x00, 0x93, 0x49, 0x00, 0x14, 0x92, 0x48,
0x64, 0x04, 0x94, 0x39, 0x00, 0x06, 0x93, 0x4E, 0x73, 0x05, 0x94, 0x31, 0x50, 0x03, 0x93, 0x4D,
0x00, 0x09, 0x90, 0x4E, 0x00, 0x03, 0x92, 0x49, 0x6A, 0x05, 0x91, 0x2D, 0x00, 0x00, 0x91, 0x2F,
0x5B, 0x0A, 0x92, 0x48, 0x00, 0x0F, 0x95, 0x36, 0x51, 0x0A, 0x91, 0x36, 0x00, 0x05, 0x90, 0x49,
0x00, 0x05, 0x90, 0x42, 0x00, 0x00, 0x90, 0x3D, 0x57, 0x14, 0x93, 0x48, 0x64, 0x04, 0x95, 0x39,
0x00, 0x0B, 0x95, 0x31, 0x50, 0x0A, 0x90, 0x49, 0x74, 0x02, 0x92, 0x4E, 0x00, 0x03, 0x93, 0x49,
0x6A, 0x05, 0x94, 0x2D, 0x00, 0x00, 0x94, 0x2F, 0x5B, 0x0A, 0x93, 0x48, 0x00, 0x0D, 0x91, 0x31,
0x00, 0x0C, 0x94, 0x36, 0x00, 0x05, 0x92, 0x49, 0x00, 0x00, 0x91, 0x36, 0x56, 0x05, 0x92, 0x42,
0x00, 0x00, 0x92, 0x3D, 0x57, 0x1E, 0x90, 0x42, 0x5D, 0x0F, 0x92, 0x49, 0x74, 0x02, 0x93, 0x4E,
0x00, 0x08, 0x95, 0x2D, 0x00, 0x00, 0x95, 0x2F, 0x5B, 0x17, 0x94, 0x31, 0x00, 0x02, 0x90, 0x45,
0x5A, 0x05, 0x91, 0x39, 0x4E, 0x05, 0x95, 0x36, 0x00, 0x05, 0x93, 0x49, 0x00, 0x00, 0x94, 0x36,
0x56, 0x05, 0x93, 0x42, 0x00, 0x00, 0x93, 0x3D, 0x57, 0x0F, 0x90, 0x42, 0x00, 0x06, 0x91, 0x36,
0x00, 0x09, 0x92, 0x42, 0x5D, 0x0F, 0x93, 0x49, 0x74, 0x0F, 0x90, 0x3D, 0x00, 0x00, 0x90, 0x3F,
0x5B, 0x0F, 0x91, 0x3B, 0x4E, 0x03, 0x95, 0x31, 0x00, 0x02, 0x92, 0x45, 0x5A, 0x05, 0x94, 0x39,
0x4E, 0x0A, 0x95, 0x36, 0x56, 0x0D, 0x90, 0x49, 0x00, 0x03, 0x91, 0x39, 0x00, 0x04, 0x92, 0x42,
0x00, 0x06, 0x94, 0x36, 0x00, 0x09, 0x93, 0x42, 0x5D, 0x0A, 0x90, 0x4B, 0x72, 0x05, 0x90, 0x45,
0x00, 0x0F, 0x92, 0x3D, 0x00, 0x00, 0x92, 0x3F, 0x5B, 0x0F, 0x91, 0x39, 0x4E, 0x00, 0x94, 0x3B,
0x4E, 0x05, 0x93, 0x45, 0x5A, 0x05, 0x95, 0x39, 0x4E, 0x14, 0x90, 0x42, 0x5A, 0x03, 0x92, 0x49,
0x00, 0x03, 0x94, 0x39, 0x00, 0x04, 0x91, 0x3B, 0x00, 0x00, 0x93, 0x42, 0x00, 0x06, 0x95, 0x36,
0x00, 0x09, 0x91, 0x36, 0x5D, 0x0A, 0x92, 0x4B, 0x72, 0x05, 0x92, 0x45, 0x00, 0x0F, 0x93, 0x3D,
0x00, 0x00, 0x93, 0x3F, 0x5B, 0x05, 0x90, 0x45, 0x61, 0x0A, 0x94, 0x39, 0x4E, 0x00, 0x95, 0x3B,
0x4E, 0x1E, 0x92, 0x42, 0x5A, 0x03, 0x93, 0x49, 0x00, 0x03, 0x95, 0x39, 0x00, 0x04, 0x94, 0x3B,
0x00, 0x0F, 0x94, 0x36, 0x5D, 0x0A, 0x93, 0x4B, 0x72, 0x05, 0x93, 0x45, 0x00, 0x00, 0x90, 0x42,
0x00, 0x0A, 0x90, 0x3F, 0x00, 0x00, 0x90, 0x40, 0x63, 0x0A, 0x92, 0x45, 0x61, 0x08, 0x90, 0x4B,
0x00, 0x02, 0x95, 0x39, 0x4E, 0x0A, 0x91, 0x2F, 0x00, 0x00, 0x90, 0x45, 0x00, 0x00, 0x91, 0x28,
0x67, 0x14, 0x93, 0x42, 0x5A, 0x0A, 0x95, 0x3B, 0x00, 0x01, 0x91, 0x36, 0x00, 0x0B, 0x91, 0x39,
0x00, 0x03, 0x90, 0x4C, 0x71, 0x00, 0x95, 0x36, 0x5D, 0x0F, 0x92, 0x42, 0x00, 0x0A, 0x92, 0x3F,
0x00, 0x00, 0x92, 0x40, 0x63, 0x0A, 0x93, 0x45, 0x61, 0x08, 0x92, 0x4B, 0x00, 0x0C, 0x94, 0x2F,
0x00, 0x00, 0x92, 0x45, 0x00, 0x00, 0x94, 0x28, 0x67, 0x14, 0x91, 0x2F, 0x61, 0x0B, 0x94, 0x36,
0x00, 0x04, 0x90, 0x40, 0x00, 0x00, 0x90, 0x44, 0x64, 0x07, 0x94, 0x39, 0x00, 0x03, 0x92, 0x4C,
0x71, 0x0F, 0x93, 0x42, 0x00, 0x0A, 0x93, 0x3F, 0x00, 0x00, 0x93, 0x40, 0x63, 0x12, 0x93, 0x4B,
0x00, 0x0C, 0x95, 0x2F, 0x00, 0x00, 0x93, 0x45, 0x00, 0x00, 0x95, 0x28, 0x67, 0x05, 0x90, 0x47,
0x6C, 0x0F, 0x94, 0x2F, 0x61, 0x0B, 0x95, 0x36, 0x00, 0x04, 0x92, 0x40, 0x00, 0x00, 0x91, 0x34,
0x57, 0x00, 0x92, 0x44, 0x64, 0x07, 0x95, 0x39, 0x00, 0x03, 0x93, 0x4C, 0x71, 0x0D, 0x91, 0x2F,
0x00, 0x2F, 0x92, 0x47, 0x6C, 0x0F, 0x95, 0x2F, 0x61, 0x05, 0x90, 0x44, 0x00, 0x00, 0x90, 0x44,
0x70, 0x03, 0x90, 0x4C, 0x00, 0x07, 0x93, 0x40, 0x00, 0x00, 0x94, 0x34, 0x57, 0x00, 0x93, 0x44,
0x64, 0x0F, 0x91, 0x38, 0x53, 0x08, 0x94, 0x2F, 0x00, 0x0F, 0x91, 0x34, 0x00, 0x16, 0x90, 0x50,
0x78, 0x0A, 0x93, 0x47, 0x6C, 0x14, 0x92, 0x44, 0x00, 0x00, 0x92, 0x44, 0x70, 0x03, 0x92, 0x4C,
0x00, 0x02, 0x91, 0x34, 0x55, 0x05, 0x90, 0x47, 0x00, 0x00, 0x95, 0x34, 0x57, 0x0B, 0x91, 0x38,
0x00, 0x04, 0x94, 0x38, 0x53, 0x08, 0x95, 0x2F, 0x00, 0x0F, 0x94, 0x34, 0x00, 0x16, 0x92, 0x50,
0x78, 0x0F, 0x90, 0x47, 0x5A, 0x0A, 0x91, 0x2F, 0x4F, 0x05, 0x93, 0x44, 0x00, 0x00, 0x93, 0x44,
0x70, 0x03, 0x93, 0x4C, 0x00, 0x02, 0x94, 0x34, 0x55, 0x05, 0x92, 0x47, 0x00, 0x00, 0x90, 0x4C,
0x69, 0x03, 0x91, 0x34, 0x00, 0x08, 0x94, 0x38, 0x00, 0x04, 0x95, 0x38, 0x53, 0x17, 0x95, 0x34,
0x00, 0x16, 0x93, 0x50, 0x78, 0x0A, 0x90, 0x47, 0x00, 0x05, 0x91, 0x28, 0x00, 0x00, 0x92, 0x47,
0x5A, 0x00, 0x91, 0x2D, 0x5E, 0x0A, 0x94, 0x2F, 0x4F, 0x08, 0x91, 0x2F, 0x00, 0x02, 0x90, 0x44,
0x00, 0x00, 0x90, 0x44, 0x6B, 0x00, 0x95, 0x34, 0x55, 0x01, 0x90, 0x50, 0x00, 0x04, 0x93, 0x47,
0x00, 0x00, 0x92, 0x4C, 0x69, 0x03, 0x94, 0x34, 0x00, 0x08, 0x95, 0x38, 0x00, 0x22, 0x90, 0x50,
0x74, 0x19, 0x92, 0x47, 0x00, 0x05, 0x94, 0x28, 0x00, 0x00, 0x93, 0x47, 0x5A, 0x00, 0x94, 0x2D,
0x5E, 0x0A, 0x95, 0x2F, 0x4F, 0x08, 0x94, 0x2F, 0x00, 0x02, 0x92, 0x44, 0x00, 0x00, 0x92, 0x44,
0x6B, 0x01, 0x92, 0x50, 0x00, 0x04, 0x93, 0x4C, 0x69, 0x03, 0x95, 0x34, 0x00, 0x02, 0x91, 0x31,
0x5C, 0x05, 0x90, 0x4C, 0x00, 0x23, 0x92, 0x50, 0x74, 0x0A, 0x90, 0x48, 0x6E, 0x0F, 0x93, 0x47,
0x00, 0x05, 0x95, 0x28, 0x00, 0x00, 0x95, 0x2D, 0x5E, 0x12, 0x95, 0x2F, 0x00, 0x02, 0x93, 0x44,
0x00, 0x00, 0x93, 0x44, 0x6B, 0x01, 0x93, 0x50, 0x00, 0x09, 0x94, 0x31, 0x5C, 0x00, 0x91, 0x36,
0x4D, 0x05, 0x92, 0x4C, 0x00, 0x0F, 0x91, 0x31, 0x00, 0x14, 0x90, 0x49, 0x6C, 0x00, 0x93, 0x50,
0x74, 0x0A, 0x92, 0x48, 0x6E, 0x06, 0x90, 0x50, 0x00, 0x09, 0x91, 0x39, 0x4F, 0x05, 0x90, 0x48,
0x00, 0x08, 0x91, 0x36, 0x00, 0x11, 0x90, 0x44, 0x00, 0x00, 0x90, 0x42, 0x6A, 0x05, 0x95, 0x31,
0x5C, 0x00, 0x94, 0x36, 0x4D, 0x05, 0x93, 0x4C, 0x00, 0x0F, 0x94, 0x31, 0x00, 0x14, 0x92, 0x49,
0x6C, 0x0A, 0x93, 0x48, 0x6E, 0x06, 0x92, 0x50, 0x00, 0x09, 0x94, 0x39, 0x4F, 0x05, 0x92, 0x48,
0x00, 0x05, 0x90, 0x4E, 0x7C, 0x03, 0x94, 0x36, 0x00, 0x07, 0x91, 0x36, 0x5A, 0x0A, 0x92, 0x44,
0x00, 0x00, 0x92, 0x42, 0x6A, 0x05, 0x95, 0x36, 0x4D, 0x09, 0x91, 0x39, 0x00, 0x0B, 0x95, 0x31,
0x00, 0x14, 0x93, 0x49, 0x6C, 0x05, 0x90, 0x48, 0x67, 0x0B, 0x93, 0x50, 0x00, 0x09, 0x90, 0x49,
0x00, 0x00, 0x91, 0x31, 0x59, 0x00, 0x95, 0x39, 0x4F, 0x05, 0x93, 0x48, 0x00, 0x05, 0x92, 0x4E,
0x7C, 0x03, 0x95, 0x36, 0x00, 0x03, 0x91, 0x36, 0x00, 0x04, 0x94, 0x36, 0x5A, 0x0A, 0x93, 0x44,
0x00, 0x00, 0x93, 0x42, 0x6A, 0x0E, 0x94, 0x39, 0x00, 0x10, 0x90, 0x49, 0x74, 0x0F, 0x90, 0x48,
0x00, 0x05, 0x92, 0x48, 0x67, 0x14, 0x92, 0x49, 0x00, 0x00, 0x94, 0x31, 0x59, 0x0A, 0x93, 0x4E,
0x7C, 0x06, 0x94, 0x36, 0x00, 0x04, 0x95, 0x36, 0x5A, 0x18, 0x95, 0x39, 0x00, 0x0B, 0x91, 0x2D,
0x00, 0x00, 0x91, 0x2D, 0x55, 0x05, 0x92, 0x49, 0x74, 0x0F, 0x92, 0x48, 0x00, 0x05, 0x93, 0x48,
0x67, 0x01, 0x90, 0x4E, 0x00, 0x05, 0x91, 0x31, 0x00, 0x0E, 0x93, 0x49, 0x00, 0x00, 0x95, 0x31,
0x59, 0x0F, 0x90, 0x49, 0x00, 0x01, 0x95, 0x36, 0x00, 0x09, 0x90, 0x4B, 0x6C, 0x1E, 0x94, 0x2D,
0x00, 0x00, 0x94, 0x2D, 0x55, 0x05, 0x93, 0x49, 0x74, 0x0F, 0x93, 0x48, 0x00, 0x06, 0x92, 0x4E,
0x00, 0x05, 0x94, 0x31, 0x00, 0x0E, 0x90, 0x42, 0x00, 0x0F, 0x92, 0x49, 0x00, 0x0A, 0x92, 0x4B,
0x6C, 0x14, 0x90, 0x57, 0x73, 0x0A, 0x95, 0x2D, 0x00, 0x00, 0x95, 0x2D, 0x55, 0x1A, 0x93, 0x4E,
0x00, 0x05, 0x95, 0x31, 0x00, 0x0E, 0x92, 0x42, 0x00, 0x0F, 0x93, 0x49, 0x00, 0x0A, 0x91, 0x33,
0x49, 0x00, 0x93, 0x4B, 0x6C, 0x14, 0x92, 0x57, 0x73, 0x37, 0x93, 0x42, 0x00, 0x19, 0x94, 0x33,
0x49, 0x0F, 0x90, 0x4E, 0x62, 0x05, 0x93, 0x57, 0x73, 0x1E, 0x91, 0x36, 0x4A, 0x1E, 0x91, 0x33,
0x00, 0x14, 0x95, 0x33, 0x49, 0x0F, 0x92, 0x4E, 0x62, 0x0F, 0x90, 0x51, 0x5A, 0x14, 0x94, 0x36,
0x4A, 0x1E, 0x94, 0x33, 0x00, 0x00, 0x91, 0x39, 0x43, 0x0A, 0x90, 0x4E, 0x00, 0x0F, 0x90, 0x57,
0x00, 0x01, 0x91, 0x36, 0x00, 0x04, 0x90, 0x4B, 0x00, 0x00, 0x90, 0x49, 0x69, 0x05, 0x93, 0x4E,
0x62, 0x0F, 0x92, 0x51, 0x5A, 0x14, 0x95, 0x36, 0x4A, 0x1E, 0x95, 0x33, 0x00, 0x00, 0x94, 0x39,
0x43, 0x0A, 0x92, 0x4E, 0x00, 0x0F, 0x92, 0x57, 0x00, 0x01, 0x94, 0x36, 0x00, 0x04, 0x92, 0x4B,
0x00, 0x00, 0x90, 0x55, 0x74, 0x00, 0x92, 0x49, 0x69, 0x0F, 0x90, 0x51, 0x00, 0x05, 0x93, 0x51,
0x5A, 0x0A, 0x91, 0x36, 0x50, 0x20, 0x91, 0x39, 0x00, 0x08, 0x95, 0x39, 0x43, 0x0A, 0x93, 0x4E,
0x00, 0x0A, 0x90, 0x4E, 0x63, 0x05, 0x93, 0x57, 0x00, 0x01, 0x95, 0x36, 0x00, 0x04, 0x93, 0x4B,
0x00, 0x00, 0x92, 0x55, 0x74, 0x00, 0x93, 0x49, 0x69, 0x0F, 0x92, 0x51, 0x00, 0x0F, 0x94, 0x36,
0x50, 0x05, 0x91, 0x33, 0x4D, 0x15, 0x91, 0x36, 0x00, 0x06, 0x94, 0x39, 0x00, 0x1C, 0x92, 0x4E,
0x63, 0x05, 0x90, 0x51, 0x5E, 0x05, 0x93, 0x55, 0x74, 0x0F, 0x93, 0x51, 0x00, 0x0A, 0x90, 0x4E,
0x00, 0x05, 0x95, 0x36, 0x50, 0x05, 0x94, 0x33, 0x4D, 0x15, 0x94, 0x36, 0x00, 0x06, 0x95, 0x39,
0x00, 0x08, 0x91, 0x2D, 0x00, 0x00, 0x91, 0x2C, 0x59, 0x14, 0x90, 0x49, 0x00, 0x00, 0x90, 0x49,
0x6A, 0x00, 0x93, 0x4E, 0x63, 0x05, 0x92, 0x51, 0x5E, 0x02, 0x91, 0x33, 0x00, 0x12, 0x90, 0x51,
0x00, 0x0A, 0x92, 0x4E, 0x00, 0x0A, 0x95, 0x33, 0x4D, 0x15, 0x95, 0x36, 0x00, 0x04, 0x90, 0x55,
0x00, 0x0A, 0x94, 0x2D, 0x00, 0x00, 0x94, 0x2C, 0x59, 0x14, 0x92, 0x49, 0x00, 0x00, 0x90, 0x55,
0x75, 0x00, 0x92, 0x49, 0x6A, 0x05, 0x93, 0x51, 0x5E, 0x02, 0x94, 0x33, 0x00, 0x12, 0x92, 0x51,
0x00, 0x0A, 0x93, 0x4E, 0x00, 0x23, 0x92, 0x55, 0x00, 0x0A, 0x95, 0x2D, 0x00, 0x00, 0x95, 0x2C,
0x59, 0x0A, 0x91, 0x33, 0x46, 0x0A, 0x93, 0x49, 0x00, 0x00, 0x92, 0x55, 0x75, 0x00, 0x93, 0x49,
0x6A, 0x07, 0x95, 0x33, 0x00, 0x12, 0x93, 0x51, 0x00, 0x2D, 0x93, 0x55, 0x00, 0x0A, 0x90, 0x49,
0x00, 0x0A, 0x94, 0x33, 0x46, 0x05, 0x90, 0x4B, 0x5F, 0x05, 0x93, 0x55, 0x75, 0x46, 0x91, 0x36,
0x48, 0x0A, 0x92, 0x49, 0x00, 0x0A, 0x95, 0x33, 0x46, 0x05, 0x92, 0x4B, 0x5F, 0x0B, 0x91, 0x33,
0x00, 0x0E, 0x90, 0x4E, 0x5E, 0x32, 0x94, 0x36, 0x48, 0x0A, 0x93, 0x49, 0x00, 0x0A, 0x91, 0x3C,
0x41, 0x05, 0x93, 0x4B, 0x5F, 0x0B, 0x94, 0x33, 0x00, 0x08, 0x91, 0x36, 0x00, 0x06, 0x92, 0x4E,
0x5E, 0x05, 0x90, 0x4B, 0x00, 0x00, 0x90, 0x48, 0x65, 0x05, 0x90, 0x4E, 0x00, 0x28, 0x95, 0x36,
0x48, 0x14, 0x94, 0x3C, 0x41, 0x01, 0x90, 0x55, 0x00, 0x0F, 0x95, 0x33, 0x00, 0x08, 0x94, 0x36,
0x00, 0x06, 0x93, 0x4E, 0x5E, 0x05, 0x92, 0x4B, 0x00, 0x00, 0x92, 0x48, 0x65, 0x00, 0x90, 0x54,
0x70, 0x05, 0x92, 0x4E, 0x00, 0x14, 0x91, 0x36, 0x49, 0x20, 0x91, 0x3C, 0x00, 0x08, 0x95, 0x3C,
0x41, 0x01, 0x92, 0x55, 0x00, 0x17, 0x95, 0x36, 0x00, 0x0B, 0x93, 0x4B, 0x00, 0x00, 0x93, 0x48,
0x65, 0x00, 0x92, 0x54, 0x70, 0x05, 0x93, 0x4E, 0x00, 0x0A, 0x90, 0x48, 0x00, 0x00, 0x90, 0x4B,
0x63, 0x0A, 0x94, 0x36, 0x49, 0x0A, 0x91, 0x33, 0x4C, 0x16, 0x94, 0x3C, 0x00, 0x00, 0x91, 0x36,
0x00, 0x09, 0x93, 0x55, 0x00, 0x22, 0x93, 0x54, 0x70, 0x05, 0x90, 0x4E, 0x64, 0x0A, 0x92, 0x48,
0x00, 0x00, 0x92, 0x4B, 0x63, 0x0A, 0x95, 0x36, 0x49, 0x0A, 0x94, 0x33, 0x4C, 0x16, 0x95, 0x3C,
0x00, 0x00, 0x94, 0x36, 0x00, 0x03, 0x91, 0x2C, 0x00, 0x00, 0x91, 0x2C, 0x5A, 0x14, 0x90, 0x4B,
0x00, 0x00, 0x90, 0x48, 0x65, 0x05, 0x91, 0x33, 0x00, 0x00, 0x90, 0x4E, 0x00, 0x14, 0x92, 0x4E,
0x64, 0x0A, 0x93, 0x48, 0x00, 0x00, 0x93, 0x4B, 0x63, 0x0B, 0x90, 0x54, 0x00, 0x09, 0x95, 0x33,
0x4C, 0x16, 0x95, 0x36, 0x00, 0x03, 0x94, 0x2C, 0x00, 0x00, 0x94, 0x2C, 0x5A, 0x05, 0x90, 0x54,
0x71, 0x0F, 0x92, 0x4B, 0x00, 0x00, 0x92, 0x48, 0x65, 0x05, 0x94, 0x33, 0x00, 0x00, 0x92, 0x4E,
0x00, 0x0F, 0x91, 0x33, 0x51, 0x05, 0x93, 0x4E, 0x64, 0x15, 0x92, 0x54, 0x00, 0x22, 0x95, 0x2C,
0x00, 0x00, 0x95, 0x2C, 0x5A, 0x05, 0x92, 0x54, 0x71, 0x0F, 0x90, 0x48, 0x00, 0x00, 0x93, 0x4B,
0x00, 0x00, 0x90, 0x4B, 0x6C, 0x00, 0x93, 0x48, 0x65, 0x05, 0x95, 0x33, 0x00, 0x00, 0x93, 0x4E,
0x00, 0x0F, 0x94, 0x33, 0x51, 0x1A, 0x93, 0x54, 0x00, 0x04, 0x91, 0x36, 0x4F, 0x19, 0x90, 0x4E,
0x69, 0x01, 0x91, 0x33, 0x00, 0x09, 0x93, 0x54, 0x71, 0x0F, 0x92, 0x48, 0x00, 0x00, 0x92, 0x4B,
0x6C, 0x14, 0x95, 0x33, 0x51, 0x14, 0x91, 0x3C, 0x48, 0x05, 0x90, 0x4B, 0x00, 0x00, 0x90, 0x48,
0x6C, 0x05, 0x90, 0x4E, 0x00, 0x00, 0x94, 0x36, 0x4F, 0x08, 0x91, 0x36, 0x00, 0x11, 0x92, 0x4E,
0x69, 0x01, 0x94, 0x33, 0x00, 0x0F, 0x90, 0x54, 0x00, 0x09, 0x93, 0x48, 0x00, 0x00, 0x93, 0x4B,
0x6C, 0x14, 0x90, 0x54, 0x7A, 0x14, 0x94, 0x3C, 0x48, 0x05, 0x92, 0x4B, 0x00, 0x00, 0x92, 0x48,
0x6C, 0x05, 0x92, 0x4E, 0x00, 0x00, 0x95, 0x36, 0x4F, 0x08, 0x94, 0x36, 0x00, 0x07, 0x91, 0x36,
0x5C, 0x0A, 0x93, 0x4E, 0x69, 0x01, 0x95, 0x33, 0x00, 0x0E, 0x91, 0x3C, 0x00, 0x01, 0x92, 0x54,
0x00, 0x1D, 0x92, 0x54, 0x7A, 0x0F, 0x90, 0x48, 0x00, 0x00, 0x90, 0x4B, 0x6C, 0x05, 0x95, 0x3C,
0x48, 0x00, 0x91, 0x33, 0x58, 0x05, 0x93, 0x4B, 0x00, 0x00, 0x93, 0x48, 0x6C, 0x05, 0x93, 0x4E,
0x00, 0x05, 0x91, 0x36, 0x00, 0x03, 0x95, 0x36, 0x00, 0x07, 0x94, 0x36, 0x5C, 0x19, 0x94, 0x3C,
0x00, 0x01, 0x93, 0x54, 0x00, 0x0E, 0x90, 0x4E, 0x6B, 0x0F, 0x93, 0x54, 0x7A, 0x0F, 0x92, 0x48,
0x00, 0x00, 0x92, 0x4B, 0x6C, 0x05, 0x94, 0x33, 0x58, 0x0F, 0x94, 0x36, 0x00, 0x05, 0x91, 0x2C,
0x00, 0x00, 0x91, 0x2D, 0x62, 0x05, 0x95, 0x36, 0x5C, 0x0A, 0x90, 0x4B, 0x00, 0x00, 0x90, 0x48,
0x73, 0x09, 0x91, 0x33, 0x00, 0x06, 0x95, 0x3C, 0x00, 0x0F, 0x90, 0x4E, 0x00, 0x00, 0x92, 0x4E,
0x6B, 0x1E, 0x93, 0x48, 0x00, 0x00, 0x93, 0x4B, 0x6C, 0x05, 0x95, 0x33, 0x58, 0x0F, 0x95, 0x36,
0x00, 0x01, 0x90, 0x54, 0x00, 0x04, 0x94, 0x2C, 0x00, 0x00, 0x94, 0x2D, 0x62, 0x05, 0x90, 0x54,
0x7F, 0x0A, 0x92, 0x4B, 0x00, 0x00, 0x92, 0x48, 0x73, 0x09, 0x94, 0x33, 0x00, 0x15, 0x92, 0x4E,
0x00, 0x00, 0x93, 0x4E, 0x6B, 0x14, 0x91, 0x33, 0x5C, 0x1F, 0x92, 0x54, 0x00, 0x04, 0x95, 0x2C,
0x00, 0x00, 0x95, 0x2D, 0x62, 0x05, 0x92, 0x54, 0x7F, 0x0A, 0x93, 0x4B, 0x00, 0x00, 0x93, 0x48,
0x73, 0x09, 0x95, 0x33, 0x00, 0x01, 0x90, 0x48, 0x00, 0x00, 0x90, 0x4B, 0x6E, 0x14, 0x93, 0x4E,
0x00, 0x14, 0x94, 0x33, 0x5C, 0x00, 0x91, 0x36, 0x59, 0x14, 0x91, 0x33, 0x00, 0x05, 0x90, 0x4E,
0x6E, 0x06, 0x93, 0x54, 0x00, 0x09, 0x93, 0x54, 0x7F, 0x14, 0x92, 0x48, 0x00, 0x00, 0x92, 0x4B,
0x6E, 0x1E, 0x90, 0x4B, 0x00, 0x00, 0x91, 0x3B, 0x4E, 0x00, 0x90, 0x47, 0x73, 0x0A, 0x95, 0x33,
0x5C, 0x00, 0x94, 0x36, 0x59, 0x08, 0x91, 0x36, 0x00, 0x0C, 0x94, 0x33, 0x00, 0x05, 0x92, 0x4E,
0x6E, 0x0B, 0x90, 0x54, 0x00, 0x18, 0x93, 0x48, 0x00, 0x00, 0x90, 0x4E, 0x00, 0x00, 0x93, 0x4B,
0x6E, 0x0A, 0x90, 0x53, 0x7F, 0x14, 0x92, 0x4B, 0x00, 0x00, 0x94, 0x3B, 0x4E, 0x00, 0x92, 0x47,
0x73, 0x05, 0x91, 0x36, 0x5C, 0x05, 0x95, 0x36, 0x59, 0x08, 0x94, 0x36, 0x00, 0x08, 0x91, 0x3B,
0x00, 0x04, 0x95, 0x33, 0x00, 0x05, 0x93, 0x4E, 0x6E, 0x0B, 0x92, 0x54, 0x00, 0x18, 0x90, 0x47,
0x00, 0x00, 0x92, 0x4E, 0x00, 0x00, 0x90, 0x4B, 0x70, 0x0A, 0x92, 0x53, 0x7F, 0x00, 0x91, 0x33,
0x56, 0x0F, 0x91, 0x36, 0x00, 0x05, 0x93, 0x4B, 0x00, 0x00, 0x95, 0x3B, 0x4E, 0x00, 0x93, 0x47,
0x73, 0x05, 0x94, 0x36, 0x5C, 0x0D, 0x95, 0x36, 0x00, 0x07, 0x90, 0x4E, 0x75, 0x01, 0x94, 0x3B,
0x00, 0x14, 0x93, 0x54, 0x00, 0x18, 0x92, 0x47, 0x00, 0x00, 0x93, 0x4E, 0x00, 0x00, 0x92, 0x4B,
0x70, 0x0A, 0x93, 0x53, 0x7F, 0x00, 0x94, 0x33, 0x56, 0x0A, 0x91, 0x2D, 0x00, 0x00, 0x91, 0x2E,
0x64, 0x05, 0x94, 0x36, 0x00, 0x0A, 0x95, 0x36, 0x5C, 0x07, 0x91, 0x33, 0x00, 0x03, 0x90, 0x4B,
0x00, 0x00, 0x90, 0x47, 0x74, 0x0A, 0x92, 0x4E, 0x75, 0x01, 0x95, 0x3B, 0x00, 0x18, 0x90, 0x4E,
0x00, 0x14, 0x93, 0x47, 0x00, 0x00, 0x93, 0x4B, 0x70, 0x01, 0x90, 0x53, 0x00, 0x09, 0x95, 0x33,
0x56, 0x00, 0x90, 0x53, 0x7F, 0x0A, 0x94, 0x2D, 0x00, 0x00, 0x94, 0x2E, 0x64, 0x05, 0x95, 0x36,
0x00, 0x05, 0x91, 0x33, 0x5C, 0x0C, 0x94, 0x33, 0x00, 0x03, 0x92, 0x4B, 0x00, 0x00, 0x92, 0x47,
0x74, 0x0A, 0x93, 0x4E, 0x75, 0x19, 0x92, 0x4E, 0x00, 0x15, 0x92, 0x53, 0x00, 0x09, 0x92, 0x53,
0x7F, 0x0A, 0x95, 0x2D, 0x00, 0x00, 0x90, 0x47, 0x00, 0x00, 0x95, 0x2E, 0x64, 0x00, 0x90, 0x4B,
0x6B, 0x0A, 0x94, 0x33, 0x5C, 0x00, 0x91, 0x36, 0x59, 0x0C, 0x95, 0x33, 0x00, 0x03, 0x93, 0x4B,
0x00, 0x00, 0x93, 0x47, 0x74, 0x05, 0x91, 0x33, 0x00, 0x00, 0x90, 0x4E, 0x73, 0x1E, 0x93, 0x4E,
0x00, 0x15, 0x93, 0x53, 0x00, 0x09, 0x93, 0x53, 0x7F, 0x0A, 0x92, 0x47, 0x00, 0x00, 0x92, 0x4B,
0x6B, 0x0A, 0x95, 0x33, 0x5C, 0x00, 0x94, 0x36, 0x59, 0x00, 0x91, 0x3A, 0x53, 0x14, 0x90, 0x4B,
0x00, 0x00, 0x94, 0x33, 0x00, 0x00, 0x91, 0x36, 0x00, 0x00, 0x90, 0x46, 0x74, 0x00, 0x92, 0x4E,
0x73, 0x24, 0x90, 0x53, 0x00, 0x22, 0x93, 0x47, 0x00, 0x00, 0x90, 0x4E, 0x00, 0x00, 0x93, 0x4B,
0x6B, 0x0A, 0x95, 0x36, 0x59, 0x00, 0x94, 0x3A, 0x53, 0x00, 0x90, 0x52, 0x7F, 0x14, 0x92, 0x4B,
0x00, 0x00, 0x95, 0x33, 0x00, 0x00, 0x94, 0x36, 0x00, 0x00, 0x91, 0x36, 0x5A, 0x00, 0x92, 0x46,
0x74, 0x00, 0x93, 0x4E, 0x73, 0x18, 0x91, 0x3A, 0x00, 0x06, 0x90, 0x46, 0x00, 0x00, 0x90, 0x4B,
0x68, 0x06, 0x92, 0x53, 0x00, 0x22, 0x92, 0x4E, 0x00, 0x05, 0x91, 0x33, 0x57, 0x05, 0x95, 0x3A,
0x53, 0x00, 0x92, 0x52, 0x7F, 0x0A, 0x91, 0x36, 0x00, 0x0A, 0x93, 0x4B, 0x00, 0x00, 0x95, 0x36,
0x00, 0x00, 0x94, 0x36, 0x5A, 0x00, 0x93, 0x46, 0x74, 0x0F, 0x90, 0x4E, 0x76, 0x09, 0x94, 0x3A,
0x00, 0x06, 0x92, 0x46, 0x00, 0x00, 0x92, 0x4B, 0x68, 0x06, 0x93, 0x53, 0x00, 0x22, 0x93, 0x4E,
0x00, 0x05, 0x94, 0x33, 0x57, 0x05, 0x90, 0x4B, 0x00, 0x00, 0x93, 0x52, 0x7F, 0x00, 0x90, 0x46,
0x74, 0x0A, 0x91, 0x2E, 0x00, 0x00, 0x94, 0x36, 0x00, 0x00, 0x91, 0x30, 0x66, 0x0A, 0x95, 0x36,
0x5A, 0x0D, 0x91, 0x33, 0x00, 0x02, 0x92, 0x4E, 0x76, 0x09, 0x95, 0x3A, 0x00, 0x06, 0x93, 0x46,
0x00, 0x00, 0x93, 0x4B, 0x68, 0x19, 0x90, 0x4E, 0x00, 0x06, 0x90, 0x52, 0x00, 0x09, 0x90, 0x52,
0x7F, 0x05, 0x95, 0x33, 0x57, 0x05, 0x92, 0x4B, 0x00, 0x00, 0x92, 0x46, 0x74, 0x0A, 0x94, 0x2E,
0x00, 0x00, 0x95, 0x36, 0x00, 0x00, 0x94, 0x30, 0x66, 0x0A, 0x91, 0x33, 0x58, 0x0D, 0x94, 0x33,
0x00, 0x02, 0x93, 0x4E, 0x76, 0x28, 0x92, 0x4E, 0x00, 0x06, 0x92, 0x52, 0x00, 0x04, 0x90, 0x46,
0x00, 0x00, 0x90, 0x4B, 0x6C, 0x05, 0x92, 0x52, 0x7F, 0x0A, 0x93, 0x4B, 0x00, 0x00, 0x93, 0x46,
0x74, 0x0A, 0x95, 0x2E, 0x00, 0x00, 0x95, 0x30, 0x66, 0x0A, 0x94, 0x33, 0x58, 0x00, 0x91, 0x36,
0x5C, 0x0A, 0x90, 0x4E, 0x76, 0x03, 0x95, 0x33, 0x00, 0x07, 0x91, 0x33, 0x00, 0x23, 0x93, 0x4E,
0x00, 0x06, 0x93, 0x52, 0x00, 0x04, 0x92, 0x46, 0x00, 0x00, 0x92, 0x4B, 0x6C, 0x05, 0x93, 0x52,
0x7F, 0x1E, 0x95, 0x33, 0x58, 0x00, 0x94, 0x36, 0x5C, 0x05, 0x90, 0x4B, 0x00, 0x00, 0x91, 0x39,
0x53, 0x00, 0x90, 0x45, 0x6D, 0x05, 0x92, 0x4E, 0x76, 0x0A, 0x94, 0x33, 0x00, 0x06, 0x91, 0x36,
0x00, 0x15, 0x90, 0x52, 0x00, 0x12, 0x93, 0x46, 0x00, 0x00, 0x90, 0x4E, 0x00, 0x00, 0x93, 0x4B,
0x6C, 0x0F, 0x90, 0x51, 0x7A, 0x14, 0x95, 0x36, 0x5C, 0x05, 0x92, 0x4B, 0x00, 0x00, 0x94, 0x39,
0x53, 0x00, 0x92, 0x45, 0x6D, 0x05, 0x91, 0x36, 0x59, 0x00, 0x93, 0x4E, 0x76, 0x0A, 0x95, 0x33,
0x00, 0x06, 0x94, 0x36, 0x00, 0x05, 0x91, 0x39, 0x00, 0x10, 0x92, 0x52, 0x00, 0x12, 0x92, 0x4E,
0x00, 0x0F, 0x90, 0x45, 0x00, 0x00, 0x90, 0x4B, 0x6C, 0x00, 0x92, 0x51, 0x7A, 0x19, 0x93, 0x4B,
0x00, 0x00, 0x95, 0x39, 0x53, 0x00, 0x93, 0x45, 0x6D, 0x05, 0x94, 0x36, 0x59, 0x00, 0x91, 0x33,
0x5B, 0x10, 0x95, 0x36, 0x00, 0x04, 0x91, 0x36, 0x00, 0x01, 0x94, 0x39, 0x00, 0x0E, 0x90, 0x4E,
0x72, 0x02, 0x93, 0x52, 0x00, 0x12, 0x93, 0x4E, 0x00, 0x0F, 0x92, 0x45, 0x00, 0x00, 0x92, 0x4B,
0x6C, 0x00, 0x93, 0x51, 0x7A, 0x1E, 0x95, 0x36, 0x59, 0x00, 0x94, 0x33, 0x5B, 0x14, 0x94, 0x36,
0x00, 0x01, 0x95, 0x39, 0x00, 0x09, 0x91, 0x30, 0x00, 0x00, 0x90, 0x4B, 0x00, 0x00, 0x91, 0x30,
0x5C, 0x00, 0x90, 0x45, 0x6A, 0x05, 0x92, 0x4E, 0x72, 0x15, 0x91, 0x33, 0x00, 0x09, 0x90, 0x4E,
0x00, 0x05, 0x93, 0x45, 0x00, 0x00, 0x93, 0x4B, 0x6C, 0x16, 0x90, 0x51, 0x00, 0x08, 0x95, 0x33,
0x5B, 0x0F, 0x90, 0x51, 0x77, 0x05, 0x95, 0x36, 0x00, 0x00, 0x91, 0x33, 0x57, 0x0A, 0x94, 0x30,
0x00, 0x00, 0x92, 0x4B, 0x00, 0x00, 0x94, 0x30, 0x5C, 0x00, 0x92, 0x45, 0x6A, 0x05, 0x93, 0x4E,
0x72, 0x15, 0x94, 0x33, 0x00, 0x09, 0x92, 0x4E, 0x00, 0x1B, 0x92, 0x51, 0x00, 0x08, 0x90, 0x45,
0x00, 0x00, 0x90, 0x4B, 0x66, 0x0F, 0x92, 0x51, 0x77, 0x05, 0x94, 0x33, 0x57, 0x0A, 0x95, 0x30,
0x00, 0x00, 0x93, 0x4B, 0x00, 0x00, 0x95, 0x30, 0x5C, 0x00, 0x93, 0x45, 0x6A, 0x05, 0x91, 0x36,
0x5B, 0x15, 0x95, 0x33, 0x00, 0x02, 0x91, 0x33, 0x00, 0x07, 0x93, 0x4E, 0x00, 0x00, 0x90, 0x4E,
0x6E, 0x1B, 0x93, 0x51, 0x00, 0x08, 0x92, 0x45, 0x00, 0x00, 0x92, 0x4B, 0x66, 0x0F, 0x93, 0x51,
0x77, 0x05, 0x95, 0x33, 0x57, 0x0F, 0x94, 0x36, 0x5B, 0x0A, 0x91, 0x39, 0x4E, 0x0D, 0x94, 0x33,
0x00, 0x02, 0x90, 0x4B, 0x00, 0x00, 0x90, 0x45, 0x67, 0x05, 0x92, 0x4E, 0x6E, 0x02, 0x90, 0x51,
0x00, 0x00, 0x91, 0x36, 0x00, 0x12, 0x90, 0x4E, 0x00, 0x0F, 0x93, 0x45, 0x00, 0x00, 0x93, 0x4B,
0x66, 0x23, 0x95, 0x36, 0x5B, 0x0A, 0x94, 0x39, 0x4E, 0x00, 0x90, 0x51, 0x6A, 0x0D, 0x95, 0x33,
0x00, 0x02, 0x92, 0x4B, 0x00, 0x00, 0x92, 0x45, 0x67, 0x05, 0x93, 0x4E, 0x6E, 0x02, 0x92, 0x51,
0x00, 0x00, 0x94, 0x36, 0x00, 0x03, 0x91, 0x36, 0x56, 0x0F, 0x92, 0x4E, 0x00, 0x0A, 0x91, 0x39,
0x00, 0x0A, 0x90, 0x45, 0x00, 0x23, 0x90, 0x4B, 0x66, 0x05, 0x95, 0x39, 0x4E, 0x00, 0x92, 0x51,
0x6A, 0x0F, 0x93, 0x4B, 0x00, 0x00, 0x93, 0x45, 0x67, 0x07, 0x93, 0x51, 0x00, 0x00, 0x95, 0x36,
0x00, 0x03, 0x94, 0x36, 0x56, 0x0A, 0x91, 0x33, 0x4D, 0x05, 0x93, 0x4E, 0x00, 0x0A, 0x94, 0x39,
0x00, 0x07, 0x91, 0x36, 0x00, 0x03, 0x92, 0x45, 0x00, 0x14, 0x90, 0x4E, 0x6A, 0x0F, 0x90, 0x4B,
0x00, 0x00, 0x92, 0x4B, 0x66, 0x05, 0x93, 0x51, 0x6A, 0x19, 0x95, 0x36, 0x56, 0x0A, 0x94, 0x33,
0x4D, 0x0F, 0x95, 0x39, 0x00, 0x07, 0x94, 0x36, 0x00, 0x03, 0x93, 0x45, 0x00, 0x0A, 0x90, 0x4E,
0x00, 0x0A, 0x92, 0x4E, 0x6A, 0x0F, 0x92, 0x4B, 0x00, 0x00, 0x93, 0x4B, 0x66, 0x0A, 0x91, 0x30,
0x00, 0x00, 0x91, 0x2D, 0x52, 0x0A, 0x90, 0x48, 0x67, 0x07, 0x90, 0x51, 0x00, 0x08, 0xB0, 0x43,
0x7F, 0x05, 0x95, 0x33, 0x4D, 0x04, 0x91, 0x33, 0x00, 0x12, 0x95, 0x36, 0x00, 0x0D, 0x92, 0x4E,
0x00, 0x0A, 0x93, 0x4E, 0x6A, 0x0F, 0x93, 0x4B, 0x00, 0x0A, 0x94, 0x30, 0x00, 0x00, 0x94, 0x2D,
0x52, 0x0A, 0x92, 0x48, 0x67, 0x05, 0x90, 0x54, 0x6F, 0x02, 0x92, 0x51, 0x00, 0x08, 0xB2, 0x43,
0x7F, 0x09, 0x94, 0x33, 0x00, 0x1F, 0x93, 0x4E, 0x00, 0x0F, 0x91, 0x33, 0x48, 0x14, 0x95, 0x30,
0x00, 0x00, 0x95, 0x2D, 0x52, 0x0A, 0x93, 0x48, 0x67, 0x05, 0x92, 0x54, 0x6F, 0x02, 0x93, 0x51,
0x00, 0x08, 0xB3, 0x43, 0x7F, 0x09, 0x95, 0x33, 0x00, 0x1F, 0x90, 0x4B, 0x61, 0x0F, 0x94, 0x33,
0x48, 0x0A, 0x91, 0x36, 0x4A, 0x16, 0x91, 0x33, 0x00, 0x03, 0x93, 0x54, 0x6F, 0x28, 0x90, 0x4E,
0x60, 0x06, 0x90, 0x48, 0x00, 0x04, 0x92, 0x4B, 0x61, 0x0F, 0x95, 0x33, 0x48, 0x0A, 0x94, 0x36,
0x4A, 0x16, 0x94, 0x33, 0x00, 0x03, 0x91, 0x3B, 0x46, 0x19, 0x91, 0x36, 0x00, 0x06, 0x90, 0x54,
0x00, 0x04, 0x90, 0x4B, 0x00, 0x00, 0x90, 0x47, 0x61, 0x05, 0x92, 0x4E, 0x60, 0x06, 0x92, 0x48,
0x00, 0x04, 0x93, 0x4B, 0x61, 0x05, 0x90, 0x4E, 0x00, 0x14, 0x95, 0x36, 0x4A, 0x16, 0x95, 0x33,
0x00, 0x03, 0x94, 0x3B, 0x46, 0x00, 0x90, 0x53, 0x74, 0x19, 0x94, 0x36, 0x00, 0x00, 0x91, 0x36,
0x50, 0x06, 0x92, 0x54, 0x00, 0x04, 0x92, 0x4B, 0x00, 0x00, 0x92, 0x47, 0x61, 0x05, 0x93, 0x4E,
0x60, 0x06, 0x93, 0x48, 0x00, 0x04, 0x91, 0x3B, 0x00, 0x05, 0x92, 0x4E, 0x00, 0x2D, 0x95, 0x3B,
0x46, 0x00, 0x92, 0x53, 0x74, 0x05, 0x90, 0x4B, 0x63, 0x14, 0x95, 0x36, 0x00, 0x00, 0x94, 0x36,
0x50, 0x05, 0x91, 0x33, 0x4D, 0x01, 0x93, 0x54, 0x00, 0x04, 0x93, 0x4B, 0x00, 0x00, 0x93, 0x47,
0x61, 0x0F, 0x94, 0x3B, 0x00, 0x01, 0x91, 0x36, 0x00, 0x04, 0x93, 0x4E, 0x00, 0x19, 0x90, 0x4E,
0x6B, 0x14, 0x93, 0x53, 0x74, 0x01, 0x90, 0x47, 0x00, 0x04, 0x92, 0x4B, 0x63, 0x14, 0x95, 0x36,
0x50, 0x05, 0x94, 0x33, 0x4D, 0x14, 0x95, 0x3B, 0x00, 0x01, 0x94, 0x36, 0x00, 0x04, 0x91, 0x2D,
0x00, 0x00, 0x91, 0x2E, 0x56, 0x05, 0x90, 0x4B, 0x00, 0x00, 0x90, 0x47, 0x67, 0x0A, 0x90, 0x4E,
0x00, 0x0A, 0x91, 0x33, 0x00, 0x00, 0x92, 0x4E, 0x6B, 0x15, 0x92, 0x47, 0x00, 0x04, 0x93, 0x4B,
0x63, 0x15, 0x90, 0x53, 0x00, 0x04, 0x95, 0x33, 0x4D, 0x0A, 0x90, 0x53, 0x75, 0x0B, 0x95, 0x36,
0x00, 0x04, 0x94, 0x2D, 0x00, 0x00, 0x94, 0x2E, 0x56, 0x05, 0x92, 0x4B, 0x00, 0x00, 0x92, 0x47,
0x67, 0x0A, 0x92, 0x4E, 0x00, 0x00, 0x91, 0x33, 0x49, 0x0A, 0x94, 0x33, 0x00, 0x00, 0x93, 0x4E,
0x6B, 0x15, 0x93, 0x47, 0x00, 0x19, 0x92, 0x53, 0x00, 0x0E, 0x92, 0x53, 0x75, 0x05, 0x90, 0x4B,
0x65, 0x0A, 0x95, 0x2D, 0x00, 0x00, 0x95, 0x2E, 0x56, 0x05, 0x93, 0x4B, 0x00, 0x00, 0x93, 0x47,
0x67, 0x0A, 0x93, 0x4E, 0x00, 0x00, 0x94, 0x33, 0x49, 0x05, 0x91, 0x36, 0x4F, 0x05, 0x95, 0x33,
0x00, 0x10, 0x91, 0x33, 0x00, 0x0E, 0x90, 0x4E, 0x6B, 0x10, 0x93, 0x53, 0x00, 0x0E, 0x93, 0x53,
0x75, 0x01, 0x90, 0x47, 0x00, 0x04, 0x92, 0x4B, 0x65, 0x19, 0x95, 0x33, 0x49, 0x05, 0x94, 0x36,
0x4F, 0x15, 0x94, 0x33, 0x00, 0x04, 0x90, 0x4B, 0x00, 0x00, 0x91, 0x3A, 0x4B, 0x00, 0x90, 0x46,
0x67, 0x05, 0x90, 0x4E, 0x00, 0x05, 0x92, 0x4E, 0x6B, 0x0B, 0x90, 0x53, 0x00, 0x04, 0x91, 0x36,
0x00, 0x10, 0x92, 0x47, 0x00, 0x04, 0x93, 0x4B, 0x65, 0x19, 0x90, 0x52, 0x73, 0x05, 0x95, 0x36,
0x4F, 0x15, 0x95, 0x33, 0x00, 0x04, 0x92, 0x4B, 0x00, 0x00, 0x94, 0x3A, 0x4B, 0x00, 0x92, 0x46,
0x67, 0x05, 0x92, 0x4E, 0x00, 0x05, 0x93, 0x4E, 0x6B, 0x0B, 0x92, 0x53, 0x00, 0x04, 0x94, 0x36,
0x00, 0x05, 0x91, 0x36, 0x4D, 0x0B, 0x93, 0x47, 0x00, 0x0F, 0x91, 0x3A, 0x00, 0x04, 0x90, 0x4B,
0x65, 0x0A, 0x92, 0x52, 0x73, 0x1E, 0x93, 0x4B, 0x00, 0x00, 0x95, 0x3A, 0x4B, 0x00, 0x93, 0x46,
0x67, 0x00, 0x91, 0x33, 0x51, 0x05, 0x93, 0x4E, 0x00, 0x09, 0x91, 0x36, 0x00, 0x07, 0x93, 0x53,
0x00, 0x04, 0x95, 0x36, 0x00, 0x05, 0x94, 0x36, 0x4D, 0x05, 0x90, 0x4E, 0x67, 0x15, 0x90, 0x46,
0x00, 0x00, 0x94, 0x3A, 0x00, 0x04, 0x92, 0x4B, 0x65, 0x0A, 0x93, 0x52, 0x73, 0x1E, 0x94, 0x33,
0x51, 0x0E, 0x94, 0x36, 0x00, 0x01, 0x91, 0x2E, 0x00, 0x00, 0x90, 0x4E, 0x00, 0x00, 0x91, 0x2F,
0x57, 0x0A, 0x90, 0x4B, 0x00, 0x00, 0x90, 0x46, 0x67, 0x05, 0x95, 0x36, 0x4D, 0x05, 0x92, 0x4E,
0x67, 0x03, 0x91, 0x33, 0x00, 0x03, 0x90, 0x52, 0x00, 0x0F, 0x92, 0x46, 0x00, 0x00, 0x95, 0x3A,
0x00, 0x04, 0x93, 0x4B, 0x65, 0x28, 0x90, 0x52, 0x6E, 0x00, 0x95, 0x33, 0x51, 0x0E, 0x95, 0x36,
0x00, 0x01, 0x94, 0x2E, 0x00, 0x00, 0x92, 0x4E, 0x00, 0x00, 0x94, 0x2F, 0x57, 0x0A, 0x92, 0x4B,
0x00, 0x00, 0x92, 0x46, 0x67, 0x0A, 0x91, 0x33, 0x4E, 0x00, 0x93, 0x4E, 0x67, 0x03, 0x94, 0x33,
0x00, 0x03, 0x92, 0x52, 0x00, 0x0F, 0x93, 0x46, 0x00, 0x27, 0x90, 0x4B, 0x66, 0x05, 0x92, 0x52,
0x6E, 0x0F, 0x95, 0x2E, 0x00, 0x00, 0x93, 0x4E, 0x00, 0x00, 0x95, 0x2F, 0x57, 0x0A, 0x93, 0x4B,
0x00, 0x00, 0x93, 0x46, 0x67, 0x0A, 0x94, 0x33, 0x4E, 0x03, 0x95, 0x33, 0x00, 0x03, 0x93, 0x52,
0x00, 0x04, 0x91, 0x36, 0x4C, 0x0A, 0x90, 0x4E, 0x62, 0x0C, 0x91, 0x33, 0x00, 0x18, 0x90, 0x46,
0x00, 0x04, 0x92, 0x4B, 0x66, 0x05, 0x93, 0x52, 0x6E, 0x23, 0x95, 0x33, 0x4E, 0x0A, 0x94, 0x36,
0x4C, 0x0A, 0x90, 0x4B, 0x00, 0x00, 0x90, 0x45, 0x64, 0x00, 0x92, 0x4E, 0x62, 0x05, 0x91, 0x39,
0x46, 0x07, 0x94, 0x33, 0x00, 0x08, 0x90, 0x4E, 0x00, 0x08, 0x91, 0x36, 0x00, 0x08, 0x90, 0x52,
0x00, 0x00, 0x92, 0x46, 0x00, 0x04, 0x93, 0x4B, 0x66, 0x32, 0x95, 0x36, 0x4C, 0x00, 0x90, 0x51,
0x6A, 0x0A, 0x92, 0x4B, 0x00, 0x00, 0x92, 0x45, 0x64, 0x00, 0x93, 0x4E, 0x62, 0x05, 0x94, 0x39,
0x46, 0x07, 0x95, 0x33, 0x00, 0x08, 0x92, 0x4E, 0x00, 0x00, 0x91, 0x36, 0x4B, 0x08, 0x94, 0x36,
0x00, 0x08, 0x92, 0x52, 0x00, 0x00, 0x93, 0x46, 0x00, 0x07, 0x91, 0x39, 0x00, 0x2F, 0x92, 0x51,
0x6A, 0x0A, 0x93, 0x4B, 0x00, 0x00, 0x93, 0x45, 0x64, 0x05, 0x95, 0x39, 0x46, 0x00, 0x90, 0x4B,
0x63, 0x0F, 0x93, 0x4E, 0x00, 0x00, 0x94, 0x36, 0x4B, 0x08, 0x95, 0x36, 0x00, 0x07, 0x91, 0x36,
0x00, 0x00, 0x91, 0x33, 0x4A, 0x01, 0x93, 0x52, 0x00, 0x07, 0x94, 0x39, 0x00, 0x2A, 0x90, 0x4E,
0x64, 0x05, 0x93, 0x51, 0x6A, 0x0B, 0x90, 0x45, 0x00, 0x04, 0x92, 0x4B, 0x63, 0x0F, 0x95, 0x36,
0x4B, 0x0F, 0x94, 0x36, 0x00, 0x00, 0x94, 0x33, 0x4A, 0x08, 0x95, 0x39, 0x00, 0x11, 0x91, 0x33,
0x00, 0x0F, 0x90, 0x4B, 0x00, 0x00, 0x90, 0x45, 0x59, 0x0A, 0x92, 0x4E, 0x64, 0x05, 0x91, 0x2F,
0x00, 0x00, 0x91, 0x30, 0x4D, 0x0A, 0x90, 0x4E, 0x00, 0x01, 0x92, 0x45, 0x00, 0x04, 0x93, 0x4B,
0x63, 0x1E, 0x95, 0x36, 0x00, 0x00, 0x95, 0x33, 0x4A, 0x12, 0x90, 0x51, 0x00, 0x07, 0x94, 0x33,
0x00, 0x05, 0x90, 0x51, 0x5E, 0x0A, 0x92, 0x4B, 0x00, 0x00, 0x92, 0x45, 0x59, 0x0A, 0x93, 0x4E,
0x64, 0x05, 0x94, 0x2F, 0x00, 0x00, 0x94, 0x30, 0x4D, 0x0A, 0x92, 0x4E, 0x00, 0x01, 0x93, 0x45,
0x00, 0x27, 0x91, 0x33, 0x4C, 0x0D, 0x92, 0x51, 0x00, 0x07, 0x95, 0x33, 0x00, 0x05, 0x92, 0x51,
0x5E, 0x0A, 0x93, 0x4B, 0x00, 0x00, 0x93, 0x45, 0x59, 0x0F, 0x95, 0x2F, 0x00, 0x00, 0x95, 0x30,
0x4D, 0x0A, 0x93, 0x4E, 0x00, 0x0F, 0x90, 0x4B, 0x5D, 0x19, 0x94, 0x33, 0x4C, 0x0D, 0x93, 0x51,
0x00, 0x0C, 0x93, 0x51, 0x5E, 0x14, 0x91, 0x36, 0x47, 0x1A, 0x90, 0x45, 0x00, 0x04, 0x92, 0x4B,
0x5D, 0x0A, 0x90, 0x4E, 0x60, 0x0A, 0x91, 0x33, 0x00, 0x05, 0x95, 0x33, 0x4C, 0x2D, 0x94, 0x36,
0x47, 0x1A, 0x92, 0x45, 0x00, 0x04, 0x93, 0x4B, 0x5D, 0x0A, 0x91, 0x36, 0x00, 0x00, 0x92, 0x4E,
0x60, 0x0A, 0x90, 0x4B, 0x00, 0x00, 0x94, 0x33, 0x00, 0x00, 0x90, 0x44, 0x58, 0x05, 0x90, 0x4E,
0x00, 0x00, 0x91, 0x38, 0x45, 0x2D, 0x90, 0x51, 0x00, 0x00, 0x95, 0x36, 0x47, 0x1A, 0x93, 0x45,
0x00, 0x0E, 0x94, 0x36, 0x00, 0x00, 0x93, 0x4E, 0x60, 0x0A, 0x92, 0x4B, 0x00, 0x00, 0x95, 0x33,
0x00, 0x00, 0x92, 0x44, 0x58, 0x00, 0x90, 0x50, 0x65, 0x05, 0x92, 0x4E, 0x00, 0x00, 0x94, 0x38,
0x45, 0x2D, 0x92, 0x51, 0x00, 0x1E, 0x91, 0x36, 0x4D, 0x0A, 0x95, 0x36, 0x00, 0x0A, 0x93, 0x4B,
0x00, 0x00, 0x93, 0x44, 0x58, 0x00, 0x92, 0x50, 0x65, 0x05, 0x93, 0x4E, 0x00, 0x00, 0x95, 0x38,
0x45, 0x28, 0x91, 0x38, 0x00, 0x05, 0x93, 0x51, 0x00, 0x1E, 0x94, 0x36, 0x4D, 0x05, 0x90, 0x4B,
0x53, 0x0F, 0x93, 0x50, 0x65, 0x2D, 0x94, 0x38, 0x00, 0x00, 0x91, 0x36, 0x00, 0x0A, 0x91, 0x33,
0x47, 0x14, 0x90, 0x50, 0x00, 0x05, 0x95, 0x36, 0x4D, 0x05, 0x92, 0x4B, 0x56, 0x19, 0x90, 0x4B,
0x00, 0x0F, 0x90, 0x4E, 0x5A, 0x14, 0x95, 0x38, 0x00, 0x00, 0x94, 0x36, 0x00, 0x0A, 0x94, 0x33,
0x47, 0x14, 0x92, 0x50, 0x00, 0x0A, 0x93, 0x4B, 0x56, 0x19, 0x92, 0x4B, 0x00, 0x0F, 0x92, 0x4E,
0x60, 0x14, 0x95, 0x36, 0x00, 0x0A, 0x95, 0x33, 0x47, 0x14, 0x93, 0x50, 0x00, 0x23, 0x93, 0x4B,
0x00, 0x0F, 0x93, 0x4E, 0x60, 0x05, 0x91, 0x33, 0x00, 0x05, 0x91, 0x31, 0x4E, 0x0A, 0x90, 0x44,
0x00, 0x0C, 0x90, 0x4E, 0x00, 0x0B, 0x91, 0x30, 0x00, 0x3E, 0x94, 0x33, 0x00, 0x05, 0x94, 0x31,
0x53, 0x0A, 0x92, 0x44, 0x00, 0x0C, 0x92, 0x4E, 0x00, 0x08, 0x90, 0x44, 0x4D, 0x03, 0x94, 0x30,
0x00, 0x3E, 0x95, 0x33, 0x00, 0x05, 0x95, 0x31, 0x4F, 0x0A, 0x93, 0x44, 0x00, 0x0C, 0x93, 0x4E,
0x00, 0x08, 0x92, 0x44, 0x5B, 0x03, 0x95, 0x30, 0x00, 0x07, 0x90, 0x45, 0x49, 0x14, 0x91, 0x38,
0x44, 0x02, 0x90, 0x44, 0x00, 0x44, 0x93, 0x44, 0x5B, 0x0A, 0x92, 0x45, 0x54, 0x0F, 0x90, 0x44,
0x45, 0x05, 0x94, 0x38, 0x49, 0x02, 0x92, 0x44, 0x00, 0x10, 0x90, 0x45, 0x00, 0x1B, 0x91, 0x3D,
0x42, 0x1D, 0x91, 0x38, 0x00, 0x06, 0x93, 0x45, 0x54, 0x0F, 0x92, 0x44, 0x51, 0x05, 0x95, 0x38,
0x43, 0x00, 0x90, 0x43, 0x3C, 0x02, 0x93, 0x44, 0x00, 0x10, 0x92, 0x45, 0x00, 0x03, 0x90, 0x44,
0x00, 0x09, 0xB0, 0x43, 0x00, 0x0F, 0x94, 0x3D, 0x47, 0x05, 0x91, 0x40, 0x3E, 0x0A, 0x90, 0x44,
0x43, 0x0B, 0x91, 0x3D, 0x00, 0x01, 0x90, 0x43, 0x00, 0x02, 0x94, 0x38, 0x00, 0x15, 0x93, 0x44,
0x51, 0x05, 0x92, 0x43, 0x44, 0x12, 0x93, 0x45, 0x00, 0x03, 0x92, 0x44, 0x00, 0x09, 0xB2, 0x43,
0x00, 0x0F, 0x95, 0x3D, 0x41, 0x05, 0x94, 0x40, 0x42, 0x0A, 0x91, 0x3D, 0x3D, 0x00, 0x92, 0x44,
0x4D, 0x05, 0x90, 0x49, 0x42, 0x06, 0x94, 0x3D, 0x00, 0x01, 0x92, 0x43, 0x00, 0x02, 0x95, 0x38,
0x00, 0x08, 0x91, 0x40, 0x00, 0x04, 0x90, 0x44, 0x00, 0x0E, 0x93, 0x43, 0x44, 0x15, 0x93, 0x44,
0x00, 0x09, 0xB3, 0x43, 0x00, 0x05, 0x90, 0x4C, 0x3F, 0x05, 0x91, 0x38, 0x3A, 0x09, 0x90, 0x49,
0x00, 0x01, 0x95, 0x40, 0x3E, 0x06, 0x91, 0x3D, 0x00, 0x04, 0x94, 0x3D, 0x42, 0x00, 0x93, 0x44,
0x4D, 0x05, 0x92, 0x49, 0x4C, 0x06, 0x95, 0x3D, 0x00, 0x01, 0x93, 0x43, 0x00, 0x0A, 0x94, 0x40,
0x00, 0x04, 0x92, 0x44, 0x00, 0x31, 0x91, 0x31, 0x00, 0x00, 0x90, 0x4B, 0x41, 0x00, 0x91, 0x34,
0x39, 0x00, 0x92, 0x4C, 0x48, 0x05, 0x94, 0x38, 0x3E, 0x09, 0x92, 0x49, 0x00, 0x05, 0x91, 0x38,
0x00, 0x01, 0x90, 0x4C, 0x00, 0x01, 0x94, 0x3D, 0x00, 0x04, 0x95, 0x3D, 0x3C, 0x05, 0x93, 0x49,
0x4C, 0x11, 0x95, 0x40, 0x00, 0x04, 0x93, 0x44, 0x00, 0x2C, 0x90, 0x49, 0x3E, 0x05, 0x94, 0x31,
0x00, 0x00, 0x92, 0x4B, 0x4A, 0x00, 0x94, 0x34, 0x3D, 0x00, 0x93, 0x4C, 0x48, 0x05, 0x95, 0x38,
0x3A, 0x09, 0x90, 0x4B, 0x00, 0x00, 0x93, 0x49, 0x00, 0x05, 0x94, 0x38, 0x00, 0x01, 0x92, 0x4C,
0x00, 0x01, 0x95, 0x3D, 0x00, 0x04, 0x91, 0x38, 0x3A, 0x1E, 0x90, 0x4B, 0x38, 0x0C, 0x90, 0x49,
0x00, 0x1C, 0x92, 0x49, 0x45, 0x05, 0x95, 0x31, 0x00, 0x00, 0x93, 0x4B, 0x49, 0x00, 0x95, 0x34,
0x39, 0x05, 0x91, 0x3D, 0x36, 0x09, 0x92, 0x4B, 0x00, 0x05, 0x95, 0x38, 0x00, 0x01, 0x93, 0x4C,
0x00, 0x01, 0x91, 0x38, 0x00, 0x04, 0x94, 0x38, 0x3E, 0x0A, 0x90, 0x49, 0x3F, 0x10, 0x90, 0x4B,
0x00, 0x04, 0x92, 0x4B, 0x3E, 0x0C, 0x92, 0x49, 0x00, 0x1C, 0x93, 0x49, 0x45, 0x0A, 0x94, 0x3D,
0x3A, 0x09, 0x93, 0x4B, 0x00, 0x06, 0x90, 0x48, 0x36, 0x01, 0x94, 0x38, 0x00, 0x04, 0x95, 0x38,
0x39, 0x0A, 0x92, 0x49, 0x45, 0x02, 0x90, 0x49, 0x00, 0x03, 0x91, 0x40, 0x36, 0x0B, 0x92, 0x4B,
0x00, 0x04, 0x93, 0x4B, 0x3E, 0x0C, 0x91, 0x3D, 0x00, 0x00, 0x93, 0x49, 0x00, 0x0D, 0x90, 0x49,
0x37, 0x0C, 0x90, 0x48, 0x00, 0x0D, 0x95, 0x3D, 0x36, 0x0F, 0x92, 0x48, 0x3C, 0x01, 0x95, 0x38,
0x00, 0x0E, 0x93, 0x49, 0x45, 0x02, 0x92, 0x49, 0x00, 0x03, 0x94, 0x40, 0x39, 0x05, 0x90, 0x4C,
0x33, 0x05, 0x91, 0x3D, 0x32, 0x01, 0x93, 0x4B, 0x00, 0x07, 0x90, 0x49, 0x00, 0x09, 0x94, 0x3D,
0x00, 0x05, 0x91, 0x40, 0x00, 0x08, 0x92, 0x49, 0x3D, 0x0C, 0x92, 0x48, 0x00, 0x1C, 0x93, 0x48,
0x3C, 0x05, 0x91, 0x38, 0x33, 0x05, 0x90, 0x50, 0x34, 0x07, 0x93, 0x49, 0x00, 0x03, 0x91, 0x3D,
0x00, 0x00, 0x95, 0x40, 0x36, 0x05, 0x92, 0x4C, 0x3A, 0x02, 0x90, 0x4C, 0x00, 0x03, 0x94, 0x3D,
0x35, 0x08, 0x92, 0x49, 0x00, 0x09, 0x95, 0x3D, 0x00, 0x05, 0x94, 0x40, 0x00, 0x08, 0x93, 0x49,
0x3D, 0x0C, 0x93, 0x48, 0x00, 0x21, 0x94, 0x38, 0x36, 0x05, 0x92, 0x50, 0x3A, 0x0A, 0x94, 0x3D,
0x00, 0x05, 0x93, 0x4C, 0x39, 0x02, 0x92, 0x4C, 0x00, 0x03, 0x91, 0x34, 0x00, 0x00, 0x91, 0x31,
0x3C, 0x00, 0x95, 0x3D, 0x32, 0x08, 0x93, 0x49, 0x00, 0x0E, 0x95, 0x40, 0x00, 0x03, 0x91, 0x38,
0x00, 0x32, 0x90, 0x50, 0x00, 0x00, 0x90, 0x44, 0x2B, 0x00, 0x95, 0x38, 0x33, 0x05, 0x93, 0x50,
0x3A, 0x0A, 0x95, 0x3D, 0x00, 0x07, 0x93, 0x4C, 0x00, 0x03, 0x94, 0x34, 0x00, 0x00, 0x94, 0x31,
0x40, 0x19, 0x94, 0x38, 0x00, 0x14, 0x90, 0x45, 0x2B, 0x05, 0x91, 0x38, 0x2F, 0x09, 0x90, 0x44,
0x00, 0x10, 0x92, 0x50, 0x00, 0x00, 0x92, 0x44, 0x30, 0x19, 0x95, 0x34, 0x00, 0x00, 0x95, 0x31,
0x3C, 0x19, 0x95, 0x38, 0x00, 0x0F, 0x90, 0x44, 0x27, 0x05, 0x92, 0x45, 0x30, 0x05, 0x94, 0x38,
0x34, 0x09, 0x90, 0x45, 0x00, 0x00, 0x92, 0x44, 0x00, 0x06, 0x91, 0x3D, 0x2E, 0x0A, 0x93, 0x50,
0x00, 0x00, 0x93, 0x44, 0x2E, 0x0D, 0x91, 0x38, 0x00, 0x2A, 0x90, 0x43, 0x21, 0x0A, 0x92, 0x44,
0x2D, 0x05, 0x93, 0x45, 0x2E, 0x03, 0x90, 0x44, 0x00, 0x02, 0x95, 0x38, 0x2F, 0x09, 0x92, 0x45,
0x00, 0x00, 0x93, 0x44, 0x00, 0x06, 0x94, 0x3D, 0x32, 0x0A, 0x91, 0x40, 0x2B, 0x0D, 0x94, 0x38,
0x00, 0x02, 0x90, 0x44, 0x25, 0x07, 0x91, 0x3D, 0x00, 0x05, 0x90, 0x43, 0x00, 0x1C, 0x92, 0x43,
0x26, 0x0A, 0x93, 0x44, 0x2D, 0x08, 0x92, 0x44, 0x00, 0x0B, 0x93, 0x45, 0x00, 0x06, 0x95, 0x3D,
0x2E, 0x0A, 0x94, 0x40, 0x2D, 0x05, 0x91, 0x3D, 0x24, 0x08, 0x95, 0x38, 0x00, 0x02, 0x92, 0x44,
0x29, 0x07, 0x94, 0x3D, 0x00, 0x03, 0x90, 0x49, 0x22, 0x01, 0x91, 0x40, 0x00, 0x01, 0x92, 0x43,
0x00, 0x14, 0x90, 0x44, 0x00, 0x08, 0x93, 0x43, 0x26, 0x12, 0x93, 0x44, 0x00, 0x07, 0x90, 0x4C,
0x22, 0x0A, 0x91, 0x38, 0x27, 0x0A, 0x95, 0x40, 0x2B, 0x05, 0x94, 0x3D, 0x27, 0x02, 0x91, 0x3D,
0x00, 0x08, 0x93, 0x44, 0x29, 0x07, 0x95, 0x3D, 0x00, 0x03, 0x92, 0x49, 0x26, 0x01, 0x94, 0x40,
0x00, 0x01, 0x93, 0x43, 0x00, 0x04, 0x90, 0x49, 0x00, 0x10, 0x92, 0x44, 0x00, 0x21, 0x90, 0x4B,
0x21, 0x00, 0x92, 0x4C, 0x26, 0x0A, 0x91, 0x31, 0x00, 0x00, 0x91, 0x34, 0x25, 0x00, 0x94, 0x38,
0x2A, 0x0A, 0x90, 0x4C, 0x00, 0x05, 0x95, 0x3D, 0x24, 0x02, 0x94, 0x3D, 0x00, 0x03, 0x91, 0x38,
0x00, 0x0F, 0x93, 0x49, 0x26, 0x01, 0x95, 0x40, 0x00, 0x05, 0x92, 0x49, 0x00, 0x10, 0x93, 0x44,
0x00, 0x21, 0x92, 0x4B, 0x25, 0x00, 0x93, 0x4C, 0x25, 0x05, 0x90, 0x49, 0x1F, 0x05, 0x94, 0x31,
0x00, 0x00, 0x94, 0x34, 0x27, 0x00, 0x95, 0x38, 0x27, 0x0A, 0x92, 0x4C, 0x00, 0x06, 0x90, 0x4B,
0x00, 0x01, 0x95, 0x3D, 0x00, 0x03, 0x94, 0x38, 0x00, 0x05, 0x91, 0x38, 0x24, 0x10, 0x93, 0x49,
0x00, 0x13, 0x90, 0x4B, 0x1E, 0x0D, 0x90, 0x49, 0x00, 0x11, 0x93, 0x4B, 0x24, 0x05, 0x92, 0x49,
0x22, 0x05, 0x95, 0x31, 0x00, 0x00, 0x95, 0x34, 0x25, 0x0A, 0x93, 0x4C, 0x00, 0x06, 0x92, 0x4B,
0x00, 0x04, 0x95, 0x38, 0x00, 0x05, 0x94, 0x38, 0x26, 0x00, 0x91, 0x3D, 0x22, 0x14, 0x91, 0x38,
0x00, 0x05, 0x90, 0x49, 0x1D, 0x0A, 0x92, 0x4B, 0x22, 0x08, 0x90, 0x4B, 0x00, 0x05, 0x92, 0x49,
0x00, 0x16, 0x93, 0x49, 0x21, 0x15, 0x93, 0x4B, 0x00, 0x09, 0x95, 0x38, 0x24, 0x00, 0x94, 0x3D,
0x24, 0x05, 0x90, 0x48, 0x1A, 0x0A, 0x91, 0x40, 0x20, 0x05, 0x94, 0x38, 0x00, 0x01, 0x90, 0x49,
0x00, 0x04, 0x92, 0x49, 0x20, 0x0A, 0x93, 0x4B, 0x20, 0x03, 0x91, 0x3D, 0x00, 0x05, 0x92, 0x4B,
0x00, 0x05, 0x93, 0x49, 0x00, 0x1B, 0x90, 0x49, 0x1A, 0x0E, 0x90, 0x48, 0x00, 0x0B, 0x95, 0x3D,
0x22, 0x05, 0x92, 0x48, 0x1D, 0x0A, 0x94, 0x40, 0x22, 0x05, 0x95, 0x38, 0x00, 0x01, 0x92, 0x49,
0x00, 0x04, 0x93, 0x49, 0x1F, 0x05, 0x91, 0x3D, 0x20, 0x08, 0x94, 0x3D, 0x00, 0x05, 0x93, 0x4B,
0x00, 0x07, 0x90, 0x4C, 0x18, 0x03, 0x91, 0x40, 0x00, 0x0C, 0x90, 0x49, 0x00, 0x0A, 0x92, 0x49,
0x1D, 0x0E, 0x92, 0x48, 0x00, 0x10, 0x93, 0x48, 0x1C, 0x0A, 0x95, 0x40, 0x20, 0x06, 0x93, 0x49,
0x00, 0x04, 0x91, 0x38, 0x1D, 0x05, 0x94, 0x3D, 0x22, 0x00, 0x90, 0x50, 0x18, 0x08, 0x95, 0x3D,
0x00, 0x06, 0x91, 0x3D, 0x00, 0x02, 0x90, 0x4C, 0x00, 0x04, 0x92, 0x4C, 0x1A, 0x03, 0x94, 0x40,
0x00, 0x0C, 0x92, 0x49, 0x00, 0x0A, 0x93, 0x49, 0x1C, 0x0E, 0x93, 0x48, 0x00, 0x24, 0x94, 0x38,
0x1E, 0x05, 0x95, 0x3D, 0x20, 0x00, 0x92, 0x50, 0x1A, 0x0A, 0x91, 0x34, 0x00, 0x00, 0x91, 0x33,
0x21, 0x04, 0x94, 0x3D, 0x00, 0x02, 0x92, 0x4C, 0x00, 0x04, 0x93, 0x4C, 0x19, 0x03, 0x95, 0x40,
0x00, 0x02, 0x90, 0x50, 0x00, 0x08, 0x91, 0x38, 0x00, 0x02, 0x93, 0x49, 0x00, 0x3C, 0x95, 0x38,
0x1C, 0x05, 0x93, 0x50, 0x1A, 0x05, 0x90, 0x45, 0x14, 0x05, 0x94, 0x34, 0x00, 0x00, 0x94, 0x33,
0x23, 0x04, 0x95, 0x3D, 0x00, 0x02, 0x93, 0x4C, 0x00, 0x09, 0x92, 0x50, 0x00, 0x08, 0x94, 0x38,
0x00, 0x02, 0x91, 0x39, 0x1A, 0x37, 0x90, 0x49, 0x15, 0x0F, 0x92, 0x45, 0x15, 0x02, 0x90, 0x45,
0x00, 0x03, 0x95, 0x34, 0x00, 0x00, 0x95, 0x33, 0x21, 0x0F, 0x93, 0x50, 0x00, 0x08, 0x95, 0x38,
0x00, 0x02, 0x94, 0x39, 0x1C, 0x23, 0x91, 0x3D, 0x1C, 0x05, 0x90, 0x4B, 0x12, 0x0F, 0x92, 0x49,
0x17, 0x02, 0x90, 0x49, 0x00, 0x05, 0x91, 0x39, 0x00, 0x08, 0x93, 0x45, 0x15, 0x02, 0x92, 0x45,
0x00, 0x1C, 0x95, 0x39, 0x1A, 0x0A, 0x90, 0x4E, 0x12, 0x0E, 0x90, 0x4B, 0x00, 0x06, 0x91, 0x42,
0x1B, 0x05, 0x94, 0x3D, 0x1E, 0x05, 0x92, 0x4B, 0x13, 0x09, 0x91, 0x3D, 0x00, 0x06, 0x93, 0x49,
0x16, 0x02, 0x92, 0x49, 0x00, 0x05, 0x94, 0x39, 0x00, 0x0A, 0x93, 0x45, 0x00, 0x1C, 0x90, 0x51,
0x11, 0x0A, 0x92, 0x4E, 0x14, 0x08, 0x90, 0x4E, 0x00, 0x06, 0x92, 0x4B, 0x00, 0x06, 0x94, 0x42,
0x1C, 0x05, 0x95, 0x3D, 0x1C, 0x05, 0x93, 0x4B, 0x13, 0x05, 0x91, 0x3D, 0x17, 0x04, 0x94, 0x3D,
0x00, 0x08, 0x93, 0x49, 0x00, 0x05, 0x95, 0x39, 0x00, 0x06, 0x91, 0x42, 0x00, 0x16, 0x90, 0x55,
0x11, 0x0A, 0x92, 0x51, 0x13, 0x08, 0x90, 0x51, 0x00, 0x02, 0x93, 0x4E, 0x13, 0x08, 0x92, 0x4E,
0x00, 0x06, 0x93, 0x4B, 0x00, 0x01, 0x91, 0x39, 0x15, 0x05, 0x95, 0x42, 0x1B, 0x0B, 0x91, 0x3D,
0x00, 0x04, 0x94, 0x3D, 0x18, 0x04, 0x95, 0x3D, 0x00, 0x06, 0x90, 0x57, 0x10, 0x0D, 0x94, 0x42,
0x00, 0x00, 0x90, 0x55, 0x00, 0x16, 0x92, 0x55, 0x12, 0x0A, 0x93, 0x51, 0x12, 0x08, 0x92, 0x51,
0x00, 0x0A, 0x93, 0x4E, 0x00, 0x07, 0x94, 0x39, 0x16, 0x10, 0x94, 0x3D, 0x00, 0x04, 0x95, 0x3D,
0x16, 0x0A, 0x91, 0x33, 0x00, 0x00, 0x91, 0x36, 0x17, 0x00, 0x90, 0x5F, 0x0F, 0x00, 0x92, 0x57,
0x10, 0x0D, 0x95, 0x42, 0x00, 0x00, 0x92, 0x55, 0x00, 0x07, 0x90, 0x57, 0x00, 0x06, 0x91, 0x39,
0x00, 0x09, 0x93, 0x55, 0x12, 0x12, 0x93, 0x51, 0x00, 0x11, 0x95, 0x39, 0x14, 0x10, 0x95, 0x3D,
0x00, 0x09, 0x90, 0x5D, 0x0E, 0x05, 0x94, 0x33, 0x00, 0x00, 0x94, 0x36, 0x18, 0x00, 0x92, 0x5F,
0x10, 0x00, 0x93, 0x57, 0x10, 0x0D, 0x93, 0x55, 0x00, 0x01, 0x90, 0x5F, 0x00, 0x06, 0x92, 0x57,
0x00, 0x06, 0x94, 0x39, 0x00, 0x0E, 0x91, 0x3D, 0x15, 0x1E, 0x90, 0x5C, 0x0D, 0x0F, 0x90, 0x5D,
0x00, 0x0A, 0x92, 0x5D, 0x0F, 0x05, 0x95, 0x33, 0x00, 0x00, 0x95, 0x36, 0x17, 0x00, 0x93, 0x5F,
0x10, 0x0E, 0x92, 0x5F, 0x00, 0x06, 0x93, 0x57, 0x00, 0x06, 0x95, 0x39, 0x00, 0x04, 0x91, 0x3F,
0x13, 0x0A, 0x94, 0x3D, 0x16, 0x05, 0x90, 0x5A, 0x0C, 0x03, 0x91, 0x3D, 0x00, 0x0C, 0x90, 0x5C,
0x00, 0x0A, 0x92, 0x5C, 0x0E, 0x0F, 0x92, 0x5D, 0x00, 0x0A, 0x93, 0x5D, 0x0E, 0x13, 0x93, 0x5F,
0x00, 0x06, 0x90, 0x58, 0x0B, 0x0A, 0x94, 0x3F, 0x13, 0x05, 0x90, 0x5A, 0x00, 0x05, 0x95, 0x3D,
0x14, 0x00, 0x91, 0x45, 0x13, 0x05, 0x92, 0x5A, 0x0D, 0x03, 0x94, 0x3D, 0x00, 0x0C, 0x92, 0x5C,
0x00, 0x02, 0x91, 0x3F, 0x00, 0x08, 0x93, 0x5C, 0x0C, 0x0F, 0x93, 0x5D, 0x00, 0x05, 0x90, 0x57,
0x0B, 0x0E, 0x90, 0x58, 0x00, 0x10, 0x92, 0x58, 0x0C, 0x0A, 0x95, 0x3F, 0x12, 0x05, 0x92, 0x5A,
0x00, 0x05, 0x94, 0x45, 0x14, 0x05, 0x93, 0x5A, 0x0C, 0x03, 0x95, 0x3D, 0x00, 0x07, 0x91, 0x3F,
0x10, 0x05, 0x93, 0x5C, 0x00, 0x02, 0x94, 0x3F, 0x00, 0x08, 0x90, 0x5A, 0x09, 0x08, 0x91, 0x45,
0x00, 0x02, 0x91, 0x3D, 0x10, 0x06, 0x90, 0x57, 0x00, 0x04, 0x92, 0x57, 0x0B, 0x0E, 0x92, 0x58,
0x00, 0x10, 0x93, 0x58, 0x0B, 0x0F, 0x93, 0x5A, 0x00, 0x00, 0x90, 0x55, 0x09, 0x05, 0x95, 0x45,
0x13, 0x08, 0x90, 0x5A, 0x00, 0x07, 0x94, 0x3F, 0x10, 0x07, 0x95, 0x3F, 0x00, 0x08, 0x92, 0x5A,
0x0A, 0x08, 0x94, 0x45, 0x00, 0x02, 0x94, 0x3D, 0x11, 0x06, 0x92, 0x57, 0x00, 0x04, 0x93, 0x57,
0x0A, 0x0E, 0x93, 0x58, 0x00, 0x01, 0x90, 0x54, 0x08, 0x0A, 0x91, 0x36, 0x00, 0x00, 0x91, 0x2C,
0x11, 0x04, 0x90, 0x55, 0x00, 0x10, 0x92, 0x55, 0x09, 0x07, 0x91, 0x3D, 0x00, 0x05, 0x91, 0x3F,
0x00, 0x01, 0x92, 0x5A, 0x00, 0x07, 0x95, 0x3F, 0x0F, 0x0F, 0x93, 0x5A, 0x09, 0x05, 0x90, 0x57,
0x08, 0x03, 0x95, 0x45, 0x00, 0x02, 0x95, 0x3D, 0x10, 0x06, 0x93, 0x57, 0x00, 0x03, 0x90, 0x54,
0x00, 0x10, 0x92, 0x54, 0x09, 0x0A, 0x94, 0x36, 0x00, 0x00, 0x94, 0x2C, 0x12, 0x04, 0x92, 0x55,
0x00, 0x10, 0x91, 0x33, 0x0F, 0x00, 0x93, 0x55, 0x09, 0x07, 0x94, 0x3D, 0x00, 0x05, 0x94, 0x3F,
0x00, 0x01, 0x93, 0x5A, 0x00, 0x16, 0x90, 0x51, 0x07, 0x05, 0x92, 0x57, 0x08, 0x0E, 0x90, 0x57,
0x00, 0x00, 0x92, 0x54, 0x00, 0x10, 0x93, 0x54, 0x07, 0x0A, 0x95, 0x36, 0x00, 0x00, 0x95, 0x2C,
0x11, 0x00, 0x91, 0x36, 0x0D, 0x04, 0x93, 0x55, 0x00, 0x0C, 0x91, 0x33, 0x00, 0x04, 0x94, 0x33,
0x0F, 0x05, 0x90, 0x50, 0x07, 0x02, 0x95, 0x3D, 0x00, 0x05, 0x95, 0x3F, 0x00, 0x07, 0x90, 0x51,
0x00, 0x10, 0x92, 0x51, 0x07, 0x05, 0x93, 0x57, 0x07, 0x0E, 0x92, 0x57, 0x00, 0x00, 0x93, 0x54,
0x00, 0x01, 0x91, 0x3C, 0x0A, 0x0F, 0x91, 0x36, 0x00, 0x0A, 0x94, 0x36, 0x0D, 0x05, 0x90, 0x4E,
0x06, 0x0B, 0x94, 0x33, 0x00, 0x04, 0x95, 0x33, 0x0E, 0x01, 0x90, 0x50, 0x00, 0x04, 0x92, 0x50,
0x07, 0x0E, 0x92, 0x51, 0x00, 0x10, 0x93, 0x51, 0x06, 0x0A, 0x90, 0x51, 0x05, 0x09, 0x93, 0x57,
0x00, 0x01, 0x94, 0x3C, 0x0B, 0x02, 0x90, 0x4E, 0x00, 0x0D, 0x94, 0x36, 0x00, 0x05, 0x91, 0x36,
0x0A, 0x05, 0x95, 0x36, 0x0C, 0x05, 0x92, 0x4E, 0x06, 0x0B, 0x95, 0x33, 0x00, 0x03, 0x91, 0x3C,
0x00, 0x02, 0x92, 0x50, 0x00, 0x04, 0x93, 0x50, 0x06, 0x0E, 0x93, 0x51, 0x00, 0x0B, 0x90, 0x4C,
0x05, 0x0F, 0x92, 0x51, 0x06, 0x02, 0x90, 0x51, 0x00, 0x08, 0x91, 0x33, 0x0A, 0x00, 0x95, 0x3C,
0x0A, 0x02, 0x92, 0x4E, 0x00, 0x0D, 0x95, 0x36, 0x00, 0x01, 0x91, 0x36, 0x00, 0x04, 0x94, 0x36,
0x0A, 0x0A, 0x93, 0x4E, 0x05, 0x0E, 0x94, 0x3C, 0x00, 0x02, 0x93, 0x50, 0x00, 0x04, 0x90, 0x4B,
0x05, 0x0F, 0x90, 0x4C, 0x00, 0x0A, 0x92, 0x4C, 0x05, 0x0F, 0x93, 0x51, 0x05, 0x02, 0x92, 0x51,
0x00, 0x08, 0x94, 0x33, 0x0A, 0x02, 0x93, 0x4E, 0x00, 0x0E, 0x94, 0x36, 0x00, 0x04, 0x95, 0x36,
0x0A, 0x05, 0x91, 0x2C, 0x00, 0x00, 0x91, 0x2C, 0x0A, 0x0A, 0x90, 0x4E, 0x05, 0x09, 0x95, 0x3C,
0x00, 0x06, 0x91, 0x33, 0x00, 0x00, 0x92, 0x4B, 0x04, 0x02, 0x90, 0x4B, 0x00, 0x0D, 0x92, 0x4C,
0x00, 0x0A, 0x93, 0x4C, 0x05, 0x11, 0x93, 0x51, 0x00, 0x08, 0x95, 0x33, 0x0A, 0x00, 0x90, 0x49,
0x04, 0x0D, 0x90, 0x4E, 0x00, 0x03, 0x95, 0x36, 0x00, 0x09, 0x94, 0x2C, 0x00, 0x00, 0x94, 0x2C,
0x0A, 0x0A, 0x92, 0x4E, 0x04, 0x05, 0x91, 0x33, 0x09, 0x0A, 0x94, 0x33, 0x00, 0x00, 0x93, 0x4B,
0x04, 0x02, 0x92, 0x4B, 0x00, 0x0D, 0x93, 0x4C, 0x00, 0x0A, 0x90, 0x48, 0x03, 0x0F, 0x90, 0x49,
0x00, 0x0A, 0x92, 0x49, 0x03, 0x0D, 0x92, 0x4E, 0x00, 0x0C, 0x95, 0x2C, 0x00, 0x00, 0x95, 0x2C,
0x0A, 0x0A, 0x91, 0x36, 0x08, 0x00, 0x93, 0x4E, 0x04, 0x05, 0x94, 0x33, 0x09, 0x05, 0x90, 0x4B,
0x03, 0x05, 0x95, 0x33, 0x00, 0x02, 0x93, 0x4B, 0x00, 0x02, 0x91, 0x33, 0x00, 0x05, 0x90, 0x48,
0x00, 0x10, 0x92, 0x48, 0x03, 0x0F, 0x92, 0x49, 0x00, 0x0A, 0x93, 0x49, 0x03, 0x0D, 0x93, 0x4E,
0x00, 0x0C, 0x91, 0x3C, 0x06, 0x0A, 0x94, 0x36, 0x07, 0x05, 0x95, 0x33, 0x08, 0x00, 0x90, 0x45,
0x03, 0x03, 0x91, 0x36, 0x00, 0x02, 0x92, 0x4B, 0x03, 0x09, 0x94, 0x33, 0x00, 0x05, 0x90, 0x4B,
0x00, 0x00, 0x92, 0x48, 0x00, 0x10, 0x93, 0x48, 0x03, 0x0F, 0x93, 0x49, 0x00, 0x19, 0x90, 0x44,
0x02, 0x0A, 0x94, 0x3C, 0x06, 0x05, 0x90, 0x45, 0x00, 0x05, 0x95, 0x36, 0x07, 0x05, 0x92, 0x45,
0x03, 0x03, 0x94, 0x36, 0x00, 0x02, 0x93, 0x4B, 0x03, 0x09, 0x95, 0x33, 0x00, 0x05, 0x92, 0x4B,
0x00, 0x00, 0x93, 0x48, 0x00, 0x01, 0x91, 0x36, 0x06, 0x1B, 0x91, 0x3C, 0x00, 0x03, 0x90, 0x47,
0x02, 0x0F, 0x90, 0x44, 0x00, 0x0A, 0x92, 0x44, 0x02, 0x0A, 0x95, 0x3C, 0x06, 0x05, 0x92, 0x45,
0x00, 0x0A, 0x93, 0x45, 0x02, 0x03, 0x95, 0x36, 0x00, 0x07, 0x91, 0x33, 0x05, 0x09, 0x93, 0x4B,
0x00, 0x01, 0x94, 0x36, 0x06, 0x08, 0x91, 0x36, 0x00, 0x0C, 0x90, 0x45, 0x02, 0x07, 0x94, 0x3C,
0x00, 0x03, 0x92, 0x47, 0x02, 0x08, 0x90, 0x47, 0x00, 0x07, 0x92, 0x44, 0x00, 0x0A, 0x93, 0x44,
0x02, 0x0F, 0x93, 0x45, 0x00, 0x14, 0x94, 0x33, 0x05, 0x0A, 0x95, 0x36, 0x06, 0x08, 0x94, 0x36,
0x00, 0x0C, 0x92, 0x45, 0x02, 0x07, 0x95, 0x3C, 0x00, 0x03, 0x93, 0x47, 0x02, 0x05, 0x91, 0x2C,
0x00, 0x03, 0x92, 0x47, 0x00, 0x07, 0x93, 0x44, 0x00, 0x13, 0x91, 0x33, 0x00, 0x1A, 0x95, 0x33,
0x05, 0x12, 0x95, 0x36, 0x00, 0x0C, 0x90, 0x45, 0x00, 0x00, 0x93, 0x45, 0x01, 0x0F, 0x94, 0x2C,
0x00, 0x03, 0x93, 0x47, 0x00, 0x1A, 0x94, 0x33, 0x00, 0x38, 0x92, 0x45, 0x00, 0x0F, 0x95, 0x2C,
0x00, 0x1D, 0x95, 0x33, 0x00, 0x38, 0x93, 0x45, 0x00, 0x8D, 0x1F, 0xFF, 0x2F, 0x00
